{
  "asset": {
    "generator": "Khronos glTF Blender I/O v1.3.48",
    "version": "2.0"
  },
  "scene": 0,
  "scenes": [
    {
      "name": "Scene",
      "nodes": [
        0,
        1,
        2,
        3,
        4,
        5,
        6
      ]
    }
  ],
  "nodes": [
    {
      "name": "Light",
      "rotation": [
        0.16907575726509094,
        0.7558803558349609,
        -0.27217137813568115,
        0.570947527885437
      ],
      "translation": [
        4.277133464813232,
        5.899562358856201,
        -3.9788804054260254
      ]
    },
    {
      "name": "Camera",
      "rotation": [
        0.483536034822464,
        0.33687159419059753,
        -0.20870360732078552,
        0.7804827094078064
      ],
      "translation": [
        7.358891487121582,
        6.269272804260254,
        6.925790786743164
      ]
    },
    {
      "mesh": 0,
      "name": "Earth",
      "translation": [
        0,
        0,
        -0.1710519641637802
      ]
    },
    {
      "mesh": 1,
      "name": "Fire",
      "rotation": [
        0.03838728368282318,
        0.00020090980979148299,
        -0.005232107359915972,
        -0.9992492198944092
      ],
      "translation": [
        0,
        0,
        2.557332992553711
      ]
    },
    {
      "mesh": 2,
      "name": "Air",
      "translation": [
        0,
        0,
        -2.8131625652313232
      ]
    },
    {
      "mesh": 3,
      "name": "Aether",
      "translation": [
        0,
        0,
        -8.428764343261719
      ]
    },
    {
      "mesh": 4,
      "name": "Water",
      "translation": [
        0,
        0,
        -5.3766374588012695
      ]
    }
  ],
  "materials": [
    {
      "doubleSided": true,
      "emissiveFactor": [
        0,
        0,
        0
      ],
      "name": "Material.001",
      "pbrMetallicRoughness": {
        "baseColorFactor": [
          0.03228975087404251,
          0.8000000715255737,
          0.01081884279847145,
          1
        ],
        "metallicFactor": 0,
        "roughnessFactor": 0.5
      }
    },
    {
      "doubleSided": true,
      "emissiveFactor": [
        0,
        0,
        0
      ],
      "name": "Material",
      "pbrMetallicRoughness": {
        "baseColorFactor": [
          0.8000000715255737,
          0.01834011822938919,
          0.015894746407866478,
          1
        ],
        "metallicFactor": 0,
        "roughnessFactor": 0.5
      }
    },
    {
      "doubleSided": true,
      "emissiveFactor": [
        0,
        0,
        0
      ],
      "name": "Material.002",
      "pbrMetallicRoughness": {
        "baseColorFactor": [
          0.8000000715255737,
          0.7049312591552734,
          0.0040872287936508656,
          1
        ],
        "metallicFactor": 0,
        "roughnessFactor": 0.5
      }
    },
    {
      "doubleSided": true,
      "emissiveFactor": [
        0,
        0,
        0
      ],
      "name": "Material.004",
      "pbrMetallicRoughness": {
        "baseColorFactor": [
          0.8000000715255737,
          0.15919312834739685,
          0.02286394312977791,
          1
        ],
        "metallicFactor": 0,
        "roughnessFactor": 0.5
      }
    },
    {
      "doubleSided": true,
      "emissiveFactor": [
        0,
        0,
        0
      ],
      "name": "Material.003",
      "pbrMetallicRoughness": {
        "baseColorFactor": [
          0.035327717661857605,
          0.44105878472328186,
          0.8000000715255737,
          1
        ],
        "metallicFactor": 0,
        "roughnessFactor": 0.5
      }
    }
  ],
  "meshes": [
    {
      "name": "Cube.001",
      "primitives": [
        {
          "attributes": {
            "POSITION": 0,
            "NORMAL": 1,
            "TEXCOORD_0": 2
          },
          "indices": 3,
          "material": 0
        }
      ]
    },
    {
      "name": "Cone",
      "primitives": [
        {
          "attributes": {
            "POSITION": 4,
            "NORMAL": 5,
            "TEXCOORD_0": 6
          },
          "indices": 7,
          "material": 1
        }
      ]
    },
    {
      "name": "Cube.003",
      "primitives": [
        {
          "attributes": {
            "POSITION": 8,
            "NORMAL": 9,
            "TEXCOORD_0": 10
          },
          "indices": 11,
          "material": 2
        }
      ]
    },
    {
      "name": "Solid",
      "primitives": [
        {
          "attributes": {
            "POSITION": 12,
            "NORMAL": 13
          },
          "indices": 14,
          "material": 3
        }
      ]
    },
    {
      "name": "Solid.001",
      "primitives": [
        {
          "attributes": {
            "POSITION": 15,
            "NORMAL": 16
          },
          "indices": 17,
          "material": 4
        }
      ]
    }
  ],
  "accessors": [
    {
      "bufferView": 0,
      "componentType": 5126,
      "count": 24,
      "max": [
        0.7694264054298401,
        0.7694264054298401,
        0.7694264054298401
      ],
      "min": [
        -0.7694264054298401,
        -0.7694264054298401,
        -0.7694264054298401
      ],
      "type": "VEC3"
    },
    {
      "bufferView": 1,
      "componentType": 5126,
      "count": 24,
      "type": "VEC3"
    },
    {
      "bufferView": 2,
      "componentType": 5126,
      "count": 24,
      "type": "VEC2"
    },
    {
      "bufferView": 3,
      "componentType": 5123,
      "count": 36,
      "type": "SCALAR"
    },
    {
      "bufferView": 4,
      "componentType": 5126,
      "count": 12,
      "max": [
        1.0883201360702515,
        0.8884754776954651,
        0.6283419728279114
      ],
      "min": [
        -1.0883201360702515,
        -0.8884754776954651,
        -1.2566838264465332
      ],
      "type": "VEC3"
    },
    {
      "bufferView": 5,
      "componentType": 5126,
      "count": 12,
      "type": "VEC3"
    },
    {
      "bufferView": 6,
      "componentType": 5126,
      "count": 12,
      "type": "VEC2"
    },
    {
      "bufferView": 7,
      "componentType": 5123,
      "count": 12,
      "type": "SCALAR"
    },
    {
      "bufferView": 8,
      "componentType": 5126,
      "count": 62,
      "max": [
        1,
        1,
        1
      ],
      "min": [
        -1,
        -1,
        -1
      ],
      "type": "VEC3"
    },
    {
      "bufferView": 9,
      "componentType": 5126,
      "count": 62,
      "type": "VEC3"
    },
    {
      "bufferView": 10,
      "componentType": 5126,
      "count": 62,
      "type": "VEC2"
    },
    {
      "bufferView": 11,
      "componentType": 5123,
      "count": 132,
      "type": "SCALAR"
    },
    {
      "bufferView": 12,
      "componentType": 5126,
      "count": 84,
      "max": [
        0.9341723322868347,
        0.9341723322868347,
        0.9341723322868347
      ],
      "min": [
        -0.9341723322868347,
        -0.9341723322868347,
        -0.9341723322868347
      ],
      "type": "VEC3"
    },
    {
      "bufferView": 13,
      "componentType": 5126,
      "count": 84,
      "type": "VEC3"
    },
    {
      "bufferView": 14,
      "componentType": 5123,
      "count": 108,
      "type": "SCALAR"
    },
    {
      "bufferView": 15,
      "componentType": 5126,
      "count": 60,
      "max": [
        0.8506507873535156,
        0.8506507873535156,
        0.8506507873535156
      ],
      "min": [
        -0.8506507873535156,
        -0.8506507873535156,
        -0.8506507873535156
      ],
      "type": "VEC3"
    },
    {
      "bufferView": 16,
      "componentType": 5126,
      "count": 60,
      "type": "VEC3"
    },
    {
      "bufferView": 17,
      "componentType": 5123,
      "count": 60,
      "type": "SCALAR"
    }
  ],
  "bufferViews": [
    {
      "buffer": 0,
      "byteLength": 288,
      "byteOffset": 0
    },
    {
      "buffer": 0,
      "byteLength": 288,
      "byteOffset": 288
    },
    {
      "buffer": 0,
      "byteLength": 192,
      "byteOffset": 576
    },
    {
      "buffer": 0,
      "byteLength": 72,
      "byteOffset": 768
    },
    {
      "buffer": 0,
      "byteLength": 144,
      "byteOffset": 840
    },
    {
      "buffer": 0,
      "byteLength": 144,
      "byteOffset": 984
    },
    {
      "buffer": 0,
      "byteLength": 96,
      "byteOffset": 1128
    },
    {
      "buffer": 0,
      "byteLength": 24,
      "byteOffset": 1224
    },
    {
      "buffer": 0,
      "byteLength": 744,
      "byteOffset": 1248
    },
    {
      "buffer": 0,
      "byteLength": 744,
      "byteOffset": 1992
    },
    {
      "buffer": 0,
      "byteLength": 496,
      "byteOffset": 2736
    },
    {
      "buffer": 0,
      "byteLength": 264,
      "byteOffset": 3232
    },
    {
      "buffer": 0,
      "byteLength": 1008,
      "byteOffset": 3496
    },
    {
      "buffer": 0,
      "byteLength": 1008,
      "byteOffset": 4504
    },
    {
      "buffer": 0,
      "byteLength": 216,
      "byteOffset": 5512
    },
    {
      "buffer": 0,
      "byteLength": 720,
      "byteOffset": 5728
    },
    {
      "buffer": 0,
      "byteLength": 720,
      "byteOffset": 6448
    },
    {
      "buffer": 0,
      "byteLength": 120,
      "byteOffset": 7168
    }
  ],
  "buffers": [
    {
      "uri": "plato_data.bin",
      "byteLength": 7288
    }
  ]
}