<?xml version="1.0" standalone="no"?>
<!DOCTYPE svg PUBLIC "-//W3C//DTD SVG 20010904//EN"
 "http://www.w3.org/TR/2001/REC-SVG-20010904/DTD/svg10.dtd">
<svg version="1.0" xmlns="http://www.w3.org/2000/svg"
 width="300.000000pt" height="244.000000pt" viewBox="0 0 300.000000 244.000000"
 preserveAspectRatio="xMidYMid meet">
<metadata>
Created by potrace 1.10, written by Peter Selinger 2001-2011
</metadata>
<g transform="translate(0.000000,244.000000) scale(0.100000,-0.100000)"
fill="#ff00ff" stroke="none">
<path d="M1142 2394 c-21 -15 -22 -21 -22 -194 0 -149 3 -181 16 -194 13 -14
60 -16 363 -16 320 0 349 1 364 18 13 15 16 46 16 190 0 158 -2 175 -20 193
-18 18 -35 19 -357 19 -289 0 -341 -2 -360 -16z m160 -64 l3 -60 -82 0 -83 0
0 53 c0 30 3 57 7 60 3 4 39 7 79 7 l72 0 4 -60z m188 0 l0 -60 -85 0 -85 0 0
60 0 60 85 0 85 0 0 -60z m180 0 l0 -60 -80 0 -80 0 0 60 0 60 80 0 80 0 0
-60z m178 48 c7 -7 12 -34 12 -60 l0 -48 -85 0 -85 0 0 60 0 60 73 0 c43 0 78
-5 85 -12z m-544 -181 l1 -57 -82 0 -83 0 0 60 0 61 81 -3 81 -3 2 -58z m186
3 l0 -60 -85 0 -85 0 0 60 0 60 85 0 85 0 0 -60z m182 0 l3 -60 -85 0 -85 0 3
60 4 60 78 0 78 0 4 -60z m188 0 l0 -60 -85 0 -85 0 0 60 0 60 85 0 85 0 0
-60z m-560 -137 l0 -63 -68 0 c-40 0 -73 5 -80 12 -7 7 -12 35 -12 63 l0 50
80 0 80 0 0 -62z m190 2 l0 -65 -85 0 -85 0 0 60 0 59 83 4 c45 1 83 4 85 5 1
1 2 -27 2 -63z m180 -2 l0 -63 -80 0 -80 0 0 63 0 62 80 0 80 0 0 -62z m179
-49 c-8 -10 -34 -14 -85 -14 l-74 0 0 60 0 59 83 3 82 3 3 -48 c2 -27 -2 -55
-9 -63z"/>
<path d="M1361 1901 c-14 -25 -14 -87 -1 -112 10 -17 22 -19 124 -19 134 0
138 3 134 87 l-3 58 -122 3 c-113 2 -123 1 -132 -17z m237 -53 l-3 -63 -104
-3 c-77 -2 -107 1 -113 10 -9 16 -11 102 -1 111 3 4 55 7 115 7 l109 0 -3 -62z"/>
<path d="M1457 1864 c-4 -4 -1 -14 6 -22 10 -13 9 -14 -2 -8 -9 6 -12 4 -9 -5
7 -22 33 -17 30 6 -4 24 -16 38 -25 29z"/>
<path d="M1420 1834 c0 -14 4 -23 10 -19 6 3 10 15 10 26 0 10 -4 19 -10 19
-5 0 -10 -12 -10 -26z"/>
<path d="M1491 1855 c-1 -18 16 -38 27 -31 6 3 12 0 14 -6 3 -8 9 -4 17 10 14
26 5 45 -9 22 -8 -12 -10 -12 -10 -1 0 10 -3 11 -14 2 -11 -9 -15 -9 -19 1 -3
7 -6 9 -6 3z"/>
<path d="M1170 1255 c-171 -257 -314 -473 -317 -481 -4 -12 89 -14 641 -14
355 0 646 3 646 6 0 3 -107 164 -239 357 -373 551 -401 592 -411 595 -5 2
-149 -207 -320 -463z m498 183 c98 -145 237 -348 308 -452 71 -105 132 -195
136 -200 4 -8 -181 -11 -618 -11 -343 0 -623 2 -622 5 6 10 613 919 615 920 1
0 82 -118 181 -262z"/>
<path d="M1099 1340 c-133 -196 -229 -327 -236 -325 -8 3 -13 -5 -13 -20 0
-13 -4 -27 -10 -30 -5 -3 -10 -11 -10 -16 0 -14 59 33 59 47 1 6 27 49 59 95
216 314 387 565 390 571 2 4 0 8 -5 8 -5 0 -110 -148 -234 -330z"/>
<path d="M1871 1334 c116 -174 213 -313 216 -310 10 9 -398 624 -415 625 -7 1
83 -141 199 -315z"/>
<path d="M1826 1575 c-11 -8 -17 -18 -13 -21 4 -4 13 -1 22 6 9 7 18 10 22 6
4 -3 -2 -13 -13 -21 -18 -14 -17 -15 11 -9 27 5 28 4 13 -9 -10 -8 -18 -17
-18 -20 0 -4 8 -3 18 0 15 6 15 5 3 -10 -7 -9 -10 -17 -5 -17 14 0 70 49 57
50 -6 0 -15 -4 -18 -10 -3 -5 -11 -10 -18 -10 -8 0 -8 3 1 12 8 8 6 18 -9 40
-23 32 -27 33 -53 13z"/>
<path d="M1106 1532 c-13 -26 -13 -29 6 -41 24 -15 34 -9 13 9 -21 18 -19 32
4 19 20 -13 51 -6 51 11 0 5 -4 10 -10 10 -5 0 -10 -4 -10 -10 0 -5 -5 -10
-12 -10 -9 0 -9 3 0 12 18 18 15 28 -8 28 -11 0 -26 -12 -34 -28z"/>
<path d="M1095 1470 c14 -16 15 -20 4 -20 -8 0 -20 5 -27 12 -9 9 -12 9 -12 0
0 -7 -7 -12 -15 -12 -8 0 -15 -4 -15 -10 0 -12 34 -30 57 -29 15 0 14 2 -4 9
-13 5 -23 14 -23 20 0 13 13 13 27 -1 7 -7 15 -5 27 6 16 16 16 18 -1 31 -27
20 -38 17 -18 -6z"/>
<path d="M1887 1483 c-10 -10 -8 -26 7 -46 12 -15 16 -16 40 -3 17 9 23 17 16
21 -6 4 -17 2 -24 -4 -14 -12 -26 -5 -26 16 0 10 6 12 21 8 15 -5 19 -4 15 4
-8 12 -39 15 -49 4z"/>
<path d="M1937 1423 c-12 -12 -7 -41 8 -47 22 -8 49 23 34 40 -12 15 -31 18
-42 7z m33 -18 c0 -8 -7 -15 -15 -15 -16 0 -20 12 -8 23 11 12 23 8 23 -8z"/>
<path d="M1010 1399 c0 -6 6 -9 13 -6 8 3 20 1 28 -5 11 -8 10 -9 -4 -4 -12 4
-17 2 -15 -6 7 -19 27 -21 34 -3 4 10 1 21 -7 26 -20 12 -49 11 -49 -2z"/>
<path d="M1982 1379 c-27 -18 -30 -24 -20 -36 7 -9 22 -13 37 -10 23 5 24 4 8
-8 -21 -15 -22 -26 -3 -19 11 4 13 0 9 -16 -4 -16 0 -23 15 -27 13 -3 19 -10
15 -20 -4 -11 5 -8 30 8 19 13 33 27 30 32 -3 5 -13 1 -22 -7 -22 -20 -37 -21
-21 -1 15 18 5 35 -23 35 -22 0 -22 1 3 21 23 18 23 20 4 14 -16 -4 -23 0 -27
14 -2 11 0 24 6 30 18 18 -6 12 -41 -10z m19 -32 c-13 -13 -26 -3 -16 12 3 6
11 8 17 5 6 -4 6 -10 -1 -17z m49 -55 c0 -13 -12 -22 -22 -16 -10 6 -1 24 13
24 5 0 9 -4 9 -8z"/>
<path d="M996 1373 c-3 -4 0 -13 7 -21 10 -13 9 -14 -1 -8 -20 12 -45 -13 -31
-30 9 -11 7 -14 -10 -14 -32 0 -37 -27 -10 -50 27 -22 55 -27 43 -8 -15 24
-10 58 8 58 9 0 20 5 24 11 4 7 0 9 -14 5 -12 -4 -23 -2 -28 5 -4 7 -3 9 4 5
6 -3 14 -1 17 5 4 5 13 8 21 5 19 -7 18 0 -5 23 -11 11 -22 17 -25 14z m-25
-96 c-1 -12 -15 -9 -19 4 -3 6 1 10 8 8 6 -3 11 -8 11 -12z"/>
<path d="M891 1226 c-8 -13 -10 -29 -7 -35 4 -6 1 -11 -8 -11 -23 0 -30 -20
-13 -37 16 -17 47 -11 47 8 0 8 -4 8 -12 1 -9 -7 -17 -5 -28 6 -13 14 -12 15
3 9 9 -3 17 -2 17 4 0 6 10 8 23 4 20 -6 21 -5 5 8 -10 8 -18 20 -18 28 0 10
3 10 12 1 20 -20 32 -13 13 8 -20 22 -14 26 16 10 11 -6 19 -7 19 -1 0 10 -24
21 -44 21 -7 0 -18 -11 -25 -24z"/>
<path d="M2065 1234 c-12 -12 -13 -19 -4 -30 6 -8 17 -14 23 -14 6 0 12 -9 12
-20 0 -22 -12 -27 -19 -7 -3 7 -6 5 -6 -5 -1 -16 8 -22 29 -20 3 0 13 4 23 7
10 4 17 3 17 -4 0 -7 -10 -15 -22 -20 -34 -12 -5 -21 35 -10 21 5 37 13 37 16
0 3 -9 3 -20 0 -23 -6 -26 3 -7 22 10 11 9 13 -5 8 -12 -4 -15 -2 -12 7 3 8
-5 21 -17 30 -13 8 -20 19 -16 22 8 8 -11 34 -24 34 -4 0 -15 -7 -24 -16z m33
-15 c-2 -6 -8 -10 -13 -10 -5 0 -11 4 -13 10 -2 6 4 11 13 11 9 0 15 -5 13
-11z m32 -44 c0 -8 -7 -15 -15 -15 -26 0 -18 20 13 29 1 1 2 -6 2 -14z"/>
<path d="M825 1140 c-4 -6 -5 -12 -4 -13 2 -1 15 -8 28 -15 17 -10 26 -11 34
-3 8 8 7 11 -3 11 -7 0 -21 7 -31 16 -12 11 -19 12 -24 4z"/>
<path d="M2089 1018 c-15 -10 -13 -14 11 -35 37 -31 44 -29 26 6 -9 16 -12 31
-9 35 10 10 -11 6 -28 -6z"/>
<path d="M1463 672 c-250 -1 -383 -6 -383 -12 0 -7 129 -10 380 -8 209 2 380
0 380 -5 0 -9 51 2 65 14 5 5 0 9 -12 9 -12 0 -27 1 -35 3 -7 1 -185 1 -395
-1z"/>
<path d="M580 640 c-27 -27 -28 -100 -2 -123 16 -15 46 -17 205 -17 215 0 217
1 217 80 0 76 -10 79 -223 79 -164 1 -179 -1 -197 -19z m398 -53 c2 -27 -1
-54 -7 -60 -7 -9 -60 -11 -198 -7 l-188 5 -3 43 c-5 72 -4 73 207 70 l186 -3
3 -48z"/>
<path d="M773 595 c4 -25 4 -25 -15 -9 -14 13 -21 15 -30 6 -8 -8 -15 -8 -24
-1 -17 14 -34 3 -34 -21 0 -24 17 -35 34 -21 9 7 16 7 24 -1 8 -8 15 -8 24 -1
13 10 29 10 77 -2 21 -5 23 -4 11 10 -20 24 -5 29 17 5 26 -27 53 -17 53 20 0
16 -4 32 -10 35 -5 3 -10 -1 -10 -10 0 -9 -4 -14 -9 -10 -5 3 -13 1 -16 -5 -5
-8 -11 -8 -20 0 -10 8 -17 5 -30 -12 -12 -15 -15 -17 -12 -5 4 9 2 17 -3 17
-6 0 -10 7 -10 15 0 8 -5 15 -11 15 -7 0 -9 -10 -6 -25z m-73 -25 c0 -5 -4
-10 -10 -10 -5 0 -10 5 -10 10 0 6 5 10 10 10 6 0 10 -4 10 -10z m50 0 c0 -5
-4 -10 -10 -10 -5 0 -10 5 -10 10 0 6 5 10 10 10 6 0 10 -4 10 -10z m140 0 c0
-5 -4 -10 -10 -10 -5 0 -10 5 -10 10 0 6 5 10 10 10 6 0 10 -4 10 -10z"/>
<path d="M630 584 c-11 -12 -10 -18 3 -31 9 -9 20 -13 24 -9 4 4 1 12 -7 17
-11 8 -12 12 -2 16 14 5 17 23 3 23 -5 0 -14 -7 -21 -16z"/>
<path d="M1990 647 c-21 -10 -25 -21 -28 -64 -5 -84 -8 -83 262 -83 167 0 235
3 244 12 7 7 12 36 12 64 0 83 -4 84 -255 84 -149 0 -217 -4 -235 -13z m468
-19 c13 -13 16 -76 4 -95 -6 -9 -68 -13 -235 -13 -125 -1 -231 1 -237 5 -15 9
-13 102 3 108 6 3 111 6 233 6 159 1 223 -2 232 -11z"/>
<path d="M2026 604 c-9 -24 -7 -54 4 -54 6 0 10 9 10 19 0 11 3 26 6 35 3 9 2
16 -4 16 -5 0 -13 -7 -16 -16z"/>
<path d="M2396 599 c-13 -12 -23 -15 -30 -9 -7 5 -18 5 -25 1 -19 -12 -9 -45
14 -48 11 -2 14 0 8 3 -7 3 -13 13 -13 22 0 13 4 12 23 -6 26 -25 42 -18 49
21 7 35 -2 40 -26 16z m14 -29 c0 -5 -4 -10 -10 -10 -5 0 -10 5 -10 10 0 6 5
10 10 10 6 0 10 -4 10 -10z"/>
<path d="M2058 589 c-14 -9 -6 -41 10 -47 11 -3 12 0 3 17 -8 14 -8 21 -1 21
6 0 13 -7 16 -15 4 -8 10 -15 15 -15 5 0 9 7 9 15 0 21 20 19 21 -2 0 -15 2
-15 9 2 7 17 9 17 9 3 1 -10 6 -18 11 -18 6 0 10 8 11 18 0 14 2 14 9 -3 8
-18 9 -18 9 5 1 25 -1 26 -60 25 -33 0 -65 -3 -71 -6z"/>
<path d="M2212 588 c-17 -17 -15 -35 4 -42 24 -9 29 -7 16 6 -15 15 -16 32 -2
23 6 -3 10 -2 10 4 0 16 -16 21 -28 9z"/>
<path d="M2263 593 c-15 -5 -18 -43 -3 -43 5 0 7 7 4 15 -4 8 -1 15 4 15 6 0
13 -10 15 -22 4 -20 4 -20 6 4 1 29 -7 38 -26 31z"/>
<path d="M2300 576 c0 -14 4 -27 9 -31 5 -3 9 8 9 25 -1 36 -18 41 -18 6z"/>
<path d="M1420 610 c0 -5 5 -10 11 -10 5 0 7 5 4 10 -3 6 -8 10 -11 10 -2 0
-4 -4 -4 -10z"/>
<path d="M1387 593 c-5 -8 9 -53 16 -53 2 0 4 14 4 30 0 28 -10 39 -20 23z"/>
<path d="M1452 592 c-15 -5 -16 -42 -1 -42 6 0 9 7 5 15 -3 8 -1 15 4 15 5 0
11 -8 13 -17 4 -17 5 -17 6 0 0 9 6 17 12 17 6 0 8 -7 5 -16 -4 -11 -2 -15 8
-11 7 3 19 0 25 -6 6 -6 14 -7 18 -2 5 4 2 10 -4 12 -7 3 -13 9 -13 14 0 4 7
6 15 3 8 -4 15 -1 15 4 0 17 -20 25 -34 13 -7 -6 -16 -8 -20 -4 -8 8 -37 11
-54 5z"/>
<path d="M1422 570 c0 -14 2 -19 5 -12 2 6 2 18 0 25 -3 6 -5 1 -5 -13z"/>
<path d="M414 479 c-17 -5 -42 -20 -55 -33 -37 -37 -70 -41 -124 -17 -47 21
-139 28 -160 13 -39 -28 -34 -188 9 -272 33 -65 109 -96 212 -86 212 20 208
20 219 -5 6 -13 22 -28 36 -33 32 -11 99 1 99 17 0 7 12 37 26 65 23 47 25 56
14 83 -9 20 -11 54 -7 104 9 99 1 135 -28 135 -12 0 -41 7 -65 15 -23 8 -51
14 -63 13 -12 -1 -35 1 -52 5 -16 3 -44 1 -61 -4z m174 -30 c13 -5 34 -9 46
-9 25 0 36 -22 36 -73 0 -33 -28 -47 -95 -47 l-44 0 -7 45 c-3 25 -4 54 -1 66
3 13 1 19 -6 16 -7 -2 -12 -25 -11 -58 l1 -54 -56 -3 c-72 -3 -84 6 -85 60 -1
40 2 44 34 60 28 14 49 17 100 12 36 -4 75 -11 88 -15z m-398 -33 c0 -7 9 -25
20 -39 28 -36 25 -47 -12 -41 -21 3 -46 -2 -70 -14 -30 -16 -41 -17 -54 -7
-15 10 -15 17 -3 63 l13 52 53 0 c38 0 53 -4 53 -14z m86 -17 c16 -2 38 1 49
4 17 6 20 2 22 -26 l1 -32 -49 3 c-38 3 -53 10 -69 29 -25 32 -26 47 -1 34 10
-6 32 -11 47 -12z m81 -92 c6 -12 7 -31 3 -42 -4 -11 -5 -25 -3 -30 2 -7 -22
-11 -65 -11 l-69 -1 9 36 c5 20 12 45 14 56 5 17 12 20 53 17 38 -3 51 -8 58
-25z m-132 -4 c-4 -10 -10 -30 -12 -45 -5 -25 -9 -27 -69 -30 -60 -3 -64 -2
-64 19 0 12 -3 29 -6 37 -4 12 -2 15 9 10 8 -3 28 1 44 10 15 8 45 15 67 16
33 0 37 -3 31 -17z m295 8 c13 -1 13 -78 -1 -86 -10 -7 -74 -8 -119 -2 -22 3
-24 9 -25 48 l0 44 68 -1 c37 -1 72 -2 77 -3z m142 -33 l-4 -43 -41 0 c-23 -1
-48 -3 -56 -5 -10 -4 -14 6 -14 35 0 38 1 40 29 37 16 -2 41 1 54 7 14 5 27
10 30 10 3 1 4 -18 2 -41z m11 -80 c8 -12 5 -27 -11 -60 -11 -23 -23 -51 -26
-60 -5 -18 -56 -25 -90 -12 -19 7 -30 63 -22 108 5 28 12 36 34 39 54 9 105 2
115 -15z m-473 -14 c-6 -14 -10 -36 -10 -48 0 -48 -64 -10 -104 62 -5 9 9 12
58 12 l66 0 -10 -26z m136 18 c14 -1 24 -13 32 -39 16 -51 -1 -63 -89 -63 -68
0 -85 10 -74 43 22 63 21 62 66 61 24 0 53 -1 65 -2z m143 -4 c27 2 32 -1 27
-14 -3 -8 -6 -28 -6 -42 0 -26 -1 -27 -56 -24 -30 2 -53 6 -50 9 2 3 -2 23
-10 45 l-14 40 38 -8 c20 -4 52 -7 71 -6z"/>
<path d="M2265 455 c-49 -18 -65 -38 -65 -84 0 -56 12 -111 21 -105 5 3 7 9 4
14 -3 4 16 11 42 15 31 4 49 3 51 -4 2 -6 14 -11 28 -11 21 0 23 -4 19 -32
l-5 -33 12 28 c11 25 16 28 45 22 20 -4 33 -2 33 5 0 5 -11 10 -24 10 -27 0
-42 15 -26 25 5 3 10 16 10 28 0 25 -16 12 -22 -18 -3 -14 -11 -19 -28 -17
-13 1 -27 7 -30 13 -4 6 -26 8 -58 3 l-52 -7 0 49 c0 27 4 55 8 62 11 17 67
32 119 32 41 0 43 -1 43 -30 0 -16 5 -30 10 -30 6 0 10 14 10 30 0 30 1 30 55
30 69 0 105 -16 105 -47 0 -12 5 -23 10 -23 6 0 10 9 10 21 0 15 4 19 16 15 9
-3 46 -6 84 -6 63 0 69 -2 73 -22 4 -21 4 -21 6 2 1 23 7 27 59 38 82 17 80
18 71 -35 -4 -27 -8 -53 -8 -59 -1 -10 -277 -17 -294 -7 -13 8 -128 10 -132 2
-3 -4 22 -10 55 -14 l60 -7 0 -34 c0 -19 4 -34 9 -34 6 0 7 16 4 35 l-6 35 82
0 81 0 0 -35 c0 -19 5 -35 11 -35 6 0 9 14 7 32 l-3 32 61 4 62 3 7 -106 c4
-59 5 -109 2 -111 -3 -3 -33 -7 -66 -9 -59 -4 -61 -3 -61 20 0 13 -5 27 -11
31 -7 4 -10 -5 -7 -27 l3 -34 -75 -7 c-41 -4 -80 -6 -86 -4 -6 2 -9 18 -6 34
2 16 -1 33 -7 36 -7 5 -11 -6 -11 -32 l0 -39 -42 8 c-24 4 -46 8 -50 9 -5 0
-8 14 -8 30 0 17 -4 30 -9 30 -13 0 -19 -71 -7 -76 46 -18 165 -20 301 -6 83
8 152 17 154 18 1 2 3 87 4 190 0 126 -3 189 -11 192 -5 1 -35 -3 -64 -11 -88
-23 -215 -22 -277 3 -63 25 -232 28 -296 5z"/>
<path d="M2480 405 c0 -8 5 -15 10 -15 6 0 10 7 10 15 0 8 -4 15 -10 15 -5 0
-10 -7 -10 -15z"/>
<path d="M2820 371 c0 -17 2 -31 4 -31 8 0 13 51 5 56 -5 3 -9 -9 -9 -25z"/>
<path d="M2620 360 c0 -5 9 -14 20 -20 22 -12 27 -1 8 18 -14 14 -28 16 -28 2z"/>
<path d="M2250 258 c0 -18 18 -34 28 -24 3 4 -2 14 -11 23 -16 16 -17 16 -17
1z"/>
<path d="M2490 260 c0 -5 7 -10 16 -10 8 0 12 5 9 10 -3 6 -10 10 -16 10 -5 0
-9 -4 -9 -10z"/>
<path d="M2390 230 l0 -30 -85 0 c-71 0 -83 2 -79 15 4 8 1 15 -5 15 -8 0 -11
-24 -9 -77 l3 -78 73 -3 c43 -2 72 1 72 7 0 6 -30 11 -66 13 l-67 3 -2 43 -3
42 84 0 84 0 0 -30 c0 -16 5 -30 10 -30 6 0 10 14 10 31 l0 30 83 -6 c79 -7
98 -15 110 -49 2 -6 8 -8 12 -3 5 4 3 13 -3 19 -18 18 -14 27 11 26 45 -3 77
2 77 12 0 6 -20 8 -54 4 -53 -6 -54 -6 -71 26 -9 17 -19 30 -22 27 -2 -3 1
-15 7 -27 6 -12 10 -23 8 -24 -2 -2 -38 1 -80 7 -77 9 -78 10 -78 38 0 16 -4
29 -10 29 -5 0 -10 -13 -10 -30z"/>
<path d="M2710 257 c0 -4 8 -23 18 -43 10 -22 13 -39 7 -41 -23 -8 -39 -22
-32 -29 4 -4 16 1 27 11 11 10 20 15 20 11 0 -4 7 -1 15 8 12 12 22 13 41 6
33 -13 84 -13 84 0 0 6 -20 10 -45 10 -35 0 -43 3 -39 15 4 8 2 15 -4 15 -5 0
-15 -7 -22 -15 -18 -21 -29 -19 -36 10 -5 21 -34 57 -34 42z"/>
<path d="M2350 40 c0 -5 18 -10 39 -10 22 0 43 5 46 10 4 6 -12 10 -39 10 -25
0 -46 -4 -46 -10z"/>
</g>
</svg>
