<?xml version="1.0" encoding="UTF-8" standalone="no"?>
<svg
   xmlns:dc="http://purl.org/dc/elements/1.1/"
   xmlns:cc="http://creativecommons.org/ns#"
   xmlns:rdf="http://www.w3.org/1999/02/22-rdf-syntax-ns#"
   xmlns:svg="http://www.w3.org/2000/svg"
   xmlns="http://www.w3.org/2000/svg"
   xmlns:xlink="http://www.w3.org/1999/xlink"
   xmlns:sodipodi="http://sodipodi.sourceforge.net/DTD/sodipodi-0.dtd"
   xmlns:inkscape="http://www.inkscape.org/namespaces/inkscape"
   width="512"
   height="512"
   viewBox="0 0 135.46666 135.46666"
   version="1.1"
   id="svg8"
   inkscape:version="1.0 (4035a4fb49, 2020-05-01)"
   sodipodi:docname="edibo_icon_vwave3_no_text.svg">
  <title
     id="title976">edibo_icon_vwave3_no_text</title>
  <defs
     id="defs2">
    <linearGradient
       id="linearGradient1112"
       inkscape:collect="always">
      <stop
         id="stop1108"
         offset="0"
         style="stop-color:#ff9955;stop-opacity:1" />
      <stop
         style="stop-color:#ffff00;stop-opacity:1"
         offset="0.22020774"
         id="stop1118" />
      <stop
         style="stop-color:#ff7f2a;stop-opacity:1"
         offset="0.50297529"
         id="stop1116" />
      <stop
         id="stop1110"
         offset="1"
         style="stop-color:#ff2a7f;stop-opacity:1" />
    </linearGradient>
    <rect
       id="rect70"
       height="26.56659"
       width="81.570658"
       y="15.506363"
       x="-128.75408" />
    <rect
       id="rect894"
       height="74.612503"
       width="92.604164"
       y="12.7"
       x="-127" />
    <marker
       inkscape:stockid="Arrow1Lstart"
       orient="auto"
       refY="0"
       refX="0"
       id="marker1207"
       style="overflow:visible"
       inkscape:isstock="true">
      <path
         id="path1205"
         d="M 0,0 5,-5 -12.5,0 5,5 Z"
         style="fill:#00ff00;fill-opacity:1;fill-rule:evenodd;stroke:#ffffff;stroke-width:1pt;stroke-opacity:1"
         transform="matrix(0.8,0,0,0.8,10,0)" />
    </marker>
    <marker
       inkscape:stockid="Arrow1Lstart"
       orient="auto"
       refY="0"
       refX="0"
       id="marker1185"
       style="overflow:visible"
       inkscape:isstock="true">
      <path
         id="path1183"
         d="M 0,0 5,-5 -12.5,0 5,5 Z"
         style="fill-rule:evenodd;stroke:#000000;stroke-width:1pt"
         transform="matrix(0.8,0,0,0.8,10,0)" />
    </marker>
    <marker
       inkscape:stockid="Arrow1Lstart"
       orient="auto"
       refY="0"
       refX="0"
       id="marker1157"
       style="overflow:visible"
       inkscape:isstock="true">
      <path
         id="path1155"
         d="M 0,0 5,-5 -12.5,0 5,5 Z"
         style="fill:#808000;fill-opacity:1;fill-rule:evenodd;stroke:none;stroke-width:1pt;stroke-opacity:1"
         transform="matrix(0.8,0,0,0.8,10,0)" />
    </marker>
    <marker
       inkscape:stockid="Arrow1Lstart"
       orient="auto"
       refY="0"
       refX="0"
       id="Arrow1Lstart"
       style="overflow:visible"
       inkscape:isstock="true">
      <path
         id="path885"
         d="M 0,0 5,-5 -12.5,0 5,5 Z"
         style="fill:#808000;fill-opacity:1;fill-rule:evenodd;stroke:none;stroke-width:1pt;stroke-opacity:1"
         transform="matrix(0.8,0,0,0.8,10,0)" />
    </marker>
    <rect
       x="-127"
       y="12.7"
       width="92.604164"
       height="74.612503"
       id="rect902" />
    <rect
       x="-128.75408"
       y="15.506363"
       width="81.570658"
       height="26.56659"
       id="rect78" />
    <linearGradient
       gradientTransform="matrix(3.7795276,0,0,3.7795276,56.708685,65.844064)"
       gradientUnits="userSpaceOnUse"
       y2="116.40706"
       x2="52.06675"
       y1="-14.590359"
       x1="51.937283"
       id="linearGradient1114"
       xlink:href="#linearGradient1112"
       inkscape:collect="always" />
    <filter
       height="1.0227386"
       y="-0.011369306"
       width="1.0171913"
       x="-0.0085956362"
       id="filter4773"
       style="color-interpolation-filters:sRGB"
       inkscape:collect="always">
      <feGaussianBlur
         id="feGaussianBlur4775"
         stdDeviation="0.11805032"
         inkscape:collect="always" />
    </filter>
    <filter
       inkscape:label="Solarize"
       height="1.0066435"
       y="-0.0033217408"
       width="1.0066435"
       x="-0.003321741"
       id="filter6001"
       style="color-interpolation-filters:sRGB;"
       inkscape:collect="always">
      <feGaussianBlur
         result="fbSourceGraphic"
         id="feGaussianBlur6003"
         stdDeviation="0.70524822"
         inkscape:collect="always" />
      <feColorMatrix
         id="feColorMatrix1864"
         values="0 0 0 -1 0 0 0 0 -1 0 0 0 0 -1 0 0 0 0 1 0"
         in="fbSourceGraphic"
         result="fbSourceGraphicAlpha" />
      <feColorMatrix
         in="fbSourceGraphic"
         values="1 0 0 0 0 0 1 0 0 0 0 0 1 0 0 0 0 0 1 1 "
         id="feColorMatrix1866" />
      <feColorMatrix
         result="colormatrix2"
         values="0"
         type="hueRotate"
         id="feColorMatrix1868" />
      <feColorMatrix
         result="colormatrix3"
         values="-1 0 0 0 1 0 -1 0 0 1 0 0 -1 0 1 0 0 0 1 0 "
         in="colormatrix2"
         id="feColorMatrix1870" />
      <feBlend
         result="blend1"
         mode="darken"
         in="colormatrix3"
         id="feBlend1872"
         in2="colormatrix2" />
      <feBlend
         result="blend2"
         mode="screen"
         id="feBlend1874"
         in2="blend1" />
      <feComposite
         operator="in"
         id="feComposite1876"
         in2="fbSourceGraphic" />
    </filter>
  </defs>
  <sodipodi:namedview
     fit-margin-bottom="0"
     fit-margin-right="0"
     fit-margin-left="0"
     fit-margin-top="0"
     inkscape:window-maximized="1"
     inkscape:window-y="-8"
     inkscape:window-x="-8"
     inkscape:window-height="705"
     inkscape:window-width="1366"
     units="px"
     showgrid="false"
     inkscape:document-rotation="0"
     inkscape:current-layer="layer1"
     inkscape:document-units="mm"
     inkscape:cy="252.27077"
     inkscape:cx="158.01422"
     inkscape:zoom="0.70710678"
     inkscape:pageshadow="2"
     inkscape:pageopacity="0.0"
     borderopacity="1.0"
     bordercolor="#666666"
     pagecolor="#ffffff"
     id="base"
     showguides="true"
     inkscape:guide-bbox="true" />
  <metadata
     id="metadata5">
    <rdf:RDF>
      <cc:Work
         rdf:about="">
        <dc:format>image/svg+xml</dc:format>
        <dc:type
           rdf:resource="http://purl.org/dc/dcmitype/StillImage" />
        <dc:title>edibo_icon_vwave3_no_text</dc:title>
      </cc:Work>
    </rdf:RDF>
  </metadata>
  <g
     transform="translate(15.004173,17.421242)"
     id="layer1"
     inkscape:groupmode="layer"
     inkscape:label="Pink_ring">
    <circle
       style="fill:#000000;stroke:#800080;stroke-width:0.361269;stroke-linecap:round;stroke-linejoin:round"
       id="path63"
       cx="53.096066"
       cy="50.679031"
       r="66.929398" />
    <path
       transform="matrix(0.23540407,0,0,0.23540407,-7.4938186,-9.910888)"
       d="M 257.16602,2.6113281 A 254.77479,254.77479 0 0 0 2.6113281,257.38672 254.77479,254.77479 0 0 0 4.71875,290.07227 h 505.33594 a 254.77479,254.77479 0 0 0 2.10742,-32.68555 254.77479,254.77479 0 0 0 -254.77539,-254.7753919 254.77479,254.77479 0 0 0 -0.2207,0 z M 10.269531,319.37695 a 254.77479,254.77479 0 0 0 2.453125,9.06836 H 502.05078 a 254.77479,254.77479 0 0 0 2.45313,-9.06836 z m 11.179688,34.15039 a 254.77479,254.77479 0 0 0 6.289062,14.18164 H 487.03711 a 254.77479,254.77479 0 0 0 6.28711,-14.18164 z m 17.472656,34.94336 a 254.77479,254.77479 0 0 0 13.126953,19.73633 H 462.72461 a 254.77479,254.77479 0 0 0 13.12695,-19.73633 z m 26.164063,36.03907 a 254.77479,254.77479 0 0 0 26.330078,26.17382 H 423.35742 a 254.77479,254.77479 0 0 0 26.33008,-26.17382 z m 40.923832,37.80273 a 254.77479,254.77479 0 0 0 70.74218,36.75195 h 161.26953 a 254.77479,254.77479 0 0 0 70.74219,-36.75195 z m 92.93945,43.05664 a 254.77479,254.77479 0 0 0 58.4375,6.79297 254.77479,254.77479 0 0 0 58.43555,-6.79297 z"
       style="opacity:0.997;fill:url(#linearGradient1114);fill-opacity:1;stroke-width:7.50138;stroke-linecap:round;stroke-linejoin:round;filter:url(#filter6001)"
       id="circle1084" />
  </g>
  <g
     transform="translate(15.004173,17.421242)"
     inkscape:label="Boyle_flask"
     id="layer3"
     inkscape:groupmode="layer">
    <path
       id="path854"
       style="fill:#e6e6e6;stroke:#e6e6e6;stroke-width:2.55878;stroke-linejoin:round;stroke-miterlimit:4;stroke-dasharray:none;stroke-opacity:1"
       d="m 53.53825,3.9116161 c -8.890079,0.023684 -17.785505,2.4593599 -25.309593,7.1742509 -2.378097,1.375771 -3.88061,3.540804 -4.113092,6.157534 h 0.569429 c 0.424081,-3.198925 3.45239,-5.122098 6.257665,-6.516245 6.71839,-4.0447321 14.490105,-5.960935 22.279242,-5.9358135 6.058222,0.01956 12.126884,1.2134934 17.718314,3.4930461 C 82.401683,13.294236 91.306962,23.79946 94.714277,35.805678 97.458803,44.696747 97.533004,54.480409 93.926432,63.150362 89.545357,75.76826 79.415871,86.429963 66.62466,90.592978 52.472778,95.367427 35.571306,92.159552 24.92487,81.46286 h 0.03961 a 7.9229987,37.017523 0 0 1 1.141058,-18.607942 16.910109,27.718958 0 0 0 14.146589,-27.345782 16.910109,27.718958 0 0 0 -1.019468,-9.478377 15.896412,3.1562064 0 0 0 0,-5.63e-4 15.896414,3.1562064 0 0 0 0.0056,-0.08308 15.896414,3.1562064 0 0 0 -15.896689,-3.155793 15.896414,3.1562064 0 0 0 -0.201362,0 h -5.65e-4 a 15.896414,3.1562064 0 0 0 -15.6942247,3.155793 15.896414,3.1562064 0 0 0 0.00597,0.08364 16.910109,27.718958 0 0 0 -1.0194693,9.478379 16.910109,27.718958 0 0 0 14.017853,27.31002 7.9229987,37.017523 0 0 1 1.144908,18.594737 v 0.04897 h 0.09518 C 28.816249,91.24234 41.499962,94.79598 53.075521,95.197917 74.332022,95.141488 93.860418,78.220965 97.627978,57.405994 100.57099,44.341288 96.182172,30.457331 88.157869,20.032776 82.643526,13.582585 75.652852,8.0322908 67.305772,5.8784852 62.850016,4.5483777 58.194965,3.8992046 53.53825,3.9116161 Z" />
    <path
       id="path905"
       d="m 15.873811,39.800062 c -2.936832,-4.64e-4 -5.9656786,0.6287 -9.0421478,2.323515 A 16.910109,27.718958 0 0 0 23.34179,63.853657 16.910109,27.718958 0 0 0 39.389949,44.870871 C 38.101653,45.123293 36.701762,45.030012 35.211718,44.727194 32.499572,44.175996 29.475715,42.942359 26.221857,41.848949 22.968,40.755535 19.490845,39.800508 15.873811,39.800071 Z"
       style="fill:#220b28;fill-opacity:1;stroke:none;stroke-width:0.853292;stroke-linejoin:round" />
    <path
       id="path900"
       d="m 31.077706,38.308195 c -3.629033,4.66e-4 -7.117722,0.955009 -10.382372,2.04842 -3.264649,1.093411 -6.298538,2.327505 -9.019683,2.878701 -1.639159,0.33203 -3.1693661,0.411302 -4.5625296,0.05956 A 16.966202,27.718958 0 0 0 23.395626,63.227986 16.966202,27.718958 0 0 0 40.074122,40.592148 c -3.060636,-1.663662 -6.073961,-2.284307 -8.996416,-2.283956 z"
       style="fill:#800080;stroke:none;stroke-width:0.854707;stroke-linejoin:round;filter:url(#filter4773)" />
    <path
       d="M 8.020244,29.415643 A 16.910109,27.718958 0 0 0 7.6064681,35.509066 16.910109,27.718958 0 0 0 23.480476,63.175699 18.279841,29.964214 0 0 1 11.252702,34.901588 18.279841,29.964214 0 0 1 11.460045,30.400066 C 10.985311,30.300326 10.511666,30.193627 10.040476,30.073135 9.3828141,29.896114 8.6824268,29.692953 8.020244,29.415643 Z"
       style="opacity:0.5;fill:#ffffff;stroke:none;stroke-width:0.853292;stroke-linejoin:round"
       id="path874" />
    <path
       id="path930"
       d="M 39.238403,25.086341 A 15.896414,3.1562066 0 0 1 23.341989,28.242547 15.896414,3.1562066 0 0 1 7.445574,25.086341 15.896414,3.1562066 0 0 1 23.341989,21.930135 15.896414,3.1562066 0 0 1 39.238403,25.086341"
       style="fill:#cfc6d1;fill-opacity:1;stroke:none;stroke-width:0.279171;stroke-linejoin:round" />
    <path
       d="M 13.656246,22.583614 A 15.896414,3.1562064 0 0 0 7.4455035,25.086278 15.896414,3.1562064 0 0 0 23.34179,28.242347 15.896414,3.1562064 0 0 0 39.238534,25.086278 15.896414,3.1562064 0 0 0 33.027342,22.583614 14.00893,2.9455005 0 0 1 37.351077,24.711607 14.00893,2.9455005 0 0 1 23.34179,27.657149 14.00893,2.9455005 0 0 1 9.3329645,24.711607 14.00893,2.9455005 0 0 1 13.656246,22.583614 Z"
       style="fill:#ffffff;fill-opacity:1;stroke:none;stroke-width:0.27917;stroke-linejoin:round"
       id="path941" />
  </g>
  <g
     transform="translate(15.004173,17.421242)"
     inkscape:label="Lemon"
     id="layer4"
     inkscape:groupmode="layer">
    <path
       transform="rotate(-3.4511087)"
       style="opacity:1;fill:#00ff00;stroke:#000000;stroke-width:0.319394;stroke-linecap:round;stroke-linejoin:round;stroke-miterlimit:4;stroke-dasharray:0.319394, 0.319394;stroke-dashoffset:0"
       id="path1027"
       sodipodi:type="arc"
       sodipodi:cx="6.1555099"
       sodipodi:cy="24.782467"
       sodipodi:rx="10.183784"
       sodipodi:ry="10.183784"
       sodipodi:start="0.98141471"
       sodipodi:end="0.4276795"
       sodipodi:arc-type="slice"
       d="M 11.816136,33.248089 A 10.183784,10.183784 0 0 1 -1.4480028,31.557129 10.183784,10.183784 0 0 1 -1.6035653,18.186544 10.183784,10.183784 0 0 1 11.617641,16.187435 10.183784,10.183784 0 0 1 15.422047,29.006297 l -9.2665371,-4.22383 z" />
    <path
       d="M 11.271658,32.589323 A 9.3339148,9.3339148 0 0 1 -0.838771,30.963243 9.3339148,9.3339148 0 0 1 -0.96264237,18.744763 9.3339148,9.3339148 0 0 1 11.11233,16.873491 9.3339148,9.3339148 0 0 1 14.692475,28.556349 L 6.1555099,24.782467 Z"
       sodipodi:arc-type="slice"
       sodipodi:end="0.41623452"
       sodipodi:start="0.99067605"
       sodipodi:ry="9.3339148"
       sodipodi:rx="9.3339148"
       sodipodi:cy="24.782467"
       sodipodi:cx="6.1555099"
       sodipodi:type="arc"
       id="path1063"
       style="opacity:1;fill:#ffffff;stroke:none;stroke-width:0.292741;stroke-linecap:round;stroke-linejoin:round;stroke-miterlimit:4;stroke-dasharray:0.292741, 0.292741;stroke-dashoffset:0"
       transform="rotate(-3.4511087)" />
    <path
       id="path1067"
       d="M 8.2520574,25.173155 A 1.0145182,1.0145182 0 0 1 6.9242559,25.08976 1.0145182,1.0145182 0 0 1 6.8207587,23.763376 1.0145182,1.0145182 0 0 1 8.1195471,23.475001 1.0145182,1.0145182 0 0 1 8.58709,24.72056 L 7.6361839,24.36697 Z"
       style="opacity:1;fill:#ffffff;stroke:none;stroke-width:0.0318184;stroke-linecap:round;stroke-linejoin:round;stroke-miterlimit:4;stroke-dasharray:0.0318184, 0.0318184;stroke-dashoffset:0" />
    <path
       style="opacity:1;fill:#99ff55;stroke:none;stroke-width:0.239868;stroke-linecap:round;stroke-linejoin:round;stroke-miterlimit:4;stroke-dasharray:0.239868, 0.239868;stroke-dashoffset:0"
       d="M 7.7402209,22.987052 C 7.6934641,23.5303 8.2636063,23.653839 8.8551627,23.245444 10.284158,22.258904 12.229121,20.818688 13.841169,19.786572 13.425066,17.24431 10.941013,16.046178 8.126602,16.46119 7.7169958,18.524869 7.6842131,20.738315 7.7402209,22.987052 Z"
       id="path1094"
       sodipodi:nodetypes="csccc" />
    <path
       sodipodi:nodetypes="cccc"
       id="path1100"
       d="m 9.1650576,23.824944 c -0.9523183,0.785091 4.9236454,2.01039 6.4614754,2.934061 1.65125,-2.232689 0.999411,-4.404183 -0.748787,-6.106518 -1.972352,0.720726 -3.829898,2.008995 -5.7126884,3.172457 z"
       style="opacity:1;fill:#99ff55;stroke:none;stroke-width:0.239868;stroke-linecap:round;stroke-linejoin:round;stroke-miterlimit:4;stroke-dasharray:0.239868, 0.239868;stroke-dashoffset:0" />
    <path
       style="opacity:1;fill:#99ff55;stroke:none;stroke-width:0.239868;stroke-linecap:round;stroke-linejoin:round;stroke-miterlimit:4;stroke-dasharray:0.239868, 0.239868;stroke-dashoffset:0"
       d="M 6.4625416,23.390806 C 6.8939596,23.724253 7.242067,23.307371 7.0882671,22.605185 6.7305058,20.971769 6.6221783,18.618037 6.6272623,16.703898 4.2645808,15.677262 1.7446079,17.009522 0.56970419,19.600422 2.4314849,21.173653 4.4146138,22.380149 6.4625416,23.390806 Z"
       id="path1102"
       sodipodi:nodetypes="csccc" />
    <path
       sodipodi:nodetypes="csccc"
       id="path1104"
       d="m 6.2851314,24.920874 c 0.5104882,-0.191589 0.351782,-0.681814 -0.3263513,-0.920272 -1.5774523,-0.554691 -4.25852,-1.54959 -5.88393099,-2.560524 -2.11570971,1.4697 -0.76222787,5.15682 0.82361136,7.518658 C 3.1484209,28.049945 4.4065402,26.291787 6.2851314,24.920874 Z"
       style="opacity:1;fill:#99ff55;stroke:none;stroke-width:0.239868;stroke-linecap:round;stroke-linejoin:round;stroke-miterlimit:4;stroke-dasharray:0.239868, 0.239868;stroke-dashoffset:0" />
    <path
       style="opacity:1;fill:#99ff55;stroke:none;stroke-width:0.239868;stroke-linecap:round;stroke-linejoin:round;stroke-miterlimit:4;stroke-dasharray:0.239868, 0.239868;stroke-dashoffset:0"
       d="M 7.9793321,25.696615 C 7.9014447,25.156948 7.4924896,25.017122 7.1144127,25.628507 6.2349386,27.050678 3.9559393,28.440113 2.6205335,29.811478 3.5937709,32.7312 8.4465861,33.924676 11.109986,31.930761 Z"
       id="path1106"
       sodipodi:nodetypes="csccc" />
    <path
       transform="rotate(-3.4511087)"
       style="opacity:1;fill:#ffffff;stroke:none;stroke-width:0.0329877;stroke-linecap:round;stroke-linejoin:round;stroke-miterlimit:4;stroke-dasharray:0.0329877, 0.0329877;stroke-dashoffset:0"
       id="path1108"
       sodipodi:type="arc"
       sodipodi:cx="6.1555099"
       sodipodi:cy="24.782467"
       sodipodi:rx="1.0518005"
       sodipodi:ry="1.0518005"
       sodipodi:start="0.99067605"
       sodipodi:end="0.41623452"
       sodipodi:arc-type="slice"
       d="m 6.7320276,25.662189 a 1.0518005,1.0518005 0 0 1 -1.3646744,-0.183236 1.0518005,1.0518005 0 0 1 -0.013959,-1.37685 1.0518005,1.0518005 0 0 1 1.360679,-0.210866 1.0518005,1.0518005 0 0 1 0.4034319,1.316493 L 6.1555099,24.782467 Z" />
    <path
       d="m 6.4586114,25.244965 a 0.55296522,0.55296522 0 0 1 -0.7174531,-0.09633 0.55296522,0.55296522 0 0 1 -0.00734,-0.723854 0.55296522,0.55296522 0 0 1 0.7153526,-0.110859 0.55296522,0.55296522 0 0 1 0.2120971,0.692122 L 6.1555176,24.782467 Z"
       sodipodi:arc-type="slice"
       sodipodi:end="0.41623452"
       sodipodi:start="0.99067605"
       sodipodi:ry="0.55296522"
       sodipodi:rx="0.55296522"
       sodipodi:cy="24.782467"
       sodipodi:cx="6.1555176"
       sodipodi:type="arc"
       id="path1110"
       style="opacity:1;fill:#00ff00;stroke:none;stroke-width:0.0173428;stroke-linecap:round;stroke-linejoin:round;stroke-miterlimit:4;stroke-dasharray:0.0173428, 0.0173428;stroke-dashoffset:0"
       transform="rotate(-3.4511087)" />
    <path
       sodipodi:nodetypes="csccc"
       id="path1112"
       d="m 8.5988803,21.344315 c -0.026885,0.312225 0.3008079,0.383227 0.640797,0.148506 0.8212887,-0.566998 1.9391267,-1.394737 2.8656267,-1.98793 -0.239149,-1.461125 -1.66682,-2.14973 -3.2843564,-1.911208 -0.2354161,1.186066 -0.2542559,2.458207 -0.2220673,3.750632 z"
       style="opacity:0.219355;fill:#000000;stroke:none;stroke-width:0.13786;stroke-linecap:round;stroke-linejoin:round;stroke-miterlimit:4;stroke-dasharray:0.13786, 0.13786;stroke-dashoffset:0" />
    <path
       style="opacity:0.219355;fill:#000000;stroke:none;stroke-width:0.13786;stroke-linecap:round;stroke-linejoin:round;stroke-miterlimit:4;stroke-dasharray:0.13786, 0.13786;stroke-dashoffset:0"
       d="m 11.366355,23.557437 c -0.547328,0.451218 2.829785,1.155439 3.713628,1.686303 0.949029,-1.283201 0.574396,-2.531232 -0.430351,-3.509624 -1.133577,0.414227 -2.201173,1.154639 -3.283277,1.823321 z"
       id="path1114"
       sodipodi:nodetypes="cccc" />
    <path
       sodipodi:nodetypes="csccc"
       id="path1116"
       d="m 5.5238612,21.483758 c 0.247947,0.191648 0.4480195,-0.04795 0.3596237,-0.451524 -0.2056177,-0.938777 -0.2678761,-2.291548 -0.2649556,-3.391669 -1.3579134,-0.590042 -2.8062262,0.175644 -3.4814838,1.664733 1.070031,0.904188 2.2098013,1.597602 3.3868157,2.17846 z"
       style="opacity:0.219355;fill:#000000;stroke:none;stroke-width:0.13786;stroke-linecap:round;stroke-linejoin:round;stroke-miterlimit:4;stroke-dasharray:0.13786, 0.13786;stroke-dashoffset:0" />
    <path
       style="opacity:0.219355;fill:#000000;stroke:none;stroke-width:0.13786;stroke-linecap:round;stroke-linejoin:round;stroke-miterlimit:4;stroke-dasharray:0.13786, 0.13786;stroke-dashoffset:0"
       d="M 4.4100439,24.77231 C 4.7034402,24.662193 4.6122256,24.380449 4.222486,24.2434 3.3158707,23.9246 1.7749721,23.352797 0.8407923,22.771781 c -1.21597027,0.844683 -0.43807946,2.963796 0.4733553,4.321226 1.293132,-0.522314 2.0162127,-1.532786 3.0959031,-2.320697 z"
       id="path1118"
       sodipodi:nodetypes="csccc" />
    <path
       sodipodi:nodetypes="csccc"
       id="path1120"
       d="m 7.7047104,27.635306 c -0.044776,-0.310162 -0.279806,-0.390526 -0.4971,-0.03912 -0.5054625,0.817371 -1.8152829,1.615927 -2.5827847,2.404098 0.559353,1.678062 3.3484308,2.363993 4.8791765,1.218021 z"
       style="opacity:0.219355;fill:#000000;stroke:none;stroke-width:0.13786;stroke-linecap:round;stroke-linejoin:round;stroke-miterlimit:4;stroke-dasharray:0.13786, 0.13786;stroke-dashoffset:0" />
  </g>
  <g
     transform="translate(15.004173,17.421242)"
     inkscape:label="Stem_loop"
     id="layer5"
     inkscape:groupmode="layer">
    <path
       id="rect1458"
       style="opacity:1;fill:#800080;fill-opacity:1;stroke:none;stroke-width:0.175773;stroke-linejoin:round;stroke-miterlimit:4;stroke-dasharray:none"
       d="m 95.548889,39.303673 c 1.771513,7.910706 1.421467,16.300495 -1.71764,23.846685 -4.381076,12.617902 -14.510555,23.279608 -27.30177,27.44262 -14.151884,4.77445 -31.053356,1.566576 -41.699793,-9.130112 h 0.03961 a 7.9229987,37.017523 0 0 1 2.091756,-24.528908 h -7.552769 a 7.9229987,37.017523 0 0 1 2.091204,24.479934 v 0.04898 h 0.09518 C 28.721099,91.242354 41.40481,94.795994 52.980371,95.19793 74.23685,95.1415 93.765243,78.220982 97.532802,57.406009 98.884321,51.406294 98.68634,45.234561 97.30338,39.303679 Z" />
  </g>
</svg>
