<svg width="207.87mm" height="246.91mm" version="1.1" viewBox="0 0 207.87 246.91" xmlns="http://www.w3.org/2000/svg">
 <defs>
  <marker id="marker1902" overflow="visible" orient="auto">
   <path transform="matrix(.3 0 0 .3 -.69 0)" d="m8.7186 4.0337-10.926-4.0177 10.926-4.0177c-1.7455 2.3721-1.7354 5.6175-6e-7 8.0354z" fill="#fff" fill-rule="evenodd" stroke="#fff" stroke-linejoin="round" stroke-width=".625"/>
  </marker>
  <marker id="marker1862" overflow="visible" orient="auto">
   <path transform="matrix(.3 0 0 .3 -.69 0)" d="m8.7186 4.0337-10.926-4.0177 10.926-4.0177c-1.7455 2.3721-1.7354 5.6175-6e-7 8.0354z" fill="#fff" fill-rule="evenodd" stroke="#fff" stroke-linejoin="round" stroke-width=".625"/>
  </marker>
  <marker id="marker1690" overflow="visible" orient="auto">
   <path transform="matrix(.3 0 0 .3 -.69 0)" d="m8.7186 4.0337-10.926-4.0177 10.926-4.0177c-1.7455 2.3721-1.7354 5.6175-6e-7 8.0354z" fill="#fff" fill-rule="evenodd" stroke="#fff" stroke-linejoin="round" stroke-width=".625"/>
  </marker>
  <marker id="marker1558" overflow="visible" orient="auto">
   <path transform="matrix(.3 0 0 .3 -.69 0)" d="m8.7186 4.0337-10.926-4.0177 10.926-4.0177c-1.7455 2.3721-1.7354 5.6175-6e-7 8.0354z" fill="#fff" fill-rule="evenodd" stroke="#fff" stroke-linejoin="round" stroke-width=".625"/>
  </marker>
  <marker id="marker1342" overflow="visible" orient="auto">
   <path transform="matrix(.3 0 0 .3 -.69 0)" d="m8.7186 4.0337-10.926-4.0177 10.926-4.0177c-1.7455 2.3721-1.7354 5.6175-6e-7 8.0354z" fill="#fc0" fill-rule="evenodd" stroke="#fc0" stroke-linejoin="round" stroke-width=".625"/>
  </marker>
  <marker id="marker1316" overflow="visible" orient="auto">
   <path transform="matrix(.3 0 0 .3 -.69 0)" d="m8.7186 4.0337-10.926-4.0177 10.926-4.0177c-1.7455 2.3721-1.7354 5.6175-6e-7 8.0354z" fill="#fc0" fill-rule="evenodd" stroke="#fc0" stroke-linejoin="round" stroke-width=".625"/>
  </marker>
  <marker id="marker1214" overflow="visible" orient="auto">
   <path transform="matrix(.3 0 0 .3 -.69 0)" d="m8.7186 4.0337-10.926-4.0177 10.926-4.0177c-1.7455 2.3721-1.7354 5.6175-6e-7 8.0354z" fill="#fc0" fill-rule="evenodd" stroke="#fc0" stroke-linejoin="round" stroke-width=".625"/>
  </marker>
  <marker id="Arrow2Sstart" overflow="visible" orient="auto">
   <path transform="matrix(.3 0 0 .3 -.69 0)" d="m8.7186 4.0337-10.926-4.0177 10.926-4.0177c-1.7455 2.3721-1.7354 5.6175-6e-7 8.0354z" fill="#fc0" fill-rule="evenodd" stroke="#fc0" stroke-linejoin="round" stroke-width=".625"/>
  </marker>
  <filter id="filter1536" color-interpolation-filters="sRGB">
   <feGaussianBlur result="blur" stdDeviation="3.43645"/>
   <feComposite in="SourceGraphic" in2="blur" operator="atop" result="composite1"/>
   <feComposite in2="composite1" operator="in" result="composite2"/>
   <feComposite in2="composite2" operator="in" result="composite3"/>
  </filter>
 </defs>
 <g transform="translate(-1.4354 -16.487)">
  <g fill="#eaf" stroke="#000" stroke-width="1.665">
   <circle cx="38.554" cy="138.34" r="36.286"/>
   <circle cx="172.19" cy="141.01" r="36.286"/>
   <circle transform="rotate(88.255)" cx="56.8" cy="-104.06" r="36.286"/>
   <circle transform="rotate(88.255)" cx="229.29" cy="-95.39" r="36.286"/>
  </g>
  <g fill="#fc0" stroke="#fc0" stroke-width="2.8424">
   <path d="m60.667 106.18 20.01-25.635" marker-start="url(#Arrow2Sstart)"/>
   <path d="m134.89 82.423 21.869 24.069" marker-start="url(#marker1214)"/>
   <path d="m152.12 176.66-21.742 24.184" marker-start="url(#marker1316)"/>
   <path d="m73.758 197.21-21.547-24.357" marker-start="url(#marker1342)"/>
  </g>
  <g>
   <g transform="translate(-8.0181 -1.6036)" style="shape-inside:url(#rect1434);white-space:pre" aria-label="Food Technology">
    <path d="m107.2 42.145q0.11642 0 0.20108 0.08467 0.0847 0.08467 0.0847 0.20108v0.381q0 0.11642-0.0847 0.20108-0.0847 0.08467-0.20108 0.08467h-3.4819v2.4447h3.2702q0.11641 0 0.20108 0.08467 0.0847 0.08467 0.0847 0.20108v0.381q0 0.11642-0.0847 0.20108-0.0847 0.08467-0.20108 0.08467h-3.2702v2.7728q0 0.11642-0.0847 0.20108-0.0847 0.08467-0.20108 0.08467h-0.43392q-0.11641 0-0.20108-0.08467-0.0847-0.08467-0.0847-0.20108v-6.8368q0-0.11642 0.0847-0.20108 0.0847-0.08467 0.20108-0.08467z"/>
    <path d="m113.46 46.305q0.0212 0.23283 0.0212 0.508 0 0.254-0.0212 0.48683-0.0952 1.0795-0.75141 1.7251-0.64558 0.635-1.7568 0.635t-1.7674-0.635q-0.64558-0.64558-0.74083-1.7251-0.0106-0.11642-0.0106-0.48683 0-0.39158 0.0106-0.508 0.0847-1.0795 0.74083-1.7145 0.65616-0.64558 1.7674-0.64558t1.7674 0.64558q0.65616 0.635 0.74083 1.7145zm-0.96308 0.05292q-0.0635-0.67733-0.45508-1.0901-0.381-0.41275-1.0901-0.41275t-1.1007 0.41275q-0.381 0.41275-0.4445 1.0901-0.0106 0.127-0.0106 0.45508 0 0.3175 0.0106 0.43392 0.0635 0.67733 0.4445 1.0901 0.39158 0.41275 1.1007 0.41275t1.0901-0.41275q0.39158-0.41275 0.45508-1.0901 0.0212-0.23283 0.0212-0.43392 0-0.20108-0.0212-0.45508z"/>
    <path d="m119.57 46.305q0.0212 0.23283 0.0212 0.508 0 0.254-0.0212 0.48683-0.0953 1.0795-0.75141 1.7251-0.64558 0.635-1.7568 0.635t-1.7674-0.635q-0.64558-0.64558-0.74083-1.7251-0.0106-0.11642-0.0106-0.48683 0-0.39158 0.0106-0.508 0.0847-1.0795 0.74083-1.7145 0.65616-0.64558 1.7674-0.64558t1.7674 0.64558q0.65616 0.635 0.74083 1.7145zm-0.96308 0.05292q-0.0635-0.67733-0.45508-1.0901-0.381-0.41275-1.0901-0.41275t-1.1007 0.41275q-0.381 0.41275-0.4445 1.0901-0.0106 0.127-0.0106 0.45508 0 0.3175 0.0106 0.43392 0.0635 0.67733 0.4445 1.0901 0.39158 0.41275 1.1007 0.41275t1.0901-0.41275q0.39158-0.41275 0.45508-1.0901 0.0212-0.23283 0.0212-0.43392 0-0.20108-0.0212-0.45508z"/>
    <path d="m124.69 42.325q0-0.11642 0.0847-0.20108 0.0847-0.08467 0.20108-0.08467h0.39159q0.11641 0 0.20108 0.08467 0.0847 0.08467 0.0847 0.20108v6.9426q0 0.11642-0.0847 0.20108-0.0847 0.08467-0.20108 0.08467h-0.39159q-0.11641 0-0.20108-0.08467-0.0847-0.08467-0.0847-0.20108v-0.32808q-0.53975 0.71966-1.6404 0.71966-0.65616 0-1.1959-0.30692-0.52916-0.30692-0.85725-0.87841-0.3175-0.5715-0.34925-1.3335l-0.0106-0.34925 0.0106-0.33867q0.0318-0.762 0.34925-1.3229 0.32809-0.5715 0.85725-0.87841 0.52917-0.30692 1.1959-0.30692 0.59267 0 0.99483 0.21167 0.41275 0.20108 0.64559 0.508zm0 4.0957q-0.0318-0.74083-0.4445-1.1536-0.41275-0.41275-1.0901-0.41275-0.68792 0-1.1007 0.4445-0.40216 0.4445-0.44449 1.2065l-0.0106 0.29633 0.0106 0.29633q0.0423 0.762 0.44449 1.2065 0.41275 0.4445 1.1007 0.4445 0.65616 0 1.0795-0.40216 0.42334-0.41275 0.45509-1.0901 0.0106-0.10583 0.0106-0.42333 0-0.30692-0.0106-0.41275z"/>
    <path d="m90.804 55.375q0.11642 0 0.20108 0.08467 0.08467 0.08467 0.08467 0.20108v0.381q0 0.11642-0.08467 0.20108-0.08467 0.08467-0.20108 0.08467h-1.9791v6.1701q0 0.11642-0.08467 0.20108-0.08467 0.08467-0.20108 0.08467h-0.43392q-0.11642 0-0.20108-0.08467-0.08467-0.08467-0.08467-0.20108v-6.1701h-1.9791q-0.11642 0-0.20108-0.08467-0.08467-0.08467-0.08467-0.20108v-0.381q0-0.11642 0.08467-0.20108 0.08467-0.08467 0.20108-0.08467z"/>
    <path d="m94.296 57.174q1.1324 0 1.7886 0.71966 0.65616 0.71966 0.65616 1.9579v0.28575q0 0.11642-0.08467 0.20108-0.08467 0.08467-0.20108 0.08467h-3.6407v0.0635q0.02117 0.6985 0.42333 1.1007 0.41275 0.39158 1.0583 0.39158 0.52916 0 0.81491-0.13758 0.29633-0.13758 0.52916-0.39158 0.08467-0.08467 0.14817-0.11642 0.07408-0.03175 0.1905-0.03175h0.3175q0.127 0 0.21167 0.08467 0.08467 0.08467 0.07408 0.20108-0.04233 0.28575-0.3175 0.59266-0.26458 0.29633-0.77258 0.508-0.49742 0.20108-1.1959 0.20108-0.67733 0-1.2065-0.30692-0.52916-0.3175-0.84666-0.86783-0.30692-0.55033-0.37042-1.2382-0.02117-0.3175-0.02117-0.48683t0.02117-0.48683q0.0635-0.65616 0.37042-1.1853 0.3175-0.52916 0.83608-0.83608 0.52916-0.30692 1.2171-0.30692zm1.4922 2.3601v-0.03175q0-0.64558-0.41275-1.0266-0.40216-0.39158-1.0795-0.39158-0.61383 0-1.0477 0.39158-0.42333 0.39158-0.43392 1.0266v0.03175z"/>
    <path d="m100.24 61.979q1.0583 0 1.4288-0.8255 0.0741-0.15875 0.14816-0.22225 0.0741-0.0635 0.20109-0.0635h0.3175q0.11641 0 0.20108 0.08467 0.0847 0.07408 0.0847 0.17992 0 0.35983-0.28574 0.77258-0.28575 0.41275-0.8255 0.6985t-1.27 0.28575q-0.75141 0-1.3017-0.3175-0.55033-0.3175-0.84666-0.86783-0.29633-0.56092-0.32808-1.2488-0.01058-0.127-0.01058-0.48683 0-0.254 0.01058-0.35983 0.09525-1.0795 0.73025-1.7568 0.635-0.67733 1.7462-0.67733 0.73025 0 1.2594 0.28575 0.53975 0.27517 0.81492 0.68792 0.28575 0.40216 0.30691 0.762 0.0106 0.11642-0.0847 0.20108-0.0847 0.08467-0.20108 0.08467h-0.3175q-0.127 0-0.20109-0.0635-0.0741-0.0635-0.14816-0.22225-0.37042-0.8255-1.4288-0.8255-0.58208 0-1.016 0.39158t-0.49742 1.1853q-0.01058 0.11642-0.01058 0.381 0 0.24342 0.01058 0.35983 0.07408 0.79375 0.49742 1.1853 0.43392 0.39158 1.016 0.39158z"/>
    <path d="m108.78 62.497q0 0.11642-0.0847 0.20108-0.0847 0.08467-0.20108 0.08467h-0.39158q-0.11642 0-0.20109-0.08467-0.0847-0.08467-0.0847-0.20108v-2.794q0-0.79375-0.39158-1.2065-0.39159-0.41275-1.0901-0.41275-0.68792 0-1.0901 0.41275-0.39159 0.41275-0.39159 1.2065v2.794q0 0.11642-0.0847 0.20108-0.0847 0.08467-0.20109 0.08467h-0.39158q-0.11641 0-0.20108-0.08467-0.0847-0.08467-0.0847-0.20108v-6.9426q0-0.11642 0.0847-0.20108 0.0847-0.08467 0.20108-0.08467h0.39158q0.11642 0 0.20109 0.08467 0.0847 0.08467 0.0847 0.20108v2.3389q0.23284-0.30692 0.635-0.508 0.41275-0.21167 1.0054-0.21167 0.66675 0 1.1853 0.28575 0.51859 0.28575 0.80434 0.8255 0.29633 0.52916 0.29633 1.2594z"/>
    <path d="m115.21 62.497q0 0.11642-0.0847 0.20108-0.0847 0.08467-0.20108 0.08467h-0.39159q-0.11641 0-0.20108-0.08467-0.0847-0.08467-0.0847-0.20108v-2.794q0-0.79375-0.39158-1.2065-0.39158-0.41275-1.0901-0.41275-0.68791 0-1.0901 0.41275-0.39158 0.41275-0.39158 1.2065v2.794q0 0.11642-0.0847 0.20108-0.0847 0.08467-0.20108 0.08467h-0.39158q-0.11642 0-0.20108-0.08467-0.0847-0.08467-0.0847-0.20108v-4.9318q0-0.11642 0.0847-0.20108 0.0847-0.08467 0.20108-0.08467h0.39158q0.11642 0 0.20108 0.08467 0.0847 0.08467 0.0847 0.20108v0.32808q0.23283-0.30692 0.635-0.508 0.41275-0.21167 1.0054-0.21167 0.66675 0 1.1853 0.28575t0.80433 0.8255q0.29634 0.52916 0.29634 1.2594z"/>
    <path d="m121.51 59.534q0.0212 0.23283 0.0212 0.508 0 0.254-0.0212 0.48683-0.0952 1.0795-0.75141 1.7251-0.64558 0.635-1.7568 0.635t-1.7674-0.635q-0.64558-0.64558-0.74083-1.7251-0.0106-0.11642-0.0106-0.48683 0-0.39158 0.0106-0.508 0.0847-1.0795 0.74083-1.7145 0.65616-0.64558 1.7674-0.64558t1.7674 0.64558q0.65616 0.635 0.74083 1.7145zm-0.96308 0.05292q-0.0635-0.67733-0.45508-1.0901-0.381-0.41275-1.0901-0.41275t-1.1007 0.41275q-0.381 0.41275-0.4445 1.0901-0.0106 0.127-0.0106 0.45508 0 0.3175 0.0106 0.43392 0.0635 0.67733 0.4445 1.0901 0.39158 0.41275 1.1007 0.41275t1.0901-0.41275q0.39158-0.41275 0.45508-1.0901 0.0212-0.23283 0.0212-0.43392 0-0.20108-0.0212-0.45508z"/>
    <path d="m123.81 62.497q0 0.11642-0.0847 0.20108-0.0847 0.08467-0.20108 0.08467h-0.39158q-0.11642 0-0.20109-0.08467-0.0847-0.08467-0.0847-0.20108v-6.9426q0-0.11642 0.0847-0.20108 0.0847-0.08467 0.20109-0.08467h0.39158q0.11641 0 0.20108 0.08467 0.0847 0.08467 0.0847 0.20108z"/>
    <path d="m130.16 59.534q0.0212 0.23283 0.0212 0.508 0 0.254-0.0212 0.48683-0.0952 1.0795-0.75142 1.7251-0.64558 0.635-1.7568 0.635-1.1112 0-1.7674-0.635-0.64559-0.64558-0.74084-1.7251-0.0106-0.11642-0.0106-0.48683 0-0.39158 0.0106-0.508 0.0847-1.0795 0.74084-1.7145 0.65616-0.64558 1.7674-0.64558 1.1112 0 1.7674 0.64558 0.65616 0.635 0.74083 1.7145zm-0.96308 0.05292q-0.0635-0.67733-0.45508-1.0901-0.381-0.41275-1.0901-0.41275t-1.1007 0.41275q-0.381 0.41275-0.4445 1.0901-0.0106 0.127-0.0106 0.45508 0 0.3175 0.0106 0.43392 0.0635 0.67733 0.4445 1.0901 0.39159 0.41275 1.1007 0.41275t1.0901-0.41275q0.39158-0.41275 0.45508-1.0901 0.0212-0.23283 0.0212-0.43392 0-0.20108-0.0212-0.45508z"/>
    <path d="m133.64 57.174q0.59266 0 0.99483 0.21167 0.41275 0.20108 0.64558 0.508v-0.32808q0-0.11642 0.0847-0.20108 0.0847-0.08467 0.20108-0.08467h0.39158q0.11642 0 0.20109 0.08467 0.0847 0.08467 0.0847 0.20108v5.1435q0 1.1218-0.635 1.7568-0.63499 0.64558-1.8627 0.64558-0.79374 0-1.3335-0.24342t-0.80433-0.60325q-0.254-0.35983-0.27517-0.73025-0.0106-0.11642 0.0741-0.20108 0.0952-0.08467 0.21167-0.08467h0.3175q0.127 0 0.20108 0.0635 0.0741 0.0635 0.14817 0.22225 0.10583 0.24342 0.40216 0.45508 0.29634 0.21167 0.9525 0.21167 1.6404 0 1.6404-1.3652v-0.66675q-0.53975 0.71966-1.6404 0.71966-0.65616 0-1.1959-0.30692-0.52917-0.30692-0.85725-0.86783-0.3175-0.5715-0.34925-1.3335l-0.0106-0.34925 0.0106-0.34925q0.0318-0.762 0.34925-1.3229 0.32808-0.5715 0.85725-0.87841 0.52916-0.30692 1.1959-0.30692zm0.10583 0.91016q-0.68791 0-1.1007 0.4445-0.40217 0.4445-0.4445 1.2065l-0.0106 0.29633 0.0106 0.29633q0.0423 0.762 0.4445 1.2065 0.41275 0.4445 1.1007 0.4445 0.67733 0 1.0901-0.41275 0.41275-0.42333 0.4445-1.1536 0.0106-0.10583 0.0106-0.381t-0.0106-0.381q-0.0318-0.74083-0.4445-1.1536-0.41275-0.41275-1.0901-0.41275z"/>
    <path d="m139.46 64.54q-0.0952 0.254-0.30692 0.254h-0.43391q-0.10584 0-0.17992-0.07408-0.0741-0.07408-0.0741-0.17992 0-0.04233 0.0106-0.07408l1.016-2.2119-2.0955-4.6461q-0.0106-0.03175-0.0106-0.07408 0-0.10583 0.0741-0.17992 0.0741-0.07408 0.17992-0.07408h0.43391q0.21167 0 0.30692 0.254l1.6298 3.5983 1.651-3.5983q0.0952-0.254 0.30692-0.254h0.43391q0.10584 0 0.17992 0.07408 0.0741 0.07408 0.0741 0.17992 0 0.04233-0.0106 0.07408z"/>
   </g>
   <g transform="translate(-76.347 86.477)" style="shape-inside:url(#rect1442);white-space:pre" aria-label="Food Science">
    <path d="m107.2 42.145q0.11642 0 0.20108 0.08467 0.0847 0.08467 0.0847 0.20108v0.381q0 0.11642-0.0847 0.20108-0.0847 0.08467-0.20108 0.08467h-3.4819v2.4447h3.2702q0.11641 0 0.20108 0.08467 0.0847 0.08467 0.0847 0.20108v0.381q0 0.11642-0.0847 0.20108-0.0847 0.08467-0.20108 0.08467h-3.2702v2.7728q0 0.11642-0.0847 0.20108-0.0847 0.08467-0.20108 0.08467h-0.43392q-0.11641 0-0.20108-0.08467-0.0847-0.08467-0.0847-0.20108v-6.8368q0-0.11642 0.0847-0.20108 0.0847-0.08467 0.20108-0.08467z"/>
    <path d="m113.46 46.305q0.0212 0.23283 0.0212 0.508 0 0.254-0.0212 0.48683-0.0952 1.0795-0.75141 1.7251-0.64558 0.635-1.7568 0.635t-1.7674-0.635q-0.64558-0.64558-0.74083-1.7251-0.0106-0.11642-0.0106-0.48683 0-0.39158 0.0106-0.508 0.0847-1.0795 0.74083-1.7145 0.65616-0.64558 1.7674-0.64558t1.7674 0.64558q0.65616 0.635 0.74083 1.7145zm-0.96308 0.05292q-0.0635-0.67733-0.45508-1.0901-0.381-0.41275-1.0901-0.41275t-1.1007 0.41275q-0.381 0.41275-0.4445 1.0901-0.0106 0.127-0.0106 0.45508 0 0.3175 0.0106 0.43392 0.0635 0.67733 0.4445 1.0901 0.39158 0.41275 1.1007 0.41275t1.0901-0.41275q0.39158-0.41275 0.45508-1.0901 0.0212-0.23283 0.0212-0.43392 0-0.20108-0.0212-0.45508z"/>
    <path d="m119.57 46.305q0.0212 0.23283 0.0212 0.508 0 0.254-0.0212 0.48683-0.0953 1.0795-0.75141 1.7251-0.64558 0.635-1.7568 0.635t-1.7674-0.635q-0.64558-0.64558-0.74083-1.7251-0.0106-0.11642-0.0106-0.48683 0-0.39158 0.0106-0.508 0.0847-1.0795 0.74083-1.7145 0.65616-0.64558 1.7674-0.64558t1.7674 0.64558q0.65616 0.635 0.74083 1.7145zm-0.96308 0.05292q-0.0635-0.67733-0.45508-1.0901-0.381-0.41275-1.0901-0.41275t-1.1007 0.41275q-0.381 0.41275-0.4445 1.0901-0.0106 0.127-0.0106 0.45508 0 0.3175 0.0106 0.43392 0.0635 0.67733 0.4445 1.0901 0.39158 0.41275 1.1007 0.41275t1.0901-0.41275q0.39158-0.41275 0.45508-1.0901 0.0212-0.23283 0.0212-0.43392 0-0.20108-0.0212-0.45508z"/>
    <path d="m124.69 42.325q0-0.11642 0.0847-0.20108 0.0847-0.08467 0.20108-0.08467h0.39159q0.11641 0 0.20108 0.08467 0.0847 0.08467 0.0847 0.20108v6.9426q0 0.11642-0.0847 0.20108-0.0847 0.08467-0.20108 0.08467h-0.39159q-0.11641 0-0.20108-0.08467-0.0847-0.08467-0.0847-0.20108v-0.32808q-0.53975 0.71966-1.6404 0.71966-0.65616 0-1.1959-0.30692-0.52916-0.30692-0.85725-0.87841-0.3175-0.5715-0.34925-1.3335l-0.0106-0.34925 0.0106-0.33867q0.0318-0.762 0.34925-1.3229 0.32809-0.5715 0.85725-0.87841 0.52917-0.30692 1.1959-0.30692 0.59267 0 0.99483 0.21167 0.41275 0.20108 0.64559 0.508zm0 4.0957q-0.0318-0.74083-0.4445-1.1536-0.41275-0.41275-1.0901-0.41275-0.68792 0-1.1007 0.4445-0.40216 0.4445-0.44449 1.2065l-0.0106 0.29633 0.0106 0.29633q0.0423 0.762 0.44449 1.2065 0.41275 0.4445 1.1007 0.4445 0.65616 0 1.0795-0.40216 0.42334-0.41275 0.45509-1.0901 0.0106-0.10583 0.0106-0.42333 0-0.30692-0.0106-0.41275z"/>
    <path d="m100.47 57.184q0.0106 0.09525-0.0635 0.16933-0.0741 0.0635-0.16933 0.0635h-0.43391q-0.127 0-0.1905-0.04233-0.0635-0.05292-0.13758-0.1905-0.16933-0.32808-0.59266-0.64558-0.41275-0.3175-1.1007-0.3175-0.635 0-1.0795 0.28575-0.43392 0.28575-0.43392 0.81491 0 0.35983 0.21167 0.59266 0.22225 0.22225 0.65616 0.39158 0.4445 0.15875 1.3335 0.39158 1.2065 0.3175 1.7039 0.78316 0.508 0.45508 0.508 1.2488 0 0.635-0.35983 1.1218-0.34925 0.48683-0.99483 0.762t-1.4922 0.27517q-0.78316 0-1.4287-0.29633-0.64558-0.29633-1.016-0.75142-0.37042-0.46566-0.39158-0.92075 0-0.09525 0.0635-0.15875 0.07408-0.07408 0.16933-0.07408h0.43392q0.11642 0 0.1905 0.05292 0.07408 0.04233 0.13758 0.17992 0.16933 0.381 0.61383 0.6985 0.45508 0.3175 1.2277 0.3175t1.3017-0.32808q0.53975-0.33867 0.53975-0.87841 0-0.34925-0.28575-0.58208-0.27517-0.24342-0.762-0.40216-0.48683-0.16933-1.4287-0.41275-1.0266-0.26458-1.4817-0.762-0.45508-0.508-0.45508-1.2488 0-0.55033 0.28575-1.016 0.28575-0.46567 0.85725-0.75142 0.5715-0.28575 1.3758-0.28575 0.80433 0 1.4076 0.3175 0.60325 0.30692 0.93133 0.762 0.32808 0.45508 0.34924 0.83608z"/>
    <path d="m104.15 61.979q1.0583 0 1.4288-0.8255 0.0741-0.15875 0.14816-0.22225 0.0741-0.0635 0.20109-0.0635h0.3175q0.11641 0 0.20108 0.08467 0.0847 0.07408 0.0847 0.17992 0 0.35983-0.28575 0.77258t-0.8255 0.6985-1.27 0.28575q-0.75141 0-1.3017-0.3175t-0.84667-0.86783q-0.29633-0.56092-0.32808-1.2488-0.0106-0.127-0.0106-0.48683 0-0.254 0.0106-0.35983 0.0953-1.0795 0.73025-1.7568 0.635-0.67733 1.7462-0.67733 0.73025 0 1.2594 0.28575 0.53974 0.27517 0.81491 0.68792 0.28575 0.40216 0.30692 0.762 0.0106 0.11642-0.0847 0.20108-0.0847 0.08467-0.20108 0.08467h-0.3175q-0.127 0-0.20109-0.0635-0.0741-0.0635-0.14816-0.22225-0.37042-0.8255-1.4288-0.8255-0.58208 0-1.016 0.39158-0.43392 0.39158-0.49742 1.1853-0.0106 0.11642-0.0106 0.381 0 0.24342 0.0106 0.35983 0.0741 0.79375 0.49742 1.1853 0.43391 0.39158 1.016 0.39158z"/>
    <path d="m108.87 56.158q0 0.11642-0.0847 0.20108-0.0847 0.08467-0.20108 0.08467h-0.60325q-0.11642 0-0.20108-0.08467-0.0847-0.08467-0.0847-0.20108v-0.60325q0-0.11642 0.0847-0.20108 0.0847-0.08467 0.20108-0.08467h0.60325q0.11641 0 0.20108 0.08467 0.0847 0.08467 0.0847 0.20108zm-0.10584 6.3394q0 0.11642-0.0847 0.20108-0.0847 0.08467-0.20108 0.08467h-0.39159q-0.11641 0-0.20108-0.08467-0.0847-0.08467-0.0847-0.20108v-4.9318q0-0.11642 0.0847-0.20108 0.0847-0.08467 0.20108-0.08467h0.39159q0.11641 0 0.20108 0.08467 0.0847 0.08467 0.0847 0.20108z"/>
    <path d="m112.53 57.174q1.1324 0 1.7886 0.71966 0.65616 0.71966 0.65616 1.9579v0.28575q0 0.11642-0.0847 0.20108-0.0847 0.08467-0.20108 0.08467h-3.6406v0.0635q0.0212 0.6985 0.42333 1.1007 0.41275 0.39158 1.0583 0.39158 0.52916 0 0.81491-0.13758 0.29633-0.13758 0.52917-0.39158 0.0847-0.08467 0.14816-0.11642 0.0741-0.03175 0.1905-0.03175h0.3175q0.127 0 0.21167 0.08467 0.0847 0.08467 0.0741 0.20108-0.0423 0.28575-0.3175 0.59266-0.26458 0.29633-0.77258 0.508-0.49741 0.20108-1.1959 0.20108-0.67733 0-1.2065-0.30692-0.52916-0.3175-0.84666-0.86783-0.30692-0.55033-0.37042-1.2382-0.0212-0.3175-0.0212-0.48683t0.0212-0.48683q0.0635-0.65616 0.37042-1.1853 0.3175-0.52916 0.83608-0.83608 0.52916-0.30692 1.2171-0.30692zm1.4922 2.3601v-0.03175q0-0.64558-0.41275-1.0266-0.40216-0.39158-1.0795-0.39158-0.61383 0-1.0478 0.39158-0.42333 0.39158-0.43391 1.0266v0.03175z"/>
    <path d="m121.14 62.497q0 0.11642-0.0847 0.20108-0.0847 0.08467-0.20108 0.08467h-0.39159q-0.11641 0-0.20108-0.08467-0.0847-0.08467-0.0847-0.20108v-2.794q0-0.79375-0.39159-1.2065-0.39158-0.41275-1.0901-0.41275-0.68791 0-1.0901 0.41275-0.39158 0.41275-0.39158 1.2065v2.794q0 0.11642-0.0847 0.20108-0.0847 0.08467-0.20109 0.08467h-0.39158q-0.11642 0-0.20108-0.08467-0.0847-0.08467-0.0847-0.20108v-4.9318q0-0.11642 0.0847-0.20108 0.0847-0.08467 0.20108-0.08467h0.39158q0.11642 0 0.20109 0.08467 0.0847 0.08467 0.0847 0.20108v0.32808q0.23283-0.30692 0.635-0.508 0.41275-0.21167 1.0054-0.21167 0.66675 0 1.1853 0.28575t0.80433 0.8255q0.29634 0.52916 0.29634 1.2594z"/>
    <path d="m124.9 61.979q1.0583 0 1.4288-0.8255 0.0741-0.15875 0.14816-0.22225 0.0741-0.0635 0.20108-0.0635h0.3175q0.11642 0 0.20109 0.08467 0.0847 0.07408 0.0847 0.17992 0 0.35983-0.28575 0.77258t-0.82549 0.6985q-0.53975 0.28575-1.27 0.28575-0.75141 0-1.3018-0.3175-0.55033-0.3175-0.84666-0.86783-0.29633-0.56092-0.32808-1.2488-0.0106-0.127-0.0106-0.48683 0-0.254 0.0106-0.35983 0.0952-1.0795 0.73025-1.7568 0.63499-0.67733 1.7462-0.67733 0.73025 0 1.2594 0.28575 0.53975 0.27517 0.81492 0.68792 0.28575 0.40216 0.30691 0.762 0.0106 0.11642-0.0847 0.20108-0.0847 0.08467-0.20109 0.08467h-0.3175q-0.127 0-0.20108-0.0635-0.0741-0.0635-0.14816-0.22225-0.37042-0.8255-1.4288-0.8255-0.58208 0-1.016 0.39158-0.43391 0.39158-0.49741 1.1853-0.0106 0.11642-0.0106 0.381 0 0.24342 0.0106 0.35983 0.0741 0.79375 0.49741 1.1853 0.43392 0.39158 1.016 0.39158z"/>
    <path d="m130.72 57.174q1.1324 0 1.7886 0.71966 0.65616 0.71966 0.65616 1.9579v0.28575q0 0.11642-0.0847 0.20108-0.0847 0.08467-0.20108 0.08467h-3.6406v0.0635q0.0212 0.6985 0.42333 1.1007 0.41275 0.39158 1.0583 0.39158 0.52916 0 0.81491-0.13758 0.29633-0.13758 0.52917-0.39158 0.0847-0.08467 0.14816-0.11642 0.0741-0.03175 0.1905-0.03175h0.3175q0.127 0 0.21167 0.08467 0.0847 0.08467 0.0741 0.20108-0.0423 0.28575-0.3175 0.59266-0.26458 0.29633-0.77258 0.508-0.49741 0.20108-1.1959 0.20108-0.67733 0-1.2065-0.30692-0.52916-0.3175-0.84666-0.86783-0.30692-0.55033-0.37042-1.2382-0.0212-0.3175-0.0212-0.48683t0.0212-0.48683q0.0635-0.65616 0.37042-1.1853 0.3175-0.52916 0.83608-0.83608 0.52916-0.30692 1.2171-0.30692zm1.4922 2.3601v-0.03175q0-0.64558-0.41275-1.0266-0.40216-0.39158-1.0795-0.39158-0.61383 0-1.0478 0.39158-0.42333 0.39158-0.43391 1.0266v0.03175z"/>
   </g>
   <g transform="translate(-12.294 172.12)" style="shape-inside:url(#rect1448);white-space:pre" aria-label="Scientific Knowledge">
    <path d="m97.027 43.955q0.01058 0.09525-0.0635 0.16933-0.07408 0.0635-0.16933 0.0635h-0.43392q-0.127 0-0.1905-0.04233-0.0635-0.05292-0.13758-0.1905-0.16933-0.32808-0.59266-0.64558-0.41275-0.3175-1.1007-0.3175-0.635 0-1.0795 0.28575-0.43392 0.28575-0.43392 0.81491 0 0.35983 0.21167 0.59266 0.22225 0.22225 0.65616 0.39158 0.4445 0.15875 1.3335 0.39158 1.2065 0.3175 1.7039 0.78316 0.508 0.45508 0.508 1.2488 0 0.635-0.35983 1.1218-0.34925 0.48683-0.99483 0.762t-1.4922 0.27517q-0.78316 0-1.4287-0.29633-0.64558-0.29633-1.016-0.75142-0.37042-0.46566-0.39158-0.92075 0-0.09525 0.0635-0.15875 0.07408-0.07408 0.16933-0.07408h0.43392q0.11642 0 0.1905 0.05292 0.07408 0.04233 0.13758 0.17992 0.16933 0.381 0.61383 0.6985 0.45508 0.3175 1.2277 0.3175t1.3017-0.32808q0.53975-0.33867 0.53975-0.87841 0-0.34925-0.28575-0.58208-0.27517-0.24342-0.762-0.40216-0.48683-0.16933-1.4287-0.41275-1.0266-0.26458-1.4817-0.762-0.45508-0.508-0.45508-1.2488 0-0.55033 0.28575-1.016 0.28575-0.46567 0.85725-0.75142 0.5715-0.28575 1.3758-0.28575 0.80433 0 1.4076 0.3175 0.60325 0.30692 0.93133 0.762 0.32808 0.45508 0.34925 0.83608z"/>
    <path d="m100.71 48.749q1.0583 0 1.4288-0.8255 0.0741-0.15875 0.14817-0.22225 0.0741-0.0635 0.20108-0.0635h0.3175q0.11641 0 0.20108 0.08467 0.0847 0.07408 0.0847 0.17992 0 0.35983-0.28575 0.77258t-0.8255 0.6985-1.27 0.28575q-0.75141 0-1.3017-0.3175-0.55033-0.3175-0.84666-0.86783-0.29633-0.56092-0.32808-1.2488-0.01058-0.127-0.01058-0.48683 0-0.254 0.01058-0.35983 0.09525-1.0795 0.73025-1.7568 0.635-0.67733 1.7462-0.67733 0.73025 0 1.2594 0.28575 0.53974 0.27517 0.81491 0.68792 0.28575 0.40216 0.30692 0.762 0.0106 0.11642-0.0847 0.20108-0.0847 0.08467-0.20108 0.08467h-0.3175q-0.127 0-0.20108-0.0635-0.0741-0.0635-0.14817-0.22225-0.37042-0.8255-1.4288-0.8255-0.58208 0-1.016 0.39158-0.43392 0.39158-0.49742 1.1853-0.01058 0.11642-0.01058 0.381 0 0.24342 0.01058 0.35983 0.07408 0.79375 0.49742 1.1853 0.43391 0.39158 1.016 0.39158z"/>
    <path d="m105.43 42.929q0 0.11642-0.0847 0.20108-0.0847 0.08467-0.20108 0.08467h-0.60325q-0.11642 0-0.20108-0.08467-0.0847-0.08467-0.0847-0.20108v-0.60325q0-0.11642 0.0847-0.20108 0.0847-0.08467 0.20108-0.08467h0.60325q0.11642 0 0.20108 0.08467 0.0847 0.08467 0.0847 0.20108zm-0.10583 6.3394q0 0.11642-0.0847 0.20108-0.0847 0.08467-0.20108 0.08467h-0.39159q-0.11641 0-0.20108-0.08467-0.0847-0.08467-0.0847-0.20108v-4.9318q0-0.11642 0.0847-0.20108 0.0847-0.08467 0.20108-0.08467h0.39159q0.11641 0 0.20108 0.08467 0.0847 0.08467 0.0847 0.20108z"/>
    <path d="m109.08 43.945q1.1324 0 1.7886 0.71966 0.65616 0.71966 0.65616 1.9579v0.28575q0 0.11642-0.0847 0.20108-0.0847 0.08467-0.20108 0.08467h-3.6406v0.0635q0.0212 0.6985 0.42333 1.1007 0.41275 0.39158 1.0583 0.39158 0.52916 0 0.81491-0.13758 0.29634-0.13758 0.52917-0.39158 0.0847-0.08467 0.14816-0.11642 0.0741-0.03175 0.1905-0.03175h0.3175q0.127 0 0.21167 0.08467 0.0847 0.08467 0.0741 0.20108-0.0423 0.28575-0.3175 0.59266-0.26458 0.29633-0.77258 0.508-0.49741 0.20108-1.1959 0.20108-0.67733 0-1.2065-0.30692-0.52916-0.3175-0.84666-0.86783-0.30692-0.55033-0.37042-1.2382-0.0212-0.3175-0.0212-0.48683t0.0212-0.48683q0.0635-0.65616 0.37042-1.1853 0.3175-0.52916 0.83608-0.83608 0.52916-0.30692 1.2171-0.30692zm1.4922 2.3601v-0.03175q0-0.64558-0.41274-1.0266-0.40217-0.39158-1.0795-0.39158-0.61383 0-1.0478 0.39158-0.42333 0.39158-0.43391 1.0266v0.03175z"/>
    <path d="m117.7 49.268q0 0.11642-0.0847 0.20108-0.0847 0.08467-0.20108 0.08467h-0.39158q-0.11642 0-0.20109-0.08467-0.0847-0.08467-0.0847-0.20108v-2.794q0-0.79375-0.39159-1.2065-0.39158-0.41275-1.0901-0.41275-0.68791 0-1.0901 0.41275-0.39158 0.41275-0.39158 1.2065v2.794q0 0.11642-0.0847 0.20108-0.0847 0.08467-0.20109 0.08467h-0.39158q-0.11642 0-0.20108-0.08467-0.0847-0.08467-0.0847-0.20108v-4.9318q0-0.11642 0.0847-0.20108 0.0847-0.08467 0.20108-0.08467h0.39158q0.11642 0 0.20109 0.08467 0.0847 0.08467 0.0847 0.20108v0.32808q0.23284-0.30692 0.635-0.508 0.41275-0.21167 1.0054-0.21167 0.66675 0 1.1853 0.28575 0.51859 0.28575 0.80433 0.8255 0.29634 0.52916 0.29634 1.2594z"/>
    <path d="m120.67 47.702q0 0.45508 0.17991 0.6985 0.1905 0.24342 0.70908 0.24342h0.56092q0.11641 0 0.20108 0.08467 0.0847 0.08467 0.0847 0.20108v0.33867q0 0.11642-0.0847 0.20108-0.0847 0.08467-0.20108 0.08467h-0.66675q-0.89958 0-1.3229-0.46566-0.42333-0.47625-0.42333-1.3864v-2.7411h-0.78317q-0.11641 0-0.20108-0.08467-0.0847-0.08467-0.0847-0.20108v-0.33867q0-0.11642 0.0847-0.20108 0.0847-0.08467 0.20108-0.08467h0.78317v-1.7251q0-0.11642 0.0847-0.20108 0.0847-0.08467 0.20109-0.08467h0.39158q0.11641 0 0.20108 0.08467 0.0847 0.08467 0.0847 0.20108v1.7251h1.3441q0.11641 0 0.20108 0.08467 0.0847 0.08467 0.0847 0.20108v0.33867q0 0.11642-0.0847 0.20108-0.0847 0.08467-0.20108 0.08467h-1.3441z"/>
    <path d="m124.53 42.929q0 0.11642-0.0847 0.20108-0.0847 0.08467-0.20108 0.08467h-0.60325q-0.11642 0-0.20108-0.08467-0.0847-0.08467-0.0847-0.20108v-0.60325q0-0.11642 0.0847-0.20108 0.0847-0.08467 0.20108-0.08467h0.60325q0.11641 0 0.20108 0.08467 0.0847 0.08467 0.0847 0.20108zm-0.10584 6.3394q0 0.11642-0.0847 0.20108-0.0847 0.08467-0.20108 0.08467h-0.39159q-0.11641 0-0.20108-0.08467-0.0847-0.08467-0.0847-0.20108v-4.9318q0-0.11642 0.0847-0.20108 0.0847-0.08467 0.20108-0.08467h0.39159q0.11641 0 0.20108 0.08467 0.0847 0.08467 0.0847 0.20108z"/>
    <path d="m130.43 49.268q0 0.11642-0.0847 0.20108-0.0847 0.08467-0.20108 0.08467h-0.39159q-0.11641 0-0.20108-0.08467-0.0847-0.08467-0.0847-0.20108v-4.3074h-1.9156v4.3074q0 0.11642-0.0847 0.20108-0.0847 0.08467-0.20108 0.08467h-0.39158q-0.11642 0-0.20109-0.08467-0.0847-0.08467-0.0847-0.20108v-4.3074h-0.87842q-0.11641 0-0.20108-0.08467-0.0847-0.08467-0.0847-0.20108v-0.33867q0-0.11642 0.0847-0.20108 0.0847-0.08467 0.20108-0.08467h0.87842v-0.52916q0-0.91016 0.42333-1.3547 0.42333-0.4445 1.3229-0.4445h1.8098q0.11641 0 0.20108 0.08467 0.0847 0.08467 0.0847 0.20108v0.33867q0 0.11642-0.0847 0.20108-0.0847 0.08467-0.20108 0.08467h-1.7039q-0.51859 0-0.70909 0.24342-0.17991 0.24342-0.17991 0.6985v0.47625h2.5929q0.11641 0 0.20108 0.08467 0.0847 0.08467 0.0847 0.20108z"/>
    <path d="m134.24 48.749q1.0583 0 1.4287-0.8255 0.0741-0.15875 0.14817-0.22225 0.0741-0.0635 0.20108-0.0635h0.3175q0.11642 0 0.20108 0.08467 0.0847 0.07408 0.0847 0.17992 0 0.35983-0.28575 0.77258t-0.8255 0.6985q-0.53974 0.28575-1.27 0.28575-0.75142 0-1.3018-0.3175t-0.84666-0.86783q-0.29633-0.56092-0.32808-1.2488-0.0106-0.127-0.0106-0.48683 0-0.254 0.0106-0.35983 0.0953-1.0795 0.73024-1.7568 0.635-0.67733 1.7462-0.67733 0.73025 0 1.2594 0.28575 0.53975 0.27517 0.81491 0.68792 0.28575 0.40216 0.30692 0.762 0.0106 0.11642-0.0847 0.20108-0.0847 0.08467-0.20108 0.08467h-0.3175q-0.127 0-0.20108-0.0635-0.0741-0.0635-0.14817-0.22225-0.37041-0.8255-1.4287-0.8255-0.58208 0-1.016 0.39158-0.43391 0.39158-0.49741 1.1853-0.0106 0.11642-0.0106 0.381 0 0.24342 0.0106 0.35983 0.0741 0.79375 0.49741 1.1853 0.43392 0.39158 1.016 0.39158z"/>
    <path d="m93.01 62.36q0.10583 0.10583 0.10583 0.1905 0 0.09525-0.07408 0.16933-0.0635 0.0635-0.15875 0.0635h-0.65616q-0.22225 0-0.381-0.15875l-2.9951-2.8575v2.7305q0 0.11642-0.08467 0.20108-0.08467 0.08467-0.20108 0.08467h-0.43392q-0.11642 0-0.20108-0.08467-0.08467-0.08467-0.08467-0.20108v-6.8368q0-0.11642 0.08467-0.20108 0.08467-0.08467 0.20108-0.08467h0.43392q0.11642 0 0.20108 0.08467 0.08467 0.08467 0.08467 0.20108v2.4659l2.8257-2.5929q0.15875-0.15875 0.381-0.15875h0.61383q0.09525 0 0.15875 0.07408 0.07408 0.0635 0.07408 0.15875 0 0.08467-0.10583 0.1905l-3.3972 3.1221z"/>
    <path d="m98.958 62.497q0 0.11642-0.08467 0.20108-0.08467 0.08467-0.20108 0.08467h-0.39158q-0.11642 0-0.20108-0.08467-0.08467-0.08467-0.08467-0.20108v-2.794q0-0.79375-0.39158-1.2065-0.39158-0.41275-1.0901-0.41275-0.68791 0-1.0901 0.41275-0.39158 0.41275-0.39158 1.2065v2.794q0 0.11642-0.08467 0.20108-0.08467 0.08467-0.20108 0.08467h-0.39158q-0.11642 0-0.20108-0.08467-0.08467-0.08467-0.08467-0.20108v-4.9318q0-0.11642 0.08467-0.20108 0.08467-0.08467 0.20108-0.08467h0.39158q0.11642 0 0.20108 0.08467 0.08467 0.08467 0.08467 0.20108v0.32808q0.23283-0.30692 0.635-0.508 0.41275-0.21167 1.0054-0.21167 0.66675 0 1.1853 0.28575 0.51858 0.28575 0.80433 0.8255 0.29633 0.52916 0.29633 1.2594z"/>
    <path d="m105.26 59.534q0.0212 0.23283 0.0212 0.508 0 0.254-0.0212 0.48683-0.0952 1.0795-0.75142 1.7251-0.64558 0.635-1.7568 0.635-1.1112 0-1.7674-0.635-0.64559-0.64558-0.74083-1.7251-0.0106-0.11642-0.0106-0.48683 0-0.39158 0.0106-0.508 0.0847-1.0795 0.74083-1.7145 0.65616-0.64558 1.7674-0.64558 1.1112 0 1.7674 0.64558 0.65616 0.635 0.74083 1.7145zm-0.96308 0.05292q-0.0635-0.67733-0.45508-1.0901-0.381-0.41275-1.0901-0.41275t-1.1007 0.41275q-0.38099 0.41275-0.44449 1.0901-0.0106 0.127-0.0106 0.45508 0 0.3175 0.0106 0.43392 0.0635 0.67733 0.44449 1.0901 0.39159 0.41275 1.1007 0.41275t1.0901-0.41275q0.39158-0.41275 0.45508-1.0901 0.0212-0.23283 0.0212-0.43392 0-0.20108-0.0212-0.45508z"/>
    <path d="m112.96 57.534q0.0953-0.254 0.35983-0.254h0.34925q0.10583 0 0.17992 0.07408 0.0741 0.07408 0.0741 0.17992l-0.0106 0.08467-1.6192 4.8683q-0.0953 0.29633-0.3175 0.29633h-0.32808q-0.127 0-0.20108-0.07408-0.0741-0.08467-0.127-0.22225l-1.2594-3.5137-1.2594 3.5137q-0.0529 0.13758-0.127 0.22225-0.0741 0.07408-0.20108 0.07408h-0.32808q-0.22225 0-0.3175-0.29633l-1.6192-4.8683-0.0106-0.08467q0-0.10583 0.0741-0.17992 0.0741-0.07408 0.17992-0.07408h0.34925q0.26458 0 0.35983 0.254l1.1853 3.5348 1.27-3.5348q0.0953-0.254 0.32808-0.254h0.23283q0.23283 0 0.32808 0.254l1.27 3.5348z"/>
    <path d="m116.07 62.497q0 0.11642-0.0847 0.20108-0.0847 0.08467-0.20108 0.08467h-0.39159q-0.11641 0-0.20108-0.08467-0.0847-0.08467-0.0847-0.20108v-6.9426q0-0.11642 0.0847-0.20108 0.0847-0.08467 0.20108-0.08467h0.39159q0.11641 0 0.20108 0.08467 0.0847 0.08467 0.0847 0.20108z"/>
    <path d="m119.83 57.174q1.1324 0 1.7886 0.71966 0.65616 0.71966 0.65616 1.9579v0.28575q0 0.11642-0.0847 0.20108-0.0847 0.08467-0.20109 0.08467h-3.6406v0.0635q0.0212 0.6985 0.42333 1.1007 0.41275 0.39158 1.0583 0.39158 0.52916 0 0.81491-0.13758 0.29634-0.13758 0.52917-0.39158 0.0847-0.08467 0.14817-0.11642 0.0741-0.03175 0.19049-0.03175h0.3175q0.127 0 0.21167 0.08467 0.0847 0.08467 0.0741 0.20108-0.0423 0.28575-0.3175 0.59266-0.26458 0.29633-0.77258 0.508-0.49741 0.20108-1.1959 0.20108-0.67733 0-1.2065-0.30692-0.52916-0.3175-0.84666-0.86783-0.30692-0.55033-0.37042-1.2382-0.0212-0.3175-0.0212-0.48683t0.0212-0.48683q0.0635-0.65616 0.37042-1.1853 0.3175-0.52916 0.83608-0.83608 0.52917-0.30692 1.2171-0.30692zm1.4922 2.3601v-0.03175q0-0.64558-0.41275-1.0266-0.40217-0.39158-1.0795-0.39158-0.61383 0-1.0478 0.39158-0.42333 0.39158-0.43391 1.0266v0.03175z"/>
    <path d="m127.33 55.554q0-0.11642 0.0847-0.20108 0.0847-0.08467 0.20108-0.08467h0.39158q0.11642 0 0.20108 0.08467 0.0847 0.08467 0.0847 0.20108v6.9426q0 0.11642-0.0847 0.20108-0.0847 0.08467-0.20108 0.08467h-0.39158q-0.11642 0-0.20108-0.08467-0.0847-0.08467-0.0847-0.20108v-0.32808q-0.53975 0.71966-1.6404 0.71966-0.65617 0-1.1959-0.30692-0.52917-0.30692-0.85725-0.87841-0.3175-0.5715-0.34925-1.3335l-0.0106-0.34925 0.0106-0.33867q0.0318-0.762 0.34925-1.3229 0.32808-0.5715 0.85725-0.87841 0.52916-0.30692 1.1959-0.30692 0.59266 0 0.99483 0.21167 0.41275 0.20108 0.64558 0.508zm0 4.0957q-0.0317-0.74083-0.4445-1.1536-0.41275-0.41275-1.0901-0.41275-0.68791 0-1.1007 0.4445-0.40217 0.4445-0.4445 1.2065l-0.0106 0.29633 0.0106 0.29633q0.0423 0.762 0.4445 1.2065 0.41275 0.4445 1.1007 0.4445 0.65617 0 1.0795-0.40216 0.42333-0.41275 0.45508-1.0901 0.0106-0.10583 0.0106-0.42333 0-0.30692-0.0106-0.41275z"/>
    <path d="m132.02 57.174q0.59266 0 0.99483 0.21167 0.41275 0.20108 0.64558 0.508v-0.32808q0-0.11642 0.0847-0.20108 0.0847-0.08467 0.20108-0.08467h0.39158q0.11642 0 0.20108 0.08467 0.0847 0.08467 0.0847 0.20108v5.1435q0 1.1218-0.635 1.7568-0.63499 0.64558-1.8627 0.64558-0.79374 0-1.3335-0.24342t-0.80433-0.60325q-0.254-0.35983-0.27517-0.73025-0.0106-0.11642 0.0741-0.20108 0.0952-0.08467 0.21167-0.08467h0.3175q0.127 0 0.20108 0.0635 0.0741 0.0635 0.14817 0.22225 0.10583 0.24342 0.40216 0.45508 0.29634 0.21167 0.9525 0.21167 1.6404 0 1.6404-1.3652v-0.66675q-0.53975 0.71966-1.6404 0.71966-0.65616 0-1.1959-0.30692-0.52917-0.30692-0.85725-0.86783-0.3175-0.5715-0.34925-1.3335l-0.0106-0.34925 0.0106-0.34925q0.0317-0.762 0.34925-1.3229 0.32808-0.5715 0.85725-0.87841 0.52916-0.30692 1.1959-0.30692zm0.10583 0.91016q-0.68791 0-1.1007 0.4445-0.40217 0.4445-0.4445 1.2065l-0.0106 0.29633 0.0106 0.29633q0.0423 0.762 0.4445 1.2065 0.41275 0.4445 1.1007 0.4445 0.67733 0 1.0901-0.41275 0.41275-0.42333 0.4445-1.1536 0.0106-0.10583 0.0106-0.381t-0.0106-0.381q-0.0318-0.74083-0.4445-1.1536-0.41275-0.41275-1.0901-0.41275z"/>
    <path d="m138.38 57.174q1.1324 0 1.7886 0.71966 0.65617 0.71966 0.65617 1.9579v0.28575q0 0.11642-0.0847 0.20108-0.0847 0.08467-0.20108 0.08467h-3.6406v0.0635q0.0212 0.6985 0.42333 1.1007 0.41275 0.39158 1.0583 0.39158 0.52916 0 0.81491-0.13758 0.29633-0.13758 0.52917-0.39158 0.0847-0.08467 0.14816-0.11642 0.0741-0.03175 0.1905-0.03175h0.3175q0.127 0 0.21167 0.08467 0.0847 0.08467 0.0741 0.20108-0.0423 0.28575-0.3175 0.59266-0.26458 0.29633-0.77258 0.508-0.49741 0.20108-1.1959 0.20108-0.67733 0-1.2065-0.30692-0.52916-0.3175-0.84666-0.86783-0.30692-0.55033-0.37042-1.2382-0.0212-0.3175-0.0212-0.48683t0.0212-0.48683q0.0635-0.65616 0.37042-1.1853 0.3175-0.52916 0.83608-0.83608 0.52916-0.30692 1.2171-0.30692zm1.4922 2.3601v-0.03175q0-0.64558-0.41275-1.0266-0.40216-0.39158-1.0795-0.39158-0.61383 0-1.0478 0.39158-0.42333 0.39158-0.43391 1.0266v0.03175z"/>
   </g>
   <g transform="translate(58.33 87.664)" style="shape-inside:url(#rect1454);white-space:pre" aria-label="Food Engineering">
    <path d="m107.2 42.145q0.11642 0 0.20108 0.08467 0.0847 0.08467 0.0847 0.20108v0.381q0 0.11642-0.0847 0.20108-0.0847 0.08467-0.20108 0.08467h-3.4819v2.4447h3.2702q0.11641 0 0.20108 0.08467 0.0847 0.08467 0.0847 0.20108v0.381q0 0.11642-0.0847 0.20108-0.0847 0.08467-0.20108 0.08467h-3.2702v2.7728q0 0.11642-0.0847 0.20108-0.0847 0.08467-0.20108 0.08467h-0.43392q-0.11641 0-0.20108-0.08467-0.0847-0.08467-0.0847-0.20108v-6.8368q0-0.11642 0.0847-0.20108 0.0847-0.08467 0.20108-0.08467z"/>
    <path d="m113.46 46.305q0.0212 0.23283 0.0212 0.508 0 0.254-0.0212 0.48683-0.0952 1.0795-0.75141 1.7251-0.64558 0.635-1.7568 0.635t-1.7674-0.635q-0.64558-0.64558-0.74083-1.7251-0.0106-0.11642-0.0106-0.48683 0-0.39158 0.0106-0.508 0.0847-1.0795 0.74083-1.7145 0.65616-0.64558 1.7674-0.64558t1.7674 0.64558q0.65616 0.635 0.74083 1.7145zm-0.96308 0.05292q-0.0635-0.67733-0.45508-1.0901-0.381-0.41275-1.0901-0.41275t-1.1007 0.41275q-0.381 0.41275-0.4445 1.0901-0.0106 0.127-0.0106 0.45508 0 0.3175 0.0106 0.43392 0.0635 0.67733 0.4445 1.0901 0.39158 0.41275 1.1007 0.41275t1.0901-0.41275q0.39158-0.41275 0.45508-1.0901 0.0212-0.23283 0.0212-0.43392 0-0.20108-0.0212-0.45508z"/>
    <path d="m119.57 46.305q0.0212 0.23283 0.0212 0.508 0 0.254-0.0212 0.48683-0.0953 1.0795-0.75141 1.7251-0.64558 0.635-1.7568 0.635t-1.7674-0.635q-0.64558-0.64558-0.74083-1.7251-0.0106-0.11642-0.0106-0.48683 0-0.39158 0.0106-0.508 0.0847-1.0795 0.74083-1.7145 0.65616-0.64558 1.7674-0.64558t1.7674 0.64558q0.65616 0.635 0.74083 1.7145zm-0.96308 0.05292q-0.0635-0.67733-0.45508-1.0901-0.381-0.41275-1.0901-0.41275t-1.1007 0.41275q-0.381 0.41275-0.4445 1.0901-0.0106 0.127-0.0106 0.45508 0 0.3175 0.0106 0.43392 0.0635 0.67733 0.4445 1.0901 0.39158 0.41275 1.1007 0.41275t1.0901-0.41275q0.39158-0.41275 0.45508-1.0901 0.0212-0.23283 0.0212-0.43392 0-0.20108-0.0212-0.45508z"/>
    <path d="m124.69 42.325q0-0.11642 0.0847-0.20108 0.0847-0.08467 0.20108-0.08467h0.39159q0.11641 0 0.20108 0.08467 0.0847 0.08467 0.0847 0.20108v6.9426q0 0.11642-0.0847 0.20108-0.0847 0.08467-0.20108 0.08467h-0.39159q-0.11641 0-0.20108-0.08467-0.0847-0.08467-0.0847-0.20108v-0.32808q-0.53975 0.71966-1.6404 0.71966-0.65616 0-1.1959-0.30692-0.52916-0.30692-0.85725-0.87841-0.3175-0.5715-0.34925-1.3335l-0.0106-0.34925 0.0106-0.33867q0.0318-0.762 0.34925-1.3229 0.32809-0.5715 0.85725-0.87841 0.52917-0.30692 1.1959-0.30692 0.59267 0 0.99483 0.21167 0.41275 0.20108 0.64559 0.508zm0 4.0957q-0.0318-0.74083-0.4445-1.1536-0.41275-0.41275-1.0901-0.41275-0.68792 0-1.1007 0.4445-0.40216 0.4445-0.44449 1.2065l-0.0106 0.29633 0.0106 0.29633q0.0423 0.762 0.44449 1.2065 0.41275 0.4445 1.1007 0.4445 0.65616 0 1.0795-0.40216 0.42334-0.41275 0.45509-1.0901 0.0106-0.10583 0.0106-0.42333 0-0.30692-0.0106-0.41275z"/>
    <path d="m86.496 59.513h3.2385q0.11642 0 0.20108-0.08467 0.08467-0.08467 0.08467-0.20108v-0.381q0-0.11642-0.08467-0.20108-0.08467-0.08467-0.20108-0.08467h-3.2385v-2.2331h3.4713q0.11642 0 0.20108-0.08467 0.08467-0.08467 0.08467-0.20108v-0.381q0-0.11642-0.08467-0.20108-0.08467-0.08467-0.20108-0.08467h-4.191q-0.11642 0-0.20108 0.08467-0.08467 0.08467-0.08467 0.20108v6.8368q0 0.11642 0.08467 0.20108 0.08467 0.08467 0.20108 0.08467h4.2757q0.11642 0 0.20108-0.08467 0.08467-0.08467 0.08467-0.20108v-0.381q0-0.11642-0.08467-0.20108-0.08467-0.08467-0.20108-0.08467h-3.556z"/>
    <path d="m96.529 62.497q0 0.11642-0.08467 0.20108-0.08467 0.08467-0.20108 0.08467h-0.39158q-0.11642 0-0.20108-0.08467-0.08467-0.08467-0.08467-0.20108v-2.794q0-0.79375-0.39158-1.2065-0.39158-0.41275-1.0901-0.41275-0.68792 0-1.0901 0.41275-0.39158 0.41275-0.39158 1.2065v2.794q0 0.11642-0.08467 0.20108-0.08467 0.08467-0.20108 0.08467h-0.39158q-0.11642 0-0.20108-0.08467-0.08467-0.08467-0.08467-0.20108v-4.9318q0-0.11642 0.08467-0.20108 0.08467-0.08467 0.20108-0.08467h0.39158q0.11642 0 0.20108 0.08467 0.08467 0.08467 0.08467 0.20108v0.32808q0.23283-0.30692 0.635-0.508 0.41275-0.21167 1.0054-0.21167 0.66675 0 1.1853 0.28575t0.80433 0.8255q0.29633 0.52916 0.29633 1.2594z"/>
    <path d="m100.2 57.174q0.59266 0 0.99483 0.21167 0.41275 0.20108 0.64558 0.508v-0.32808q0-0.11642 0.0847-0.20108 0.0847-0.08467 0.20109-0.08467h0.39158q0.11642 0 0.20108 0.08467 0.0847 0.08467 0.0847 0.20108v5.1435q0 1.1218-0.635 1.7568-0.635 0.64558-1.8627 0.64558-0.79375 0-1.3335-0.24342-0.53975-0.24342-0.80433-0.60325-0.254-0.35983-0.27517-0.73025-0.01058-0.11642 0.07408-0.20108 0.09525-0.08467 0.21167-0.08467h0.3175q0.127 0 0.20108 0.0635 0.07408 0.0635 0.14817 0.22225 0.10583 0.24342 0.40216 0.45508 0.29633 0.21167 0.9525 0.21167 1.6404 0 1.6404-1.3652v-0.66675q-0.53975 0.71966-1.6404 0.71966-0.65617 0-1.1959-0.30692-0.52916-0.30692-0.85725-0.86783-0.3175-0.5715-0.34925-1.3335l-0.01058-0.34925 0.01058-0.34925q0.03175-0.762 0.34925-1.3229 0.32808-0.5715 0.85725-0.87841 0.52916-0.30692 1.1959-0.30692zm0.10583 0.91016q-0.68792 0-1.1007 0.4445-0.40216 0.4445-0.4445 1.2065l-0.01058 0.29633 0.01058 0.29633q0.04233 0.762 0.4445 1.2065 0.41275 0.4445 1.1007 0.4445 0.67733 0 1.0901-0.41275 0.41275-0.42333 0.4445-1.1536 0.0106-0.10583 0.0106-0.381t-0.0106-0.381q-0.0318-0.74083-0.4445-1.1536-0.41275-0.41275-1.0901-0.41275z"/>
    <path d="m105.46 56.158q0 0.11642-0.0847 0.20108-0.0847 0.08467-0.20108 0.08467h-0.60325q-0.11641 0-0.20108-0.08467-0.0847-0.08467-0.0847-0.20108v-0.60325q0-0.11642 0.0847-0.20108 0.0847-0.08467 0.20108-0.08467h0.60325q0.11642 0 0.20108 0.08467 0.0847 0.08467 0.0847 0.20108zm-0.10583 6.3394q0 0.11642-0.0847 0.20108-0.0847 0.08467-0.20108 0.08467h-0.39158q-0.11642 0-0.20109-0.08467-0.0847-0.08467-0.0847-0.20108v-4.9318q0-0.11642 0.0847-0.20108 0.0847-0.08467 0.20109-0.08467h0.39158q0.11641 0 0.20108 0.08467 0.0847 0.08467 0.0847 0.20108z"/>
    <path d="m111.83 62.497q0 0.11642-0.0847 0.20108-0.0847 0.08467-0.20108 0.08467h-0.39158q-0.11642 0-0.20108-0.08467-0.0847-0.08467-0.0847-0.20108v-2.794q0-0.79375-0.39158-1.2065-0.39158-0.41275-1.0901-0.41275-0.68792 0-1.0901 0.41275-0.39158 0.41275-0.39158 1.2065v2.794q0 0.11642-0.0847 0.20108-0.0847 0.08467-0.20108 0.08467h-0.39159q-0.11641 0-0.20108-0.08467-0.0847-0.08467-0.0847-0.20108v-4.9318q0-0.11642 0.0847-0.20108 0.0847-0.08467 0.20108-0.08467h0.39159q0.11641 0 0.20108 0.08467 0.0847 0.08467 0.0847 0.20108v0.32808q0.23283-0.30692 0.63499-0.508 0.41275-0.21167 1.0054-0.21167 0.66674 0 1.1853 0.28575 0.51858 0.28575 0.80433 0.8255 0.29633 0.52916 0.29633 1.2594z"/>
    <path d="m115.54 57.174q1.1324 0 1.7886 0.71966 0.65617 0.71966 0.65617 1.9579v0.28575q0 0.11642-0.0847 0.20108-0.0847 0.08467-0.20108 0.08467h-3.6406v0.0635q0.0212 0.6985 0.42333 1.1007 0.41275 0.39158 1.0583 0.39158 0.52916 0 0.81491-0.13758 0.29633-0.13758 0.52917-0.39158 0.0847-0.08467 0.14816-0.11642 0.0741-0.03175 0.1905-0.03175h0.3175q0.127 0 0.21167 0.08467 0.0847 0.08467 0.0741 0.20108-0.0423 0.28575-0.3175 0.59266-0.26458 0.29633-0.77258 0.508-0.49742 0.20108-1.1959 0.20108-0.67733 0-1.2065-0.30692-0.52916-0.3175-0.84666-0.86783-0.30692-0.55033-0.37042-1.2382-0.0212-0.3175-0.0212-0.48683t0.0212-0.48683q0.0635-0.65616 0.37042-1.1853 0.3175-0.52916 0.83608-0.83608 0.52916-0.30692 1.2171-0.30692zm1.4922 2.3601v-0.03175q0-0.64558-0.41275-1.0266-0.40216-0.39158-1.0795-0.39158-0.61383 0-1.0478 0.39158-0.42333 0.39158-0.43391 1.0266v0.03175z"/>
    <path d="m121.43 57.174q1.1324 0 1.7886 0.71966 0.65617 0.71966 0.65617 1.9579v0.28575q0 0.11642-0.0847 0.20108-0.0847 0.08467-0.20108 0.08467h-3.6406v0.0635q0.0212 0.6985 0.42333 1.1007 0.41275 0.39158 1.0583 0.39158 0.52916 0 0.81491-0.13758 0.29633-0.13758 0.52917-0.39158 0.0847-0.08467 0.14816-0.11642 0.0741-0.03175 0.1905-0.03175h0.3175q0.127 0 0.21167 0.08467 0.0847 0.08467 0.0741 0.20108-0.0423 0.28575-0.3175 0.59266-0.26458 0.29633-0.77258 0.508-0.49742 0.20108-1.1959 0.20108-0.67733 0-1.2065-0.30692-0.52916-0.3175-0.84666-0.86783-0.30692-0.55033-0.37042-1.2382-0.0212-0.3175-0.0212-0.48683t0.0212-0.48683q0.0635-0.65616 0.37042-1.1853 0.3175-0.52916 0.83608-0.83608 0.52916-0.30692 1.2171-0.30692zm1.4922 2.3601v-0.03175q0-0.64558-0.41275-1.0266-0.40216-0.39158-1.0795-0.39158-0.61383 0-1.0478 0.39158-0.42333 0.39158-0.43391 1.0266v0.03175z"/>
    <path d="m127.95 57.28q0.11642 0 0.20108 0.08467 0.0847 0.08467 0.0847 0.20108v0.33867q0 0.11642-0.0847 0.20108-0.0847 0.08467-0.20108 0.08467h-0.61383q-0.59266 0-0.91016 0.3175-0.30692 0.30692-0.30692 0.89958v3.0903q0 0.11642-0.0847 0.20108-0.0847 0.08467-0.20108 0.08467h-0.39158q-0.11642 0-0.20108-0.08467-0.0847-0.08467-0.0847-0.20108v-4.9318q0-0.11642 0.0847-0.20108 0.0847-0.08467 0.20108-0.08467h0.39158q0.11642 0 0.20108 0.08467 0.0847 0.08467 0.0847 0.20108v0.32808q0.21167-0.3175 0.508-0.46566t0.77258-0.14817z"/>
    <path d="m130.23 56.158q0 0.11642-0.0847 0.20108-0.0847 0.08467-0.20109 0.08467h-0.60324q-0.11642 0-0.20109-0.08467-0.0847-0.08467-0.0847-0.20108v-0.60325q0-0.11642 0.0847-0.20108 0.0847-0.08467 0.20109-0.08467h0.60324q0.11642 0 0.20109 0.08467 0.0847 0.08467 0.0847 0.20108zm-0.10583 6.3394q0 0.11642-0.0847 0.20108-0.0847 0.08467-0.20108 0.08467h-0.39158q-0.11642 0-0.20108-0.08467-0.0847-0.08467-0.0847-0.20108v-4.9318q0-0.11642 0.0847-0.20108 0.0847-0.08467 0.20108-0.08467h0.39158q0.11642 0 0.20108 0.08467 0.0847 0.08467 0.0847 0.20108z"/>
    <path d="m136.6 62.497q0 0.11642-0.0847 0.20108-0.0847 0.08467-0.20109 0.08467h-0.39158q-0.11642 0-0.20108-0.08467-0.0847-0.08467-0.0847-0.20108v-2.794q0-0.79375-0.39158-1.2065-0.39158-0.41275-1.0901-0.41275-0.68792 0-1.0901 0.41275-0.39158 0.41275-0.39158 1.2065v2.794q0 0.11642-0.0847 0.20108-0.0847 0.08467-0.20108 0.08467h-0.39158q-0.11642 0-0.20109-0.08467-0.0847-0.08467-0.0847-0.20108v-4.9318q0-0.11642 0.0847-0.20108 0.0847-0.08467 0.20109-0.08467h0.39158q0.11641 0 0.20108 0.08467 0.0847 0.08467 0.0847 0.20108v0.32808q0.23283-0.30692 0.635-0.508 0.41274-0.21167 1.0054-0.21167 0.66675 0 1.1853 0.28575t0.80433 0.8255q0.29633 0.52916 0.29633 1.2594z"/>
    <path d="m140.27 57.174q0.59266 0 0.99483 0.21167 0.41275 0.20108 0.64558 0.508v-0.32808q0-0.11642 0.0847-0.20108 0.0847-0.08467 0.20108-0.08467h0.39158q0.11642 0 0.20108 0.08467 0.0847 0.08467 0.0847 0.20108v5.1435q0 1.1218-0.635 1.7568-0.63499 0.64558-1.8627 0.64558-0.79375 0-1.3335-0.24342-0.53975-0.24342-0.80433-0.60325-0.254-0.35983-0.27517-0.73025-0.0106-0.11642 0.0741-0.20108 0.0952-0.08467 0.21167-0.08467h0.3175q0.127 0 0.20108 0.0635 0.0741 0.0635 0.14817 0.22225 0.10583 0.24342 0.40216 0.45508t0.9525 0.21167q1.6404 0 1.6404-1.3652v-0.66675q-0.53975 0.71966-1.6404 0.71966-0.65617 0-1.1959-0.30692-0.52917-0.30692-0.85725-0.86783-0.3175-0.5715-0.34925-1.3335l-0.0106-0.34925 0.0106-0.34925q0.0317-0.762 0.34925-1.3229 0.32808-0.5715 0.85725-0.87841 0.52916-0.30692 1.1959-0.30692zm0.10583 0.91016q-0.68791 0-1.1007 0.4445-0.40217 0.4445-0.4445 1.2065l-0.0106 0.29633 0.0106 0.29633q0.0423 0.762 0.4445 1.2065 0.41275 0.4445 1.1007 0.4445 0.67733 0 1.0901-0.41275 0.41275-0.42333 0.4445-1.1536 0.0106-0.10583 0.0106-0.381t-0.0106-0.381q-0.0317-0.74083-0.4445-1.1536-0.41275-0.41275-1.0901-0.41275z"/>
   </g>
  </g>
  <rect x="81.784" y="122.41" width="48.643" height="30.469" rx="1.1652" fill="#fc0" filter="url(#filter1536)"/>
  <g transform="translate(0 1.0691)" style="shape-inside:url(#rect1460);white-space:pre" aria-label="Society">
   <path d="m93.538 132.69q0.01058 0.0952-0.0635 0.16933-0.07408 0.0635-0.16933 0.0635h-0.43392q-0.127 0-0.1905-0.0423-0.0635-0.0529-0.13758-0.19049-0.16933-0.32809-0.59266-0.64559-0.41275-0.31749-1.1007-0.31749-0.635 0-1.0795 0.28574-0.43392 0.28575-0.43392 0.81492 0 0.35983 0.21167 0.59266 0.22225 0.22225 0.65616 0.39159 0.4445 0.15874 1.3335 0.39158 1.2065 0.3175 1.7039 0.78316 0.508 0.45508 0.508 1.2488 0 0.635-0.35983 1.1218-0.34925 0.48683-0.99483 0.762-0.64558 0.27516-1.4922 0.27516-0.78316 0-1.4287-0.29633-0.64558-0.29633-1.016-0.75141-0.37042-0.46567-0.39158-0.92075 0-0.0952 0.0635-0.15875 0.07408-0.0741 0.16933-0.0741h0.43392q0.11642 0 0.1905 0.0529 0.07408 0.0423 0.13758 0.17992 0.16933 0.381 0.61383 0.6985 0.45508 0.3175 1.2277 0.3175t1.3017-0.32809q0.53975-0.33866 0.53975-0.87841 0-0.34925-0.28575-0.58208-0.27517-0.24342-0.762-0.40217-0.48683-0.16933-1.4287-0.41274-1.0266-0.26459-1.4817-0.762-0.45508-0.508-0.45508-1.2488 0-0.55033 0.28575-1.016 0.28575-0.46566 0.85725-0.75141t1.3758-0.28575q0.80433 0 1.4076 0.3175 0.60325 0.30691 0.93133 0.76199 0.32808 0.45509 0.34925 0.83609z"/>
   <path d="m99.761 135.04q0.02117 0.23283 0.02117 0.508 0 0.254-0.02117 0.48683-0.09525 1.0795-0.75141 1.7251-0.64558 0.63499-1.7568 0.63499-1.1112 0-1.7674-0.63499-0.64558-0.64559-0.74083-1.7251-0.01058-0.11642-0.01058-0.48683 0-0.39159 0.01058-0.508 0.08467-1.0795 0.74083-1.7145 0.65616-0.64558 1.7674-0.64558 1.1112 0 1.7674 0.64558 0.65616 0.635 0.74083 1.7145zm-0.96308 0.0529q-0.0635-0.67733-0.45508-1.0901-0.381-0.41274-1.0901-0.41274t-1.1007 0.41274q-0.381 0.41275-0.4445 1.0901-0.01058 0.127-0.01058 0.45509 0 0.3175 0.01058 0.43391 0.0635 0.67733 0.4445 1.0901 0.39158 0.41275 1.1007 0.41275t1.0901-0.41275q0.39158-0.41275 0.45508-1.0901 0.02117-0.23283 0.02117-0.43391 0-0.20109-0.02117-0.45509z"/>
   <path d="m103.33 137.48q1.0583 0 1.4288-0.8255 0.0741-0.15875 0.14816-0.22225 0.0741-0.0635 0.20109-0.0635h0.3175q0.11641 0 0.20108 0.0847 0.0847 0.0741 0.0847 0.17992 0 0.35983-0.28574 0.77258-0.28575 0.41275-0.8255 0.69849-0.53975 0.28575-1.27 0.28575-0.75141 0-1.3017-0.3175-0.55034-0.31749-0.84667-0.86783-0.29633-0.56091-0.32808-1.2488-0.0106-0.127-0.0106-0.48684 0-0.254 0.0106-0.35983 0.0952-1.0795 0.73025-1.7568 0.635-0.67733 1.7462-0.67733 0.73025 0 1.2594 0.28575 0.53975 0.27517 0.81492 0.68792 0.28575 0.40216 0.30691 0.76199 0.0106 0.11642-0.0847 0.20109-0.0847 0.0847-0.20108 0.0847h-0.3175q-0.127 0-0.20109-0.0635-0.0741-0.0635-0.14816-0.22225-0.37042-0.82549-1.4288-0.82549-0.58208 0-1.016 0.39158-0.43392 0.39158-0.49742 1.1853-0.0106 0.11641-0.0106 0.381 0 0.24341 0.0106 0.35983 0.0741 0.79375 0.49742 1.1853 0.43391 0.39158 1.016 0.39158z"/>
   <path d="m108.05 131.66q0 0.11641-0.0847 0.20108-0.0847 0.0847-0.20108 0.0847h-0.60325q-0.11642 0-0.20108-0.0847-0.0847-0.0847-0.0847-0.20108v-0.60325q0-0.11642 0.0847-0.20109 0.0847-0.0847 0.20108-0.0847h0.60325q0.11641 0 0.20108 0.0847 0.0847 0.0847 0.0847 0.20109zm-0.10584 6.3394q0 0.11642-0.0847 0.20108-0.0847 0.0847-0.20109 0.0847h-0.39158q-0.11641 0-0.20108-0.0847-0.0847-0.0847-0.0847-0.20108v-4.9318q0-0.11641 0.0847-0.20108 0.0847-0.0847 0.20108-0.0847h0.39158q0.11642 0 0.20109 0.0847 0.0847 0.0847 0.0847 0.20108z"/>
   <path d="m111.7 132.68q1.1324 0 1.7886 0.71967 0.65617 0.71966 0.65617 1.9579v0.28575q0 0.11641-0.0847 0.20108-0.0847 0.0847-0.20108 0.0847h-3.6407v0.0635q0.0212 0.6985 0.42334 1.1007 0.41275 0.39158 1.0583 0.39158 0.52916 0 0.81491-0.13758 0.29633-0.13759 0.52917-0.39158 0.0847-0.0847 0.14816-0.11642 0.0741-0.0318 0.1905-0.0318h0.3175q0.127 0 0.21167 0.0847 0.0847 0.0847 0.0741 0.20108-0.0423 0.28575-0.3175 0.59266-0.26458 0.29634-0.77258 0.508-0.49742 0.20108-1.1959 0.20108-0.67733 0-1.2065-0.30691-0.52916-0.3175-0.84666-0.86783-0.30692-0.55033-0.37042-1.2382-0.0212-0.3175-0.0212-0.48683t0.0212-0.48683q0.0635-0.65617 0.37042-1.1853 0.3175-0.52917 0.83608-0.83608 0.52916-0.30692 1.2171-0.30692zm1.4922 2.3601v-0.0318q0-0.64558-0.41275-1.0266-0.40216-0.39158-1.0795-0.39158-0.61383 0-1.0478 0.39158-0.42333 0.39158-0.43392 1.0266v0.0318z"/>
   <path d="m116.86 136.44q0 0.45509 0.17992 0.6985 0.19049 0.24342 0.70908 0.24342h0.56091q0.11642 0 0.20108 0.0847 0.0847 0.0847 0.0847 0.20109v0.33866q0 0.11642-0.0847 0.20108-0.0847 0.0847-0.20108 0.0847h-0.66675q-0.89958 0-1.3229-0.46566-0.42333-0.47625-0.42333-1.3864v-2.7411h-0.78317q-0.11641 0-0.20108-0.0847-0.0847-0.0847-0.0847-0.20108v-0.33867q0-0.11641 0.0847-0.20108 0.0847-0.0847 0.20108-0.0847h0.78317v-1.7251q0-0.11642 0.0847-0.20109 0.0847-0.0847 0.20108-0.0847h0.39158q0.11642 0 0.20108 0.0847 0.0847 0.0847 0.0847 0.20109v1.7251h1.3441q0.11641 0 0.20108 0.0847 0.0847 0.0847 0.0847 0.20108v0.33867q0 0.11642-0.0847 0.20108-0.0847 0.0847-0.20108 0.0847h-1.3441z"/>
   <path d="m121.28 140.04q-0.0953 0.254-0.30691 0.254h-0.43392q-0.10583 0-0.17992-0.0741-0.0741-0.0741-0.0741-0.17991 0-0.0423 0.0106-0.0741l1.016-2.2119-2.0955-4.6461q-0.0106-0.0317-0.0106-0.0741 0-0.10583 0.0741-0.17991 0.0741-0.0741 0.17991-0.0741h0.43392q0.21167 0 0.30692 0.25399l1.6298 3.5983 1.651-3.5983q0.0952-0.25399 0.30691-0.25399h0.43392q0.10583 0 0.17991 0.0741 0.0741 0.0741 0.0741 0.17991 0 0.0423-0.0106 0.0741z"/>
  </g>
  <g fill="#fff" stroke="#fff">
   <path d="m105.62 121.72-0.0869-32.52" marker-start="url(#marker1558)" stroke-width="2.8424"/>
   <path d="m104.23 153.33-0.41152 37.202" marker-start="url(#marker1690)" stroke-width="3.0402"/>
   <path d="m74.522 137.08 12.124-0.0666" marker-start="url(#marker1862)" stroke-width="2.1977"/>
   <path d="m139.62 136.57-12.124-0.0469" marker-start="url(#marker1902)" stroke-width="2.1977"/>
  </g>
  <g fill="#ff0">
   <g transform="translate(-75.905 41.694)" style="shape-inside:url(#rect2010);white-space:pre" aria-label="studied by">
    <path d="m88.026 47.374q-0.65616-0.11642-0.99483-0.46566-0.33866-0.34925-0.33866-0.889 0-0.22225 0.04233-0.42333 0.15875-0.762 0.8255-1.2065 0.67733-0.4445 1.8944-0.4445 0.66675 0 1.2277 0.22225 0.56092 0.21167 0.86783 0.56092 0.30692 0.33867 0.26458 0.6985-0.01058 0.11642-0.11642 0.20108-0.10583 0.08467-0.22225 0.08467h-1.2594q-0.07408 0-0.127-0.02117-0.05292-0.03175-0.127-0.09525-0.127-0.10583-0.27517-0.15875-0.13758-0.0635-0.43392-0.0635-0.28575 0-0.46566 0.09525-0.16933 0.09525-0.16933 0.29633 0 0.127 0.14817 0.17992 0.15875 0.05292 0.70908 0.14817l0.508 0.08467q0.75141 0.127 1.1218 0.508 0.37042 0.37042 0.37042 0.91016 0 0.21167-0.04233 0.381-0.15875 0.77258-0.87841 1.2277-0.70908 0.45508-2.0637 0.45508-0.70908 0-1.2806-0.23283-0.56092-0.23283-0.86783-0.58208-0.29633-0.35983-0.254-0.6985 0.01058-0.11642 0.11642-0.20108 0.11642-0.08467 0.23283-0.08467h1.3123q0.07408 0 0.11642 0.03175 0.04233 0.02117 0.09525 0.08467 0.09525 0.11642 0.23283 0.1905 0.14817 0.0635 0.49742 0.0635 0.32808 0 0.5715-0.08467 0.24342-0.09525 0.28575-0.24342 0.02117-0.127-0.05292-0.1905-0.07408-0.07408-0.254-0.11642-0.17992-0.04233-0.61383-0.11642z"/>
    <path d="m94.979 47.405q-0.02117 0.127-0.02117 0.17992 0 0.32808 0.35983 0.32808h0.84666q0.11642 0 0.17992 0.08467 0.07408 0.08467 0.05292 0.20108l-0.23283 1.0689q-0.02117 0.11642-0.127 0.20108-0.09525 0.08467-0.21167 0.08467h-0.89958q-0.49742 0-0.94191-0.20108-0.43392-0.20108-0.70908-0.58208-0.26458-0.381-0.26458-0.889 0-0.21167 0.04233-0.41275l0.381-1.778h-0.78316q-0.11642 0-0.17992-0.08467t-0.04233-0.20108l0.22225-1.0689q0.02117-0.11642 0.127-0.20108 0.10583-0.08467 0.22225-0.08467h0.78316l0.37042-1.7251q0.02117-0.11642 0.11642-0.20108 0.10583-0.08467 0.22225-0.08467h1.3335q0.11642 0 0.17992 0.08467 0.07408 0.08467 0.05292 0.20108l-0.37042 1.7251h1.1959q0.11642 0 0.17992 0.08467t0.04233 0.20108l-0.22225 1.0689q-0.02117 0.11642-0.127 0.20108-0.10583 0.08467-0.22225 0.08467h-1.1959z"/>
    <path d="m98.037 44.336q0.02117-0.11642 0.127-0.20108 0.10583-0.08467 0.22225-0.08467h1.3335q0.11642 0 0.17992 0.08467 0.0635 0.08467 0.04233 0.20108l-0.56092 2.6776q-0.04233 0.16933-0.04233 0.35983 0 0.64558 0.68792 0.64558 0.84666 0 1.0795-1.0054l0.56091-2.6776q0.0212-0.11642 0.127-0.20108 0.10583-0.08467 0.22225-0.08467h1.3335q0.11641 0 0.17991 0.08467t0.0423 0.20108l-1.0478 4.9318q-0.0212 0.11642-0.127 0.20108-0.0953 0.08467-0.21167 0.08467h-1.2277q-0.11642 0-0.1905-0.08467-0.0635-0.08467-0.0423-0.20108l0.0529-0.24342q-0.29633 0.29633-0.62441 0.46566-0.3175 0.16933-0.89958 0.16933-0.80433 0-1.3547-0.45508-0.55033-0.45508-0.55033-1.3229 0-0.30692 0.07408-0.635z"/>
    <path d="m108.82 42.325q0.0212-0.11642 0.11641-0.20108 0.10584-0.08467 0.22225-0.08467h1.3335q0.11641 0 0.17991 0.08467 0.0741 0.08467 0.0529 0.20108l-1.4817 6.9426q-0.0212 0.11642-0.127 0.20108-0.0952 0.08467-0.21167 0.08467h-1.2806q-0.11641 0-0.1905-0.08467-0.0635-0.08467-0.0423-0.20108l0.0529-0.24342q-0.0423 0.04233-0.21167 0.23283-0.16933 0.1905-0.49741 0.29633-0.3175 0.10583-0.79375 0.10583-0.49742 0-0.9525-0.22225-0.45508-0.23283-0.75141-0.67733-0.28575-0.45508-0.28575-1.0901 0-0.26458 0.0423-0.48683 0.0529-0.34925 0.17992-0.85725 0.3175-1.2382 0.98424-1.8097 0.66675-0.5715 1.7886-0.5715 0.55033 0 0.91017 0.20108 0.35983 0.1905 0.47624 0.43392zm-2.9104 4.7731q-0.0106 0.0635-0.0106 0.1905 0 0.73025 0.76199 0.73025 0.43392 0 0.70908-0.24342 0.28575-0.24342 0.41275-0.60325 0.0635-0.16933 0.10584-0.42333 0.0529-0.254 0.0529-0.41275 0-0.32808-0.17991-0.53975-0.17992-0.21167-0.58209-0.21167-0.45508 0-0.74083 0.254-0.27516 0.254-0.40216 0.66675-0.0952 0.27516-0.127 0.59266z"/>
    <path d="m113.68 43.183q-0.0212 0.11642-0.127 0.20108-0.0953 0.08467-0.21166 0.08467h-1.3335q-0.11642 0-0.1905-0.08467-0.0635-0.08467-0.0423-0.20108l0.23283-1.0689q0.0212-0.11642 0.127-0.20108 0.10583-0.08467 0.22225-0.08467h1.3335q0.11641 0 0.17991 0.08467t0.0423 0.20108zm-1.2912 6.0854q-0.0212 0.11642-0.127 0.20108-0.0952 0.08467-0.21167 0.08467h-1.3335q-0.11642 0-0.1905-0.08467-0.0635-0.08467-0.0423-0.20108l1.0477-4.9318q0.0212-0.11642 0.127-0.20108 0.10583-0.08467 0.22225-0.08467h1.3335q0.11641 0 0.17991 0.08467t0.0423 0.20108z"/>
    <path d="m115.66 47.405q-0.0212 0.07408-0.0212 0.21167 0 0.32808 0.23283 0.47625 0.23283 0.13758 0.56092 0.13758 0.53974 0 0.86783-0.24342 0.13758-0.09525 0.1905-0.11642 0.0635-0.03175 0.19049-0.03175h1.3758q0.10584 0 0.14817 0.0635 0.0529 0.0635 0.0318 0.16933-0.0423 0.23283-0.37042 0.61383-0.32808 0.37042-0.99483 0.67733-0.65616 0.29633-1.6404 0.29633-0.69849 0-1.2488-0.27517-0.53974-0.28575-0.84666-0.80433-0.30692-0.51858-0.30692-1.1959 0-0.34925 0.0741-0.68791 0.27516-1.2912 1.1007-2.0214 0.8255-0.73025 2.2331-0.73025 0.77258 0 1.3123 0.32808 0.53974 0.32808 0.81491 0.85725t0.27517 1.143q0 0.32808-0.0529 0.55033l-0.0635 0.29633q-0.0212 0.11642-0.127 0.20108-0.0952 0.08467-0.21167 0.08467zm2.1484-1.1747q0.0317-0.34925-0.16933-0.60325-0.1905-0.254-0.60325-0.254t-0.71966 0.254q-0.29633 0.24342-0.41275 0.60325z"/>
    <path d="m125.08 42.325q0.0212-0.11642 0.11642-0.20108 0.10583-0.08467 0.22225-0.08467h1.3335q0.11641 0 0.17991 0.08467 0.0741 0.08467 0.0529 0.20108l-1.4817 6.9426q-0.0212 0.11642-0.127 0.20108-0.0953 0.08467-0.21167 0.08467h-1.2806q-0.11641 0-0.1905-0.08467-0.0635-0.08467-0.0423-0.20108l0.0529-0.24342q-0.0423 0.04233-0.21167 0.23283-0.16933 0.1905-0.49742 0.29633-0.31749 0.10583-0.79374 0.10583-0.49742 0-0.9525-0.22225-0.45508-0.23283-0.75141-0.67733-0.28575-0.45508-0.28575-1.0901 0-0.26458 0.0423-0.48683 0.0529-0.34925 0.17992-0.85725 0.31749-1.2382 0.98424-1.8097t1.7886-0.5715q0.55033 0 0.91016 0.20108 0.35984 0.1905 0.47625 0.43392zm-2.9104 4.7731q-0.0106 0.0635-0.0106 0.1905 0 0.73025 0.762 0.73025 0.43392 0 0.70908-0.24342 0.28575-0.24342 0.41275-0.60325 0.0635-0.16933 0.10583-0.42333 0.0529-0.254 0.0529-0.41275 0-0.32808-0.17992-0.53975-0.17991-0.21167-0.58208-0.21167-0.45508 0-0.74083 0.254-0.27516 0.254-0.40216 0.66675-0.0953 0.27516-0.127 0.59266z"/>
    <path d="m135.02 46.432q-0.0529 0.34925-0.17992 0.85725-0.30692 1.2382-0.98425 1.8097-0.66674 0.56092-1.7886 0.56092-0.56092 0-0.92075-0.17992-0.34925-0.1905-0.51858-0.45508l-0.0529 0.24342q-0.0212 0.11642-0.127 0.20108-0.0952 0.08467-0.21166 0.08467h-1.2806q-0.11642 0-0.1905-0.08467-0.0635-0.08467-0.0423-0.20108l1.4817-6.9426q0.0212-0.11642 0.11641-0.20108 0.10583-0.08467 0.22225-0.08467h1.3335q0.11641 0 0.17991 0.08467 0.0741 0.08467 0.0529 0.20108l-0.48683 2.2542q0.27516-0.28575 0.59266-0.45508 0.3175-0.17992 0.85725-0.17992t0.99483 0.22225q0.45508 0.22225 0.73025 0.66675 0.27516 0.43392 0.27516 1.0583 0 0.22225-0.0529 0.53975zm-2.667-0.84666q-0.43392 0-0.71967 0.254-0.28575 0.24342-0.40216 0.59266-0.11642 0.33866-0.15875 0.74083-0.0212 0.35983 0.14816 0.60325 0.17992 0.24342 0.61383 0.24342 0.46567 0 0.74083-0.254 0.28575-0.254 0.41275-0.66675 0.0741-0.254 0.127-0.59266 0.0106-0.0635 0.0106-0.1905 0-0.33866-0.1905-0.52916-0.17992-0.20108-0.58208-0.20108z"/>
    <path d="m137.94 51.311q-0.15875 0.254-0.35983 0.254h-1.5028q-0.0952 0-0.15875-0.0635-0.0529-0.05292-0.0529-0.13758 0-0.04233 0.0423-0.127l1.2488-1.9473-1.0901-4.9107q-0.0318-0.127 0.0741-0.22225 0.10583-0.10583 0.24341-0.10583h1.3441q0.21167 0 0.254 0.254l0.59267 2.7517 1.7462-2.7517q0.15875-0.254 0.35983-0.254h1.5134q0.0952 0 0.14816 0.0635 0.0635 0.05292 0.0635 0.13758 0 0.04233-0.0423 0.127z"/>
   </g>
   <g transform="translate(-79.112 147.53)" style="shape-inside:url(#rect2016);white-space:pre" aria-label="produces">
    <path d="m90.507 51.279q-0.02117 0.11642-0.127 0.20108-0.09525 0.08467-0.21167 0.08467h-1.3335q-0.11642 0-0.17992-0.08467-0.07408-0.08467-0.05292-0.20108l1.4817-6.9426q0.02117-0.11642 0.11642-0.20108 0.10583-0.08467 0.22225-0.08467h1.2806q0.11642 0 0.17992 0.08467 0.07408 0.08467 0.05292 0.20108l-0.05292 0.24342q0.04233-0.04233 0.21167-0.23283 0.16933-0.1905 0.48683-0.29633 0.32808-0.10583 0.80433-0.10583 0.49742 0 0.9525 0.23283 0.45508 0.22225 0.74083 0.67733 0.29633 0.4445 0.29633 1.0795 0 0.26458-0.04233 0.48683-0.05292 0.34925-0.17992 0.85725-0.3175 1.2382-0.98425 1.8097t-1.7886 0.5715q-0.55033 0-0.91016-0.1905-0.35983-0.20108-0.47625-0.4445zm2.9104-4.7731q0.01058-0.0635 0.01058-0.1905 0-0.73025-0.762-0.73025-0.43392 0-0.71966 0.24342-0.27517 0.24342-0.40216 0.60325-0.0635 0.16933-0.11642 0.42333-0.04233 0.254-0.04233 0.41275 0 0.32808 0.17992 0.53975t0.58208 0.21167q0.45508 0 0.73025-0.254 0.28575-0.254 0.41275-0.66675 0.09525-0.27516 0.127-0.59266z"/>
    <path d="m100.7 44.05q0.11641 0 0.17991 0.08467t0.0423 0.20108l-0.22225 1.0689q-0.0212 0.11642-0.127 0.20108-0.10584 0.08467-0.22225 0.08467h-0.96308q-0.47625 0-0.78316 0.254-0.29633 0.24342-0.39158 0.71966l-0.56092 2.6035q-0.02117 0.11642-0.127 0.20108-0.09525 0.08467-0.21167 0.08467h-1.3335q-0.11642 0-0.1905-0.08467-0.0635-0.08467-0.04233-0.20108l1.0477-4.9318q0.02117-0.11642 0.127-0.20108 0.10583-0.08467 0.22225-0.08467h1.2277q0.11642 0 0.17992 0.08467 0.0635 0.08467 0.04233 0.20108l-0.05292 0.24342q0.26458-0.26458 0.58208-0.39158 0.32808-0.13758 0.83608-0.13758z"/>
    <path d="m106.54 47.268q-0.62441 2.3918-3.2808 2.3918-0.67733 0-1.2488-0.28575-0.5715-0.29633-0.91016-0.79375-0.32808-0.49742-0.32808-1.0901 0-0.15875 0.0317-0.32808 0.0953-0.47625 0.17991-0.81491 0.26458-1.0795 1.0795-1.7357 0.8255-0.66675 2.2013-0.66675 0.67733 0 1.2488 0.29633 0.5715 0.28575 0.89958 0.78316 0.33867 0.48683 0.33867 1.0795 0 0.16933-0.0318 0.34925-0.0635 0.43392-0.17992 0.81491zm-3.0374 0.75141q0.42333 0 0.73025-0.22225 0.31749-0.23283 0.43391-0.635 0.11642-0.381 0.14817-0.71966 0.0106-0.05292 0.0106-0.14817 0-0.33867-0.21167-0.51858-0.21166-0.1905-0.59266-0.1905-0.42333 0-0.73025 0.23283-0.30691 0.22225-0.42333 0.62442-0.11642 0.381-0.14817 0.71966-0.0106 0.05292-0.0106 0.15875 0 0.33866 0.20108 0.51858 0.21167 0.17992 0.59267 0.17992z"/>
    <path d="m112.17 42.325q0.0212-0.11642 0.11641-0.20108 0.10584-0.08467 0.22225-0.08467h1.3335q0.11641 0 0.17991 0.08467 0.0741 0.08467 0.0529 0.20108l-1.4817 6.9426q-0.0212 0.11642-0.127 0.20108-0.0952 0.08467-0.21167 0.08467h-1.2806q-0.11641 0-0.1905-0.08467-0.0635-0.08467-0.0423-0.20108l0.0529-0.24342q-0.0423 0.04233-0.21167 0.23283-0.16933 0.1905-0.49741 0.29633-0.3175 0.10583-0.79375 0.10583-0.49742 0-0.9525-0.22225-0.45508-0.23283-0.75141-0.67733-0.28575-0.45508-0.28575-1.0901 0-0.26458 0.0423-0.48683 0.0529-0.34925 0.17992-0.85725 0.3175-1.2382 0.98425-1.8097 0.66674-0.5715 1.7886-0.5715 0.55033 0 0.91017 0.20108 0.35983 0.1905 0.47624 0.43392zm-2.9104 4.7731q-0.0106 0.0635-0.0106 0.1905 0 0.73025 0.76199 0.73025 0.43392 0 0.70908-0.24342 0.28575-0.24342 0.41275-0.60325 0.0635-0.16933 0.10584-0.42333 0.0529-0.254 0.0529-0.41275 0-0.32808-0.17991-0.53975-0.17992-0.21167-0.58208-0.21167-0.45509 0-0.74084 0.254-0.27516 0.254-0.40216 0.66675-0.0952 0.27516-0.127 0.59266z"/>
    <path d="m114.81 44.336q0.0212-0.11642 0.127-0.20108 0.10583-0.08467 0.22225-0.08467h1.3335q0.11642 0 0.17992 0.08467t0.0423 0.20108l-0.56091 2.6776q-0.0423 0.16933-0.0423 0.35983 0 0.64558 0.68791 0.64558 0.84666 0 1.0795-1.0054l0.56091-2.6776q0.0212-0.11642 0.127-0.20108 0.10583-0.08467 0.22225-0.08467h1.3335q0.11641 0 0.17991 0.08467t0.0423 0.20108l-1.0478 4.9318q-0.0212 0.11642-0.127 0.20108-0.0953 0.08467-0.21167 0.08467h-1.2277q-0.11642 0-0.1905-0.08467-0.0635-0.08467-0.0423-0.20108l0.0529-0.24342q-0.29633 0.29633-0.62441 0.46566-0.3175 0.16933-0.89958 0.16933-0.80433 0-1.3547-0.45508t-0.55033-1.3229q0-0.30692 0.0741-0.635z"/>
    <path d="m122.65 47.31q0 0.32808 0.20108 0.51858 0.21167 0.1905 0.59267 0.1905 0.32808 0 0.53974-0.09525 0.21167-0.09525 0.381-0.28575 0.0847-0.10583 0.15875-0.15875 0.0847-0.05292 0.1905-0.05292h1.3864q0.127 0 0.1905 0.08467 0.0741 0.08467 0.0317 0.20108-0.1905 0.66675-0.86783 1.3123-0.67733 0.635-2.2542 0.635-0.635 0-1.2065-0.26458-0.57149-0.26458-0.92074-0.75141t-0.34925-1.1007q0-0.17992 0.0318-0.37042 0.127-0.635 0.17991-0.84666 0.28575-1.1324 1.1112-1.7568 0.83608-0.62442 2.159-0.62442 0.92075 0 1.4922 0.35983 0.58208 0.35983 0.81491 0.83608 0.24342 0.46566 0.20109 0.75141-0.0106 0.11642-0.127 0.20108-0.10584 0.08467-0.22225 0.08467h-1.3864q-0.10583 0-0.15874-0.05292-0.0529-0.05292-0.0952-0.15875-0.0953-0.1905-0.26459-0.28575-0.16933-0.09525-0.49741-0.09525-0.41275 0-0.71967 0.23283-0.30691 0.23283-0.42333 0.61383-0.16933 0.60325-0.16933 0.87841z"/>
    <path d="m128.94 47.405q-0.0212 0.07408-0.0212 0.21167 0 0.32808 0.23283 0.47625 0.23284 0.13758 0.56092 0.13758 0.53975 0 0.86783-0.24342 0.13758-0.09525 0.1905-0.11642 0.0635-0.03175 0.1905-0.03175h1.3758q0.10583 0 0.14816 0.0635 0.0529 0.0635 0.0318 0.16933-0.0423 0.23283-0.37041 0.61383-0.32809 0.37042-0.99483 0.67733-0.65617 0.29633-1.6404 0.29633-0.6985 0-1.2488-0.27517-0.53975-0.28575-0.84667-0.80433-0.30691-0.51858-0.30691-1.1959 0-0.34925 0.0741-0.68791 0.27517-1.2912 1.1007-2.0214 0.8255-0.73025 2.2331-0.73025 0.77258 0 1.3123 0.32808 0.53975 0.32808 0.81491 0.85725 0.27517 0.52916 0.27517 1.143 0 0.32808-0.0529 0.55033l-0.0635 0.29633q-0.0212 0.11642-0.127 0.20108-0.0953 0.08467-0.21166 0.08467zm2.1484-1.1747q0.0317-0.34925-0.16934-0.60325-0.1905-0.254-0.60324-0.254-0.41275 0-0.71967 0.254-0.29633 0.24342-0.41275 0.60325z"/>
    <path d="m135.17 47.374q-0.65617-0.11642-0.99483-0.46566-0.33867-0.34925-0.33867-0.889 0-0.22225 0.0423-0.42333 0.15875-0.762 0.8255-1.2065 0.67733-0.4445 1.8944-0.4445 0.66675 0 1.2277 0.22225 0.56091 0.21167 0.86783 0.56092 0.30691 0.33867 0.26458 0.6985-0.0106 0.11642-0.11642 0.20108-0.10583 0.08467-0.22225 0.08467h-1.2594q-0.0741 0-0.127-0.02117-0.0529-0.03175-0.127-0.09525-0.127-0.10583-0.27516-0.15875-0.13759-0.0635-0.43392-0.0635-0.28575 0-0.46566 0.09525-0.16934 0.09525-0.16934 0.29633 0 0.127 0.14817 0.17992 0.15875 0.05292 0.70908 0.14817l0.508 0.08467q0.75141 0.127 1.1218 0.508 0.37041 0.37042 0.37041 0.91016 0 0.21167-0.0423 0.381-0.15875 0.77258-0.87841 1.2277-0.70908 0.45508-2.0638 0.45508-0.70908 0-1.2806-0.23283-0.56091-0.23283-0.86783-0.58208-0.29633-0.35983-0.254-0.6985 0.0106-0.11642 0.11642-0.20108 0.11642-0.08467 0.23283-0.08467h1.3123q0.0741 0 0.11642 0.03175 0.0423 0.02117 0.0952 0.08467 0.0952 0.11642 0.23283 0.1905 0.14817 0.0635 0.49742 0.0635 0.32808 0 0.57149-0.08467 0.24342-0.09525 0.28575-0.24342 0.0212-0.127-0.0529-0.1905-0.0741-0.07408-0.254-0.11642-0.17992-0.04233-0.61383-0.11642z"/>
   </g>
   <g transform="translate(56.127 149.67)" style="shape-inside:url(#rect2022);white-space:pre" aria-label="applied in">
    <path d="m92.883 44.336q0.02117-0.11642 0.11642-0.20108 0.10583-0.08467 0.22225-0.08467h1.3335q0.11642 0 0.17992 0.08467 0.07408 0.08467 0.05292 0.20108l-1.0372 4.9318q-0.02117 0.11642-0.127 0.20108-0.09525 0.08467-0.21167 0.08467h-1.3441q-0.11642 0-0.1905-0.08467-0.0635-0.08467-0.04233-0.20108l0.05292-0.24342q-0.17992 0.29633-0.53975 0.46566-0.34925 0.16933-1.0054 0.16933-0.48683 0-0.92075-0.22225-0.43392-0.22225-0.6985-0.65616-0.26458-0.4445-0.26458-1.0689 0-0.27517 0.04233-0.52916 0.05292-0.34925 0.17992-0.85725 0.30692-1.1959 1.0372-1.7886 0.73025-0.59266 1.7357-0.59266 0.55033 0 0.89958 0.20108 0.35983 0.1905 0.47625 0.43392zm-2.4659 2.7622q-0.01058 0.0635-0.01058 0.1905 0 0.73025 0.762 0.73025 0.43392 0 0.6985-0.24342 0.27517-0.24342 0.40217-0.60325 0.0635-0.17992 0.10583-0.43392 0.05292-0.254 0.05292-0.41275 0-0.3175-0.17992-0.52916-0.16933-0.21167-0.56092-0.21167-0.45508 0-0.74083 0.254-0.27516 0.254-0.40216 0.66675-0.09525 0.27516-0.127 0.59266z"/>
    <path d="m96.439 51.279q-0.02117 0.11642-0.127 0.20108-0.09525 0.08467-0.21167 0.08467h-1.3335q-0.11642 0-0.17992-0.08467-0.07408-0.08467-0.05292-0.20108l1.4817-6.9426q0.02117-0.11642 0.11642-0.20108 0.10583-0.08467 0.22225-0.08467h1.2806q0.11642 0 0.17992 0.08467 0.07408 0.08467 0.05292 0.20108l-0.05292 0.24342q0.04233-0.04233 0.21167-0.23283 0.16933-0.1905 0.48683-0.29633 0.32808-0.10583 0.80433-0.10583 0.49742 0 0.9525 0.23283 0.45508 0.22225 0.74083 0.67733 0.29633 0.4445 0.29633 1.0795 0 0.26458-0.0423 0.48683-0.0529 0.34925-0.17992 0.85725-0.3175 1.2382-0.98425 1.8097-0.66675 0.5715-1.7886 0.5715-0.55033 0-0.91016-0.1905-0.35983-0.20108-0.47625-0.4445zm2.9104-4.7731q0.01058-0.0635 0.01058-0.1905 0-0.73025-0.762-0.73025-0.43392 0-0.71966 0.24342-0.27517 0.24342-0.40216 0.60325-0.0635 0.16933-0.11642 0.42333-0.04233 0.254-0.04233 0.41275 0 0.32808 0.17992 0.53975t0.58208 0.21167q0.45508 0 0.73025-0.254 0.28575-0.254 0.41275-0.66675 0.09525-0.27516 0.127-0.59266z"/>
    <path d="m103.15 51.279q-0.0212 0.11642-0.127 0.20108-0.0953 0.08467-0.21166 0.08467h-1.3335q-0.11642 0-0.17992-0.08467-0.0741-0.08467-0.0529-0.20108l1.4817-6.9426q0.0212-0.11642 0.11642-0.20108 0.10583-0.08467 0.22225-0.08467h1.2806q0.11642 0 0.17992 0.08467 0.0741 0.08467 0.0529 0.20108l-0.0529 0.24342q0.0423-0.04233 0.21167-0.23283 0.16933-0.1905 0.48683-0.29633 0.32808-0.10583 0.80433-0.10583 0.49741 0 0.9525 0.23283 0.45508 0.22225 0.74083 0.67733 0.29633 0.4445 0.29633 1.0795 0 0.26458-0.0423 0.48683-0.0529 0.34925-0.17992 0.85725-0.3175 1.2382-0.98425 1.8097-0.66674 0.5715-1.7886 0.5715-0.55034 0-0.91017-0.1905-0.35983-0.20108-0.47625-0.4445zm2.9104-4.7731q0.0106-0.0635 0.0106-0.1905 0-0.73025-0.762-0.73025-0.43391 0-0.71966 0.24342-0.27517 0.24342-0.40217 0.60325-0.0635 0.16933-0.11641 0.42333-0.0423 0.254-0.0423 0.41275 0 0.32808 0.17991 0.53975 0.17992 0.21167 0.58208 0.21167 0.45508 0 0.73025-0.254 0.28575-0.254 0.41275-0.66675 0.0952-0.27516 0.127-0.59266z"/>
    <path d="m110.29 49.268q-0.0212 0.11642-0.127 0.20108-0.0953 0.08467-0.21167 0.08467h-1.3335q-0.11642 0-0.1905-0.08467-0.0635-0.08467-0.0423-0.20108l1.4817-6.9426q0.0212-0.11642 0.11641-0.20108 0.10583-0.08467 0.22225-0.08467h1.3335q0.11641 0 0.17991 0.08467 0.0741 0.08467 0.0529 0.20108z"/>
    <path d="m114.73 43.183q-0.0212 0.11642-0.127 0.20108-0.0952 0.08467-0.21167 0.08467h-1.3335q-0.11642 0-0.1905-0.08467-0.0635-0.08467-0.0423-0.20108l0.23284-1.0689q0.0212-0.11642 0.127-0.20108 0.10583-0.08467 0.22225-0.08467h1.3335q0.11642 0 0.17992 0.08467t0.0423 0.20108zm-1.2912 6.0854q-0.0212 0.11642-0.127 0.20108-0.0952 0.08467-0.21167 0.08467h-1.3335q-0.11641 0-0.19049-0.08467-0.0635-0.08467-0.0423-0.20108l1.0478-4.9318q0.0212-0.11642 0.127-0.20108 0.10583-0.08467 0.22225-0.08467h1.3335q0.11642 0 0.17992 0.08467t0.0423 0.20108z"/>
    <path d="m116.71 47.405q-0.0212 0.07408-0.0212 0.21167 0 0.32808 0.23284 0.47625 0.23283 0.13758 0.56091 0.13758 0.53975 0 0.86783-0.24342 0.13759-0.09525 0.1905-0.11642 0.0635-0.03175 0.1905-0.03175h1.3758q0.10583 0 0.14817 0.0635 0.0529 0.0635 0.0318 0.16933-0.0423 0.23283-0.37042 0.61383-0.32808 0.37042-0.99483 0.67733-0.65616 0.29633-1.6404 0.29633-0.6985 0-1.2488-0.27517-0.53975-0.28575-0.84666-0.80433-0.30692-0.51858-0.30692-1.1959 0-0.34925 0.0741-0.68791 0.27517-1.2912 1.1007-2.0214 0.82549-0.73025 2.2331-0.73025 0.77258 0 1.3123 0.32808 0.53975 0.32808 0.81492 0.85725 0.27516 0.52916 0.27516 1.143 0 0.32808-0.0529 0.55033l-0.0635 0.29633q-0.0212 0.11642-0.127 0.20108-0.0953 0.08467-0.21167 0.08467zm2.1484-1.1747q0.0318-0.34925-0.16933-0.60325-0.1905-0.254-0.60325-0.254t-0.71966 0.254q-0.29634 0.24342-0.41275 0.60325z"/>
    <path d="m126.13 42.325q0.0212-0.11642 0.11642-0.20108 0.10583-0.08467 0.22225-0.08467h1.3335q0.11642 0 0.17992 0.08467 0.0741 0.08467 0.0529 0.20108l-1.4817 6.9426q-0.0212 0.11642-0.12699 0.20108-0.0952 0.08467-0.21167 0.08467h-1.2806q-0.11642 0-0.1905-0.08467-0.0635-0.08467-0.0423-0.20108l0.0529-0.24342q-0.0423 0.04233-0.21166 0.23283-0.16933 0.1905-0.49742 0.29633-0.3175 0.10583-0.79374 0.10583-0.49742 0-0.9525-0.22225-0.45508-0.23283-0.75142-0.67733-0.28574-0.45508-0.28574-1.0901 0-0.26458 0.0423-0.48683 0.0529-0.34925 0.17991-0.85725 0.3175-1.2382 0.98425-1.8097t1.7886-0.5715q0.55033 0 0.91016 0.20108 0.35983 0.1905 0.47625 0.43392zm-2.9104 4.7731q-0.0106 0.0635-0.0106 0.1905 0 0.73025 0.762 0.73025 0.43391 0 0.70908-0.24342 0.28575-0.24342 0.41275-0.60325 0.0635-0.16933 0.10583-0.42333 0.0529-0.254 0.0529-0.41275 0-0.32808-0.17992-0.53975-0.17991-0.21167-0.58208-0.21167-0.45508 0-0.74083 0.254-0.27517 0.254-0.40216 0.66675-0.0952 0.27516-0.127 0.59266z"/>
    <path d="m133.25 43.183q-0.0212 0.11642-0.127 0.20108-0.0953 0.08467-0.21166 0.08467h-1.3335q-0.11641 0-0.1905-0.08467-0.0635-0.08467-0.0423-0.20108l0.23283-1.0689q0.0212-0.11642 0.127-0.20108 0.10583-0.08467 0.22225-0.08467h1.3335q0.11641 0 0.17991 0.08467t0.0423 0.20108zm-1.2912 6.0854q-0.0212 0.11642-0.127 0.20108-0.0952 0.08467-0.21166 0.08467h-1.3335q-0.11642 0-0.1905-0.08467-0.0635-0.08467-0.0423-0.20108l1.0477-4.9318q0.0212-0.11642 0.127-0.20108 0.10584-0.08467 0.22225-0.08467h1.3335q0.11641 0 0.17991 0.08467t0.0423 0.20108z"/>
    <path d="m138.83 49.268q-0.0212 0.11642-0.127 0.20108-0.0952 0.08467-0.21167 0.08467h-1.3335q-0.11642 0-0.1905-0.08467-0.0635-0.08467-0.0423-0.20108l0.5715-2.6776q0.0318-0.17992 0.0318-0.3175 0-0.68791-0.74083-0.68791-0.45508 0-0.74083 0.26458-0.28575 0.26458-0.381 0.74083l-0.5715 2.6776q-0.0212 0.11642-0.127 0.20108-0.0952 0.08467-0.21166 0.08467h-1.3335q-0.11641 0-0.1905-0.08467-0.0635-0.08467-0.0423-0.20108l1.0478-4.9318q0.0212-0.11642 0.127-0.20108 0.10583-0.08467 0.22224-0.08467h1.2806q0.11642 0 0.17992 0.08467t0.0423 0.20108l-0.0529 0.24342q0.63499-0.635 1.524-0.635 0.86783 0 1.4182 0.45508 0.55034 0.45508 0.55034 1.3229 0 0.30692-0.0741 0.635z"/>
   </g>
   <g transform="translate(64.679 42.763)" style="shape-inside:url(#rect2028);white-space:pre" aria-label="to design">
    <path d="m92.296 47.405q-0.02117 0.127-0.02117 0.17992 0 0.32808 0.35983 0.32808h0.84666q0.11642 0 0.17992 0.08467 0.07408 0.08467 0.05292 0.20108l-0.23283 1.0689q-0.02117 0.11642-0.127 0.20108-0.09525 0.08467-0.21166 0.08467h-0.89958q-0.49742 0-0.94191-0.20108-0.43392-0.20108-0.70908-0.58208-0.26458-0.381-0.26458-0.889 0-0.21167 0.04233-0.41275l0.381-1.778h-0.78316q-0.11642 0-0.17992-0.08467-0.0635-0.08467-0.04233-0.20108l0.22225-1.0689q0.02117-0.11642 0.127-0.20108 0.10583-0.08467 0.22225-0.08467h0.78316l0.37042-1.7251q0.02117-0.11642 0.11642-0.20108 0.10583-0.08467 0.22225-0.08467h1.3335q0.11642 0 0.17992 0.08467 0.07408 0.08467 0.05292 0.20108l-0.37042 1.7251h1.1959q0.11642 0 0.17992 0.08467t0.04233 0.20108l-0.22225 1.0689q-0.02117 0.11642-0.127 0.20108-0.10583 0.08467-0.22225 0.08467h-1.1959z"/>
    <path d="m100.32 47.268q-0.62441 2.3918-3.2808 2.3918-0.67733 0-1.2488-0.28575-0.5715-0.29633-0.91016-0.79375-0.32808-0.49742-0.32808-1.0901 0-0.15875 0.03175-0.32808 0.09525-0.47625 0.17992-0.81491 0.26458-1.0795 1.0795-1.7357 0.8255-0.66675 2.2013-0.66675 0.67733 0 1.2488 0.29633 0.5715 0.28575 0.89958 0.78316 0.33867 0.48683 0.33867 1.0795 0 0.16933-0.0318 0.34925-0.0635 0.43392-0.17992 0.81491zm-3.0374 0.75141q0.42333 0 0.73025-0.22225 0.3175-0.23283 0.43392-0.635 0.11642-0.381 0.14817-0.71966 0.01058-0.05292 0.01058-0.14817 0-0.33867-0.21167-0.51858-0.21167-0.1905-0.59266-0.1905-0.42333 0-0.73025 0.23283-0.30692 0.22225-0.42333 0.62442-0.11642 0.381-0.14817 0.71966-0.01058 0.05292-0.01058 0.15875 0 0.33866 0.20108 0.51858 0.21167 0.17992 0.59266 0.17992z"/>
    <path d="m108.21 42.325q0.0212-0.11642 0.11641-0.20108 0.10584-0.08467 0.22225-0.08467h1.3335q0.11642 0 0.17991 0.08467 0.0741 0.08467 0.0529 0.20108l-1.4817 6.9426q-0.0212 0.11642-0.127 0.20108-0.0953 0.08467-0.21167 0.08467h-1.2806q-0.11641 0-0.19049-0.08467-0.0635-0.08467-0.0423-0.20108l0.0529-0.24342q-0.0423 0.04233-0.21167 0.23283-0.16933 0.1905-0.49741 0.29633-0.3175 0.10583-0.79375 0.10583-0.49742 0-0.9525-0.22225-0.45508-0.23283-0.75141-0.67733-0.28575-0.45508-0.28575-1.0901 0-0.26458 0.0423-0.48683 0.0529-0.34925 0.17992-0.85725 0.3175-1.2382 0.98425-1.8097 0.66674-0.5715 1.7886-0.5715 0.55033 0 0.91017 0.20108 0.35983 0.1905 0.47625 0.43392zm-2.9104 4.7731q-0.0106 0.0635-0.0106 0.1905 0 0.73025 0.76199 0.73025 0.43392 0 0.70909-0.24342 0.28574-0.24342 0.41274-0.60325 0.0635-0.16933 0.10584-0.42333 0.0529-0.254 0.0529-0.41275 0-0.32808-0.17991-0.53975-0.17992-0.21167-0.58208-0.21167-0.45509 0-0.74083 0.254-0.27517 0.254-0.40217 0.66675-0.0953 0.27516-0.127 0.59266z"/>
    <path d="m111.92 47.405q-0.0212 0.07408-0.0212 0.21167 0 0.32808 0.23283 0.47625 0.23283 0.13758 0.56091 0.13758 0.53975 0 0.86784-0.24342 0.13758-0.09525 0.19049-0.11642 0.0635-0.03175 0.1905-0.03175h1.3758q0.10584 0 0.14817 0.0635 0.0529 0.0635 0.0318 0.16933-0.0423 0.23283-0.37042 0.61383-0.32808 0.37042-0.99483 0.67733-0.65616 0.29633-1.6404 0.29633-0.6985 0-1.2488-0.27517-0.53975-0.28575-0.84666-0.80433-0.30692-0.51858-0.30692-1.1959 0-0.34925 0.0741-0.68791 0.27516-1.2912 1.1007-2.0214 0.8255-0.73025 2.2331-0.73025 0.77258 0 1.3123 0.32808 0.53975 0.32808 0.81492 0.85725 0.27516 0.52916 0.27516 1.143 0 0.32808-0.0529 0.55033l-0.0635 0.29633q-0.0212 0.11642-0.127 0.20108-0.0953 0.08467-0.21167 0.08467zm2.1484-1.1747q0.0318-0.34925-0.16933-0.60325-0.1905-0.254-0.60325-0.254t-0.71966 0.254q-0.29633 0.24342-0.41275 0.60325z"/>
    <path d="m118.15 47.374q-0.65616-0.11642-0.99483-0.46566-0.33866-0.34925-0.33866-0.889 0-0.22225 0.0423-0.42333 0.15875-0.762 0.8255-1.2065 0.67733-0.4445 1.8944-0.4445 0.66675 0 1.2277 0.22225 0.56092 0.21167 0.86783 0.56092 0.30692 0.33867 0.26458 0.6985-0.0106 0.11642-0.11641 0.20108-0.10584 0.08467-0.22225 0.08467h-1.2594q-0.0741 0-0.127-0.02117-0.0529-0.03175-0.127-0.09525-0.127-0.10583-0.27517-0.15875-0.13758-0.0635-0.43391-0.0635-0.28575 0-0.46567 0.09525-0.16933 0.09525-0.16933 0.29633 0 0.127 0.14816 0.17992 0.15875 0.05292 0.70908 0.14817l0.508 0.08467q0.75142 0.127 1.1218 0.508 0.37042 0.37042 0.37042 0.91016 0 0.21167-0.0423 0.381-0.15874 0.77258-0.87841 1.2277-0.70908 0.45508-2.0637 0.45508-0.70908 0-1.2806-0.23283-0.56092-0.23283-0.86783-0.58208-0.29633-0.35983-0.254-0.6985 0.0106-0.11642 0.11641-0.20108 0.11642-0.08467 0.23284-0.08467h1.3123q0.0741 0 0.11641 0.03175 0.0423 0.02117 0.0952 0.08467 0.0953 0.11642 0.23284 0.1905 0.14816 0.0635 0.49741 0.0635 0.32808 0 0.5715-0.08467 0.24341-0.09525 0.28575-0.24342 0.0212-0.127-0.0529-0.1905-0.0741-0.07408-0.254-0.11642-0.17991-0.04233-0.61383-0.11642z"/>
    <path d="m125.41 43.183q-0.0212 0.11642-0.127 0.20108-0.0952 0.08467-0.21167 0.08467h-1.3335q-0.11642 0-0.1905-0.08467-0.0635-0.08467-0.0423-0.20108l0.23284-1.0689q0.0212-0.11642 0.12699-0.20108 0.10584-0.08467 0.22225-0.08467h1.3335q0.11642 0 0.17992 0.08467t0.0423 0.20108zm-1.2912 6.0854q-0.0212 0.11642-0.127 0.20108-0.0953 0.08467-0.21166 0.08467h-1.3335q-0.11641 0-0.1905-0.08467-0.0635-0.08467-0.0423-0.20108l1.0478-4.9318q0.0212-0.11642 0.127-0.20108 0.10583-0.08467 0.22225-0.08467h1.3335q0.11642 0 0.17992 0.08467t0.0423 0.20108z"/>
    <path d="m129.06 48.813q-0.1905 0.24342-0.32809 0.35983-0.127 0.11642-0.40216 0.20108-0.27517 0.07408-0.762 0.07408-0.49741 0-0.96308-0.22225-0.45508-0.23283-0.75141-0.67733-0.29634-0.4445-0.29634-1.0689 0-0.24342 0.0423-0.45508 0.0423-0.29633 0.15875-0.75141 0.30691-1.2065 0.97366-1.7674t1.7886-0.56092q0.56091 0 0.97366 0.20108t0.51858 0.43392l0.0529-0.24342q0.0212-0.11642 0.127-0.20108 0.10583-0.08467 0.22225-0.08467h1.2277q0.11642 0 0.17992 0.08467t0.0423 0.20108l-1.0901 5.1541q-0.254 1.1959-1.0689 1.7886-0.81492 0.60325-2.2225 0.60325-0.85724 0-1.4076-0.27517-0.53975-0.27517-0.78317-0.67733-0.24341-0.39158-0.24341-0.762 0-0.10583 0.0106-0.14817 0.0106-0.11642 0.127-0.20108 0.10583-0.08467 0.22225-0.08467h1.3758q0.21166 0 0.28575 0.21167 0.0423 0.15875 0.1905 0.254 0.14816 0.09525 0.47624 0.09525 0.43392 0 0.762-0.1905 0.33867-0.1905 0.41275-0.55033zm-1.5452-1.8627q-0.0106 0.05292-0.0106 0.15875 0 0.32808 0.1905 0.51858 0.1905 0.17992 0.59267 0.17992 0.40216 0 0.68791-0.22225 0.29633-0.22225 0.41275-0.56092 0.14816-0.35983 0.14816-0.74083 0-0.30692-0.20108-0.49742-0.20108-0.20108-0.58208-0.20108-0.43391 0-0.73025 0.23283-0.28575 0.22225-0.40216 0.61383-0.0847 0.26458-0.10584 0.51858z"/>
    <path d="m137.7 49.268q-0.0212 0.11642-0.127 0.20108-0.0952 0.08467-0.21167 0.08467h-1.3335q-0.11642 0-0.1905-0.08467-0.0635-0.08467-0.0423-0.20108l0.5715-2.6776q0.0317-0.17992 0.0317-0.3175 0-0.68791-0.74083-0.68791-0.45508 0-0.74083 0.26458-0.28575 0.26458-0.381 0.74083l-0.5715 2.6776q-0.0212 0.11642-0.127 0.20108-0.0952 0.08467-0.21166 0.08467h-1.3335q-0.11641 0-0.1905-0.08467-0.0635-0.08467-0.0423-0.20108l1.0478-4.9318q0.0212-0.11642 0.127-0.20108 0.10583-0.08467 0.22224-0.08467h1.2806q0.11642 0 0.17992 0.08467t0.0423 0.20108l-0.0529 0.24342q0.63499-0.635 1.524-0.635 0.86783 0 1.4182 0.45508 0.55034 0.45508 0.55034 1.3229 0 0.30692-0.0741 0.635z"/>
   </g>
  </g>
 </g>
</svg>
