<svg width="152.12mm" height="152.12mm" version="1.1" viewBox="0 0 152.12 152.12" xmlns="http://www.w3.org/2000/svg">
 <style/>
 <g transform="translate(-27.128 -72.588)">
  <g id="rect_bg" stroke="#808080">
   <rect transform="rotate(-44.653)" x="-83.843" y="125.31" width="105.55" height="105.9" rx=".57039" ry=".54791" fill="#666" stroke-width="3.088"/>
   <path d="m66.019 111.22 73.831 74.73" fill="none" stroke-width="3.065"/>
   <path d="m140.18 111.79-74.201 74.363" fill="none" stroke-width="3.065"/>
  </g>
  <g id="boxes" stroke="#000" stroke-width=".24205">
   <rect id="rect_yell" transform="rotate(-44.653)" x="-31.201" y="125.52" width="52.351" height="52.525" rx=".2829" ry=".27175" fill="#ff0"/>
   <rect id="rect_red" transform="rotate(-44.653)" x="-83.552" y="125.52" width="52.351" height="52.525" rx=".2829" ry=".27175" fill="#f00"/>
   <rect id="rect_blck" transform="rotate(-44.653)" x="-31.201" y="178.04" width="52.351" height="52.525" rx=".2829" ry=".27175"/>
   <rect id="rect_blu" transform="rotate(-44.653)" x="-83.552" y="178.04" width="52.351" height="52.525" rx=".2829" ry=".27175" fill="#2a7fff"/>
  </g>
  <g id="text-inner">
   <g id="text_yell" transform="translate(-6.949 2.6727)" style="shape-inside:url(#rect889);white-space:pre" aria-label="Yellow bile Fire">
    <path d="m94.085 103.74v-2.3534l-2.1411-3.2022h0.89435l1.0952 1.675q0.30317 0.46991 0.56465 0.93982 0.25011-0.4358 0.60634-0.9815l1.0762-1.6333h0.85645l-2.2169 3.2022v2.3534z" style="font-variant-caps:normal;font-variant-east-asian:normal;font-variant-ligatures:normal;font-variant-numeric:normal"/>
    <path d="m99.652 102.45 0.70486 0.0872q-0.16674 0.61771-0.6177 0.95877-0.45096 0.34107-1.152 0.34107-0.88298 0-1.4022-0.54192-0.51539-0.5457-0.51539-1.5272 0-1.0156 0.52296-1.5765 0.52297-0.56086 1.3567-0.56086 0.80719 0 1.3188 0.54949 0.5116 0.54949 0.5116 1.5462 0 0.0606-4e-3 0.1819h-3.0014q0.0379 0.66318 0.37517 1.0156 0.33728 0.35244 0.84129 0.35244 0.37517 0 0.64044-0.19706 0.26527-0.19706 0.42065-0.62908zm-2.2397-1.1028h2.2472q-0.04548-0.50781-0.25769-0.76171-0.3259-0.39412-0.84508-0.39412-0.46991 0-0.79203 0.31454-0.31833 0.31453-0.35243 0.84129z" style="font-variant-caps:normal;font-variant-east-asian:normal;font-variant-ligatures:normal;font-variant-numeric:normal"/>
    <path d="m101.2 103.74v-5.5556h0.68212v5.5556z" style="font-variant-caps:normal;font-variant-east-asian:normal;font-variant-ligatures:normal;font-variant-numeric:normal"/>
    <path d="m102.92 103.74v-5.5556h0.68212v5.5556z" style="font-variant-caps:normal;font-variant-east-asian:normal;font-variant-ligatures:normal;font-variant-numeric:normal"/>
    <path d="m104.41 101.73q0-1.1179 0.6215-1.6561 0.51917-0.44717 1.2657-0.44717 0.82993 0 1.3567 0.5457 0.52676 0.54191 0.52676 1.5007 0 0.77687-0.23496 1.224-0.23116 0.44338-0.67834 0.6897-0.44338 0.24633-0.97014 0.24633-0.84508 0-1.368-0.54192-0.51918-0.54191-0.51918-1.5613zm0.70108 0q0 0.77308 0.33727 1.1596 0.33728 0.38275 0.84887 0.38275 0.50781 0 0.84508-0.38654 0.33728-0.38654 0.33728-1.1786 0-0.74655-0.34106-1.1293-0.33728-0.38654-0.8413-0.38654-0.51159 0-0.84887 0.38275-0.33727 0.38275-0.33727 1.1558z" style="font-variant-caps:normal;font-variant-east-asian:normal;font-variant-ligatures:normal;font-variant-numeric:normal"/>
    <path d="m109.72 103.74-1.2316-4.0246h0.70487l0.64044 2.323 0.23875 0.86403q0.0152-0.0644 0.20843-0.82992l0.64044-2.3571h0.70108l0.60254 2.3344 0.20085 0.76929 0.23117-0.77687 0.68971-2.3268h0.66318l-1.2582 4.0246h-0.70866l-0.64044-2.4102-0.15537-0.68592-0.81477 3.0961z" style="font-variant-caps:normal;font-variant-east-asian:normal;font-variant-ligatures:normal;font-variant-numeric:normal"/>
    <path d="m117.37 103.74h-0.63287v-5.5556h0.68213v1.982q0.43202-0.54191 1.1028-0.54191 0.37138 0 0.70107 0.15158 0.33349 0.14779 0.54571 0.42065 0.216 0.26906 0.33727 0.65181t0.12127 0.81855q0 1.0346-0.5116 1.5992-0.51159 0.56465-1.2278 0.56465-0.71245 0-1.1179-0.59497zm-8e-3 -2.0426q0 0.72381 0.19706 1.0459 0.32211 0.52676 0.87161 0.52676 0.44717 0 0.77308-0.38654 0.3259-0.39033 0.3259-1.1596 0-0.78824-0.31454-1.1634-0.31074-0.37517-0.75413-0.37517-0.44717 0-0.77308 0.39033-0.3259 0.38654-0.3259 1.1217z" style="font-variant-caps:normal;font-variant-east-asian:normal;font-variant-ligatures:normal;font-variant-numeric:normal"/>
    <path d="m121.06 98.972v-0.78445h0.68213v0.78445zm0 4.7711v-4.0246h0.68213v4.0246z" style="font-variant-caps:normal;font-variant-east-asian:normal;font-variant-ligatures:normal;font-variant-numeric:normal"/>
    <path d="m122.76 103.74v-5.5556h0.68213v5.5556z" style="font-variant-caps:normal;font-variant-east-asian:normal;font-variant-ligatures:normal;font-variant-numeric:normal"/>
    <path d="m127.26 102.45 0.70486 0.0872q-0.16674 0.61771-0.6177 0.95877-0.45097 0.34107-1.152 0.34107-0.88298 0-1.4022-0.54192-0.51538-0.5457-0.51538-1.5272 0-1.0156 0.52296-1.5765 0.52297-0.56086 1.3567-0.56086 0.80719 0 1.3188 0.54949 0.5116 0.54949 0.5116 1.5462 0 0.0606-4e-3 0.1819h-3.0014q0.0379 0.66318 0.37517 1.0156 0.33728 0.35244 0.8413 0.35244 0.37517 0 0.64044-0.19706t0.42065-0.62908zm-2.2397-1.1028h2.2472q-0.0455-0.50781-0.25769-0.76171-0.3259-0.39412-0.84508-0.39412-0.46991 0-0.79203 0.31454-0.31832 0.31453-0.35243 0.84129z" style="font-variant-caps:normal;font-variant-east-asian:normal;font-variant-ligatures:normal;font-variant-numeric:normal"/>
    <path d="m104.07 113.44v-5.5556h3.7479v0.6556h-3.0127v1.7205h2.6072v0.65561h-2.6072v2.5239z" style="font-variant-caps:normal;font-variant-east-asian:normal;font-variant-ligatures:normal;font-variant-numeric:normal"/>
    <path d="m108.69 108.67v-0.78445h0.68213v0.78445zm0 4.7711v-4.0246h0.68213v4.0246z" style="font-variant-caps:normal;font-variant-east-asian:normal;font-variant-ligatures:normal;font-variant-numeric:normal"/>
    <path d="m110.4 113.44v-4.0246h0.61392v0.61013q0.23495-0.42823 0.43201-0.56465 0.20085-0.13643 0.43959-0.13643 0.34486 0 0.70108 0.2198l-0.23495 0.63286q-0.25012-0.14779-0.50023-0.14779-0.22359 0-0.4017 0.13642-0.17811 0.13264-0.2539 0.37139-0.11369 0.3638-0.11369 0.79581v2.107z" style="font-variant-caps:normal;font-variant-east-asian:normal;font-variant-ligatures:normal;font-variant-numeric:normal"/>
    <path d="m115.75 112.15 0.70487 0.0872q-0.16675 0.6177-0.61771 0.95877-0.45096 0.34106-1.152 0.34106-0.88298 0-1.4022-0.54191-0.51539-0.5457-0.51539-1.5272 0-1.0156 0.52297-1.5765 0.52296-0.56086 1.3567-0.56086 0.80718 0 1.3188 0.54949 0.51159 0.5495 0.51159 1.5462 0 0.0606-4e-3 0.1819h-3.0014q0.0379 0.66319 0.37517 1.0156t0.84129 0.35243q0.37517 0 0.64044-0.19706 0.26528-0.19706 0.42065-0.62907zm-2.2397-1.1028h2.2472q-0.0455-0.5078-0.25769-0.76171-0.32591-0.39412-0.84508-0.39412-0.46992 0-0.79203 0.31454-0.31833 0.31454-0.35244 0.84129z" style="font-variant-caps:normal;font-variant-east-asian:normal;font-variant-ligatures:normal;font-variant-numeric:normal"/>
   </g>
   <g id="text_blu" transform="translate(-6.949 79.646)" style="font-variant-caps:normal;font-variant-east-asian:normal;font-variant-ligatures:normal;font-variant-numeric:normal;shape-inside:url(#rect897);white-space:pre" aria-label="Phlegm Water">
    <path d="m97.556 103.74v-5.5556h2.0957q0.55328 0 0.84508 0.05306 0.40928 0.06821 0.68592 0.26148 0.27664 0.18948 0.44338 0.53433 0.17053 0.34485 0.17053 0.75792 0 0.70866-0.45096 1.2013-0.45096 0.48886-1.6295 0.48886h-1.4249v2.2586zm0.73518-2.9142h1.4363q0.71244 0 1.0118-0.26527t0.29938-0.74655q0-0.34864-0.17811-0.59497-0.17432-0.25011-0.46233-0.3297-0.18569-0.04926-0.68592-0.04926h-1.4211z" style="font-variant-caps:normal;font-variant-east-asian:normal;font-variant-ligatures:normal;font-variant-numeric:normal"/>
    <path d="m102.65 103.74v-5.5556h0.68213v1.9933q0.47749-0.55328 1.2051-0.55328 0.44717 0 0.77687 0.17811 0.32969 0.17432 0.46991 0.48507 0.144 0.31075 0.144 0.90192v2.5504h-0.68213v-2.5504q0-0.51159-0.22358-0.74276-0.2198-0.23495-0.62529-0.23495-0.30317 0-0.57223 0.15916-0.26527 0.15537-0.37896 0.42443-0.11369 0.26907-0.11369 0.74277v2.2018z" style="font-variant-caps:normal;font-variant-east-asian:normal;font-variant-ligatures:normal;font-variant-numeric:normal"/>
    <path d="m106.95 103.74v-5.5556h0.68212v5.5556z" style="font-variant-caps:normal;font-variant-east-asian:normal;font-variant-ligatures:normal;font-variant-numeric:normal"/>
    <path d="m111.44 102.45 0.70486 0.0872q-0.16674 0.61771-0.6177 0.95877-0.45097 0.34107-1.152 0.34107-0.88298 0-1.4022-0.54192-0.51538-0.5457-0.51538-1.5272 0-1.0156 0.52296-1.5765 0.52297-0.56086 1.3567-0.56086 0.80719 0 1.3188 0.54949 0.5116 0.54949 0.5116 1.5462 0 0.0606-4e-3 0.1819h-3.0014q0.0379 0.66318 0.37517 1.0156 0.33728 0.35244 0.8413 0.35244 0.37517 0 0.64044-0.19706t0.42065-0.62908zm-2.2397-1.1028h2.2472q-0.0455-0.50781-0.25769-0.76171-0.3259-0.39412-0.84508-0.39412-0.46991 0-0.79203 0.31454-0.31832 0.31453-0.35243 0.84129z" style="font-variant-caps:normal;font-variant-east-asian:normal;font-variant-ligatures:normal;font-variant-numeric:normal"/>
    <path d="m112.88 104.08 0.66318 0.0985q0.0417 0.30696 0.23116 0.44718 0.25391 0.18948 0.6935 0.18948 0.4737 0 0.73139-0.18948 0.2577-0.18948 0.34865-0.53055 0.053-0.20843 0.0493-0.8754-0.44717 0.52676-1.1141 0.52676-0.82992 0-1.2847-0.59876-0.45475-0.59876-0.45475-1.4363 0-0.57602 0.20843-1.0611 0.20843-0.48886 0.60255-0.75413 0.3979-0.26527 0.93224-0.26527 0.71244 0 1.1748 0.57602v-0.48507h0.62907v3.4789q0 0.93983-0.19327 1.3302-0.18948 0.39411-0.60634 0.62149-0.41306 0.22738-1.0194 0.22738-0.72003 0-1.1634-0.32591-0.44338-0.32212-0.42822-0.97393zm0.56465-2.4178q0 0.79203 0.31453 1.1558 0.31454 0.36381 0.78824 0.36381 0.46991 0 0.78824-0.36002 0.31833-0.3638 0.31833-1.1369 0-0.73897-0.3297-1.1141-0.32591-0.37517-0.78824-0.37517-0.45475 0-0.77308 0.37138-0.31832 0.36759-0.31832 1.0952z" style="font-variant-caps:normal;font-variant-east-asian:normal;font-variant-ligatures:normal;font-variant-numeric:normal"/>
    <path d="m117.32 103.74v-4.0246h0.61013v0.56465q0.18948-0.29559 0.50402-0.4737 0.31453-0.1819 0.71623-0.1819 0.44718 0 0.7314 0.18569 0.28801 0.18569 0.40548 0.51917 0.47749-0.70486 1.243-0.70486 0.59876 0 0.92088 0.33348 0.32211 0.3297 0.32211 1.0194v2.7626h-0.67834v-2.5352q0-0.40928-0.0682-0.58739-0.0644-0.1819-0.23874-0.2918-0.17432-0.10989-0.40928-0.10989-0.42444 0-0.70487 0.28422-0.28043 0.28043-0.28043 0.90192v2.3382h-0.68213v-2.6148q0-0.45475-0.16674-0.68213-0.16674-0.22737-0.5457-0.22737-0.28801 0-0.53434 0.15158-0.24253 0.15158-0.35243 0.44338t-0.1099 0.8413v2.0881z" style="font-variant-caps:normal;font-variant-east-asian:normal;font-variant-ligatures:normal;font-variant-numeric:normal"/>
    <path d="m101.48 113.44-1.4742-5.5556h0.75413l0.84508 3.6418q0.13643 0.57223 0.23496 1.1369 0.21222-0.89055 0.25011-1.027l1.0573-3.7517h0.88677l0.79582 2.8119q0.29937 1.0459 0.43201 1.9668 0.10611-0.52675 0.27664-1.2089l0.87161-3.5698h0.73897l-1.5234 5.5556h-0.70865l-1.171-4.233q-0.1478-0.53054-0.17432-0.65181-0.0872 0.38275-0.16296 0.65181l-1.1786 4.233z" style="font-variant-caps:normal;font-variant-east-asian:normal;font-variant-ligatures:normal;font-variant-numeric:normal"/>
    <path d="m110.08 112.95q-0.37896 0.32212-0.7314 0.45476-0.34864 0.13263-0.75034 0.13263-0.66318 0-1.0194-0.32211-0.35622-0.32591-0.35622-0.82993 0-0.29559 0.13263-0.53812 0.13643-0.24632 0.35244-0.39412 0.21979-0.14779 0.49264-0.22359 0.20085-0.053 0.60634-0.10232 0.82613-0.0985 1.2165-0.23495 4e-3 -0.14022 4e-3 -0.17811 0-0.41686-0.19327-0.58739-0.26148-0.23117-0.77687-0.23117-0.48128 0-0.71244 0.17054-0.22738 0.16674-0.33728 0.59496l-0.66697-0.0909q0.091-0.42822 0.29938-0.68971 0.20843-0.26527 0.60255-0.40548 0.39412-0.14401 0.91329-0.14401 0.51539 0 0.83751 0.12127 0.32211 0.12127 0.4737 0.30696 0.15158 0.1819 0.21221 0.46233 0.0341 0.17432 0.0341 0.62907v0.90951q0 0.95119 0.0417 1.2051 0.0455 0.25012 0.17432 0.48128h-0.71245q-0.10611-0.21222-0.13642-0.49644zm-0.0568-1.5234q-0.37138 0.15159-1.1141 0.2577-0.42065 0.0606-0.59497 0.13642-0.17432 0.0758-0.26906 0.22359-0.0947 0.144-0.0947 0.32212 0 0.27285 0.20464 0.45475 0.20843 0.1819 0.60634 0.1819 0.39411 0 0.70107-0.17053 0.30696-0.17433 0.45096-0.4737 0.1099-0.23117 0.1099-0.68213z" style="font-variant-caps:normal;font-variant-east-asian:normal;font-variant-ligatures:normal;font-variant-numeric:normal"/>
    <path d="m113.26 112.83 0.0985 0.60254q-0.28801 0.0606-0.51539 0.0606-0.37138 0-0.57602-0.11748t-0.28801-0.30696q-0.0834-0.19327-0.0834-0.80718v-2.3154h-0.50023v-0.53055h0.50023v-0.99666l0.67834-0.40928v1.4059h0.68592v0.53055h-0.68592v2.3533q0 0.2918 0.0341 0.37517 0.0379 0.0834 0.11748 0.13264 0.0834 0.0493 0.23496 0.0493 0.11369 0 0.29938-0.0265z" style="font-variant-caps:normal;font-variant-east-asian:normal;font-variant-ligatures:normal;font-variant-numeric:normal"/>
    <path d="m116.69 112.15 0.70486 0.0872q-0.16674 0.6177-0.6177 0.95877-0.45096 0.34106-1.152 0.34106-0.88298 0-1.4022-0.54191-0.51539-0.5457-0.51539-1.5272 0-1.0156 0.52296-1.5765 0.52297-0.56086 1.3567-0.56086 0.80719 0 1.3188 0.54949 0.51159 0.5495 0.51159 1.5462 0 0.0606-4e-3 0.1819h-3.0014q0.0379 0.66319 0.37517 1.0156t0.84129 0.35243q0.37517 0 0.64044-0.19706t0.42065-0.62907zm-2.2397-1.1028h2.2472q-0.0455-0.5078-0.2577-0.76171-0.3259-0.39412-0.84508-0.39412-0.46991 0-0.79203 0.31454-0.31832 0.31454-0.35243 0.84129z" style="font-variant-caps:normal;font-variant-east-asian:normal;font-variant-ligatures:normal;font-variant-numeric:normal"/>
    <path d="m118.24 113.44v-4.0246h0.61391v0.61013q0.23496-0.42823 0.43202-0.56465 0.20085-0.13643 0.43959-0.13643 0.34486 0 0.70108 0.2198l-0.23496 0.63286q-0.25011-0.14779-0.50022-0.14779-0.22359 0-0.4017 0.13642-0.17811 0.13264-0.25391 0.37139-0.11368 0.3638-0.11368 0.79581v2.107z" style="font-variant-caps:normal;font-variant-east-asian:normal;font-variant-ligatures:normal;font-variant-numeric:normal"/>
   </g>
   <g id="text_blck" transform="translate(29.4 44.901)" fill="#fff" style="shape-inside:url(#rect903);white-space:pre" aria-label="Black bile Earth">
    <path d="m94.076 103.74v-5.5556h2.0843q0.63665 0 1.0194 0.17053 0.38654 0.16674 0.60255 0.51918 0.2198 0.34864 0.2198 0.73139 0 0.35622-0.19327 0.67076-0.19327 0.31454-0.5836 0.50781 0.50402 0.14779 0.77308 0.50401 0.27285 0.35623 0.27285 0.8413 0 0.39032-0.16674 0.7276-0.16295 0.33348-0.40549 0.51539-0.24254 0.1819-0.61013 0.27664-0.3638 0.091-0.89435 0.091zm0.73518-3.2212h1.2013q0.48886 0 0.70108-0.0644 0.28043-0.0834 0.42065-0.27664 0.144-0.19327 0.144-0.48507 0-0.27664-0.13264-0.48507-0.13264-0.21222-0.37896-0.28801-0.24632-0.07958-0.84508-0.07958h-1.1104zm0 2.5656h1.3832q0.35622 0 0.50023-0.0265 0.2539-0.0455 0.42444-0.15159 0.17053-0.1061 0.28043-0.30695 0.1099-0.20464 0.1099-0.46991 0-0.31075-0.15916-0.53813-0.15916-0.23116-0.44338-0.32211-0.28043-0.0948-0.81098-0.0948h-1.2847z" style="font-variant-caps:normal;font-variant-east-asian:normal;font-variant-ligatures:normal;font-variant-numeric:normal"/>
    <path d="m99.18 103.74v-5.5556h0.68213v5.5556z" style="font-variant-caps:normal;font-variant-east-asian:normal;font-variant-ligatures:normal;font-variant-numeric:normal"/>
    <path d="m103.55 103.25q-0.37896 0.32212-0.73139 0.45475-0.34864 0.13264-0.75034 0.13264-0.66318 0-1.0194-0.32212-0.35623-0.3259-0.35623-0.82992 0-0.29559 0.13264-0.53813 0.13643-0.24632 0.35243-0.39411 0.2198-0.1478 0.49265-0.22359 0.20085-0.0531 0.60634-0.10232 0.82613-0.0985 1.2165-0.23496 4e-3 -0.14021 4e-3 -0.17811 0-0.41685-0.19327-0.58739-0.26148-0.23116-0.77687-0.23116-0.48128 0-0.71244 0.17053-0.22738 0.16674-0.33728 0.59497l-0.66697-0.0909q0.0909-0.42823 0.29938-0.68971 0.20843-0.26527 0.60255-0.40549 0.39412-0.144 0.91329-0.144 0.51539 0 0.8375 0.12127 0.32212 0.12127 0.4737 0.30696 0.15159 0.1819 0.21222 0.46233 0.0341 0.17433 0.0341 0.62908v0.9095q0 0.95119 0.0417 1.2051 0.0455 0.25011 0.17433 0.48128h-0.71245q-0.10611-0.21222-0.13643-0.49644zm-0.0568-1.5234q-0.37138 0.15158-1.1141 0.25769-0.42065 0.0606-0.59497 0.13643-0.17432 0.0758-0.26906 0.22358-0.0947 0.14401-0.0947 0.32212 0 0.27285 0.20464 0.45475 0.20842 0.1819 0.60633 0.1819 0.39412 0 0.70108-0.17053 0.30696-0.17432 0.45096-0.4737 0.1099-0.23117 0.1099-0.68213z" style="font-variant-caps:normal;font-variant-east-asian:normal;font-variant-ligatures:normal;font-variant-numeric:normal"/>
    <path d="m107.86 102.27 0.67076 0.0872q-0.10989 0.6935-0.56465 1.0876-0.45096 0.39033-1.1104 0.39033-0.82613 0-1.3302-0.53813-0.50023-0.54191-0.50023-1.5499 0-0.65182 0.21601-1.1407 0.21601-0.48885 0.6556-0.73139 0.44338-0.24632 0.96256-0.24632 0.6556 0 1.0725 0.33348 0.41685 0.3297 0.53433 0.93982l-0.66318 0.10232q-0.0947-0.40548-0.33727-0.61012-0.23875-0.20464-0.57981-0.20464-0.51539 0-0.83751 0.37138-0.32211 0.36759-0.32211 1.1672 0 0.81097 0.31074 1.1786 0.31075 0.3676 0.81098 0.3676 0.4017 0 0.67076-0.24633 0.26906-0.24632 0.34106-0.75792z" style="font-variant-caps:normal;font-variant-east-asian:normal;font-variant-ligatures:normal;font-variant-numeric:normal"/>
    <path d="m109.12 103.74v-5.5556h0.68213v3.1681l1.6144-1.6371h0.88298l-1.5386 1.4931 1.694 2.5315h-0.8413l-1.3302-2.0578-0.48128 0.46233v1.5954z" style="font-variant-caps:normal;font-variant-east-asian:normal;font-variant-ligatures:normal;font-variant-numeric:normal"/>
    <path d="m115.78 103.74h-0.63287v-5.5556h0.68213v1.982q0.43202-0.54191 1.1028-0.54191 0.37138 0 0.70108 0.15158 0.33348 0.14779 0.5457 0.42065 0.21601 0.26906 0.33727 0.65181 0.12127 0.38275 0.12127 0.81855 0 1.0346-0.5116 1.5992-0.51159 0.56465-1.2278 0.56465-0.71244 0-1.1179-0.59497zm-8e-3 -2.0426q0 0.72381 0.19706 1.0459 0.32212 0.52676 0.87161 0.52676 0.44717 0 0.77308-0.38654 0.3259-0.39033 0.3259-1.1596 0-0.78824-0.31453-1.1634-0.31075-0.37517-0.75414-0.37517-0.44717 0-0.77307 0.39033-0.32591 0.38654-0.32591 1.1217z" style="font-variant-caps:normal;font-variant-east-asian:normal;font-variant-ligatures:normal;font-variant-numeric:normal"/>
    <path d="m119.47 98.972v-0.78445h0.68213v0.78445zm0 4.7711v-4.0246h0.68213v4.0246z" style="font-variant-caps:normal;font-variant-east-asian:normal;font-variant-ligatures:normal;font-variant-numeric:normal"/>
    <path d="m121.18 103.74v-5.5556h0.68213v5.5556z" style="font-variant-caps:normal;font-variant-east-asian:normal;font-variant-ligatures:normal;font-variant-numeric:normal"/>
    <path d="m125.67 102.45 0.70487 0.0872q-0.16674 0.61771-0.6177 0.95877-0.45097 0.34107-1.152 0.34107-0.88298 0-1.4022-0.54192-0.51538-0.5457-0.51538-1.5272 0-1.0156 0.52296-1.5765 0.52297-0.56086 1.3567-0.56086 0.80719 0 1.3188 0.54949 0.5116 0.54949 0.5116 1.5462 0 0.0606-4e-3 0.1819h-3.0014q0.0379 0.66318 0.37517 1.0156 0.33728 0.35244 0.8413 0.35244 0.37517 0 0.64044-0.19706t0.42064-0.62908zm-2.2396-1.1028h2.2472q-0.0455-0.50781-0.25769-0.76171-0.32591-0.39412-0.84508-0.39412-0.46991 0-0.79203 0.31454-0.31832 0.31453-0.35243 0.84129z" style="font-variant-caps:normal;font-variant-east-asian:normal;font-variant-ligatures:normal;font-variant-numeric:normal"/>
    <path d="m101.45 113.57v-5.5556h4.017v0.65561h-3.2818v1.7015h3.0734v0.65181h-3.0734v1.891h3.4106v0.6556z" style="font-variant-caps:normal;font-variant-east-asian:normal;font-variant-ligatures:normal;font-variant-numeric:normal"/>
    <path d="m109.15 113.07q-0.37896 0.32211-0.73139 0.45475-0.34865 0.13264-0.75035 0.13264-0.66318 0-1.0194-0.32212-0.35622-0.32591-0.35622-0.82992 0-0.29559 0.13263-0.53813 0.13643-0.24632 0.35244-0.39412 0.21979-0.14779 0.49265-0.22358 0.20084-0.0531 0.60633-0.10232 0.82614-0.0985 1.2165-0.23496 4e-3 -0.14021 4e-3 -0.17811 0-0.41686-0.19327-0.58739-0.26149-0.23116-0.77687-0.23116-0.48128 0-0.71245 0.17053-0.22738 0.16674-0.33727 0.59497l-0.66697-0.091q0.091-0.42822 0.29937-0.6897 0.20843-0.26528 0.60255-0.40549 0.39412-0.14401 0.9133-0.14401 0.51538 0 0.8375 0.12127t0.4737 0.30696q0.15158 0.1819 0.21222 0.46233 0.0341 0.17432 0.0341 0.62908v0.9095q0 0.95119 0.0417 1.2051 0.0455 0.25012 0.17432 0.48128h-0.71266q-0.10611-0.21221-0.13643-0.49643zm-0.0568-1.5234q-0.37139 0.15158-1.1142 0.25769-0.42064 0.0606-0.59497 0.13642-0.17432 0.0758-0.26906 0.22359-0.0947 0.14401-0.0947 0.32212 0 0.27285 0.20464 0.45475 0.20843 0.1819 0.60634 0.1819 0.39412 0 0.70107-0.17053 0.30696-0.17432 0.45097-0.4737 0.1099-0.23117 0.1099-0.68213z" style="font-variant-caps:normal;font-variant-east-asian:normal;font-variant-ligatures:normal;font-variant-numeric:normal"/>
    <path d="m110.84 113.57v-4.0246h0.61392v0.61013q0.23496-0.42822 0.43201-0.56465 0.20085-0.13643 0.4396-0.13643 0.34485 0 0.70108 0.2198l-0.23496 0.63287q-0.25011-0.1478-0.50023-0.1478-0.22358 0-0.4017 0.13643-0.17811 0.13263-0.2539 0.37138-0.11369 0.3638-0.11369 0.79581v2.107z" style="font-variant-caps:normal;font-variant-east-asian:normal;font-variant-ligatures:normal;font-variant-numeric:normal"/>
    <path d="m114.92 112.96 0.0985 0.60255q-0.28801 0.0606-0.51539 0.0606-0.37138 0-0.57602-0.11748t-0.28801-0.30696q-0.0834-0.19327-0.0834-0.80718v-2.3154h-0.50023v-0.53055h0.50023v-0.99666l0.67834-0.40928v1.4059h0.68592v0.53055h-0.68592v2.3533q0 0.2918 0.0341 0.37517 0.0379 0.0834 0.11747 0.13264 0.0834 0.0493 0.23496 0.0493 0.11369 0 0.29938-0.0265z" style="font-variant-caps:normal;font-variant-east-asian:normal;font-variant-ligatures:normal;font-variant-numeric:normal"/>
    <path d="m115.59 113.57v-5.5556h0.68213v1.9933q0.47749-0.55329 1.2051-0.55329 0.44717 0 0.77687 0.17812 0.3297 0.17432 0.46991 0.48507 0.14401 0.31074 0.14401 0.90192v2.5504h-0.68213v-2.5504q0-0.5116-0.22359-0.74276-0.2198-0.23496-0.62528-0.23496-0.30317 0-0.57223 0.15917-0.26528 0.15537-0.37896 0.42443-0.11369 0.26906-0.11369 0.74276v2.2018z" style="font-variant-caps:normal;font-variant-east-asian:normal;font-variant-ligatures:normal;font-variant-numeric:normal"/>
   </g>
   <g id="text_red" transform="translate(-42.763 44.901)" fill="#fff" style="shape-inside:url(#rect909);white-space:pre" aria-label="Blood Air">
    <path d="m100.76 103.74v-5.5556h2.0843q0.63666 0 1.0194 0.17053 0.38654 0.16674 0.60254 0.51918 0.2198 0.34864 0.2198 0.73139 0 0.35622-0.19327 0.67076-0.19327 0.31454-0.5836 0.50781 0.50402 0.14779 0.77308 0.50401 0.27285 0.35623 0.27285 0.8413 0 0.39032-0.16674 0.7276-0.16295 0.33348-0.40549 0.51539-0.24253 0.1819-0.61012 0.27664-0.36381 0.091-0.89435 0.091zm0.73518-3.2212h1.2013q0.48886 0 0.70108-0.0644 0.28043-0.0834 0.42064-0.27664 0.14401-0.19327 0.14401-0.48507 0-0.27664-0.13264-0.48507-0.13264-0.21222-0.37896-0.28801-0.24632-0.07958-0.84508-0.07958h-1.1104zm0 2.5656h1.3832q0.35622 0 0.50023-0.0265 0.2539-0.0455 0.42443-0.15159 0.17054-0.1061 0.28043-0.30695 0.1099-0.20464 0.1099-0.46991 0-0.31075-0.15916-0.53813-0.15916-0.23116-0.44338-0.32211-0.28044-0.0948-0.81098-0.0948h-1.2847z" style="font-variant-caps:normal;font-variant-east-asian:normal;font-variant-ligatures:normal;font-variant-numeric:normal"/>
    <path d="m105.86 103.74v-5.5556h0.68213v5.5556z" style="font-variant-caps:normal;font-variant-east-asian:normal;font-variant-ligatures:normal;font-variant-numeric:normal"/>
    <path d="m107.35 101.73q0-1.1179 0.6215-1.6561 0.51917-0.44717 1.2657-0.44717 0.82992 0 1.3567 0.5457 0.52676 0.54191 0.52676 1.5007 0 0.77687-0.23496 1.224-0.23116 0.44338-0.67834 0.6897-0.44338 0.24633-0.97013 0.24633-0.84509 0-1.368-0.54192-0.51918-0.54191-0.51918-1.5613zm0.70108 0q0 0.77308 0.33727 1.1596 0.33728 0.38275 0.84888 0.38275 0.5078 0 0.84508-0.38654 0.33727-0.38654 0.33727-1.1786 0-0.74655-0.34106-1.1293-0.33728-0.38654-0.84129-0.38654-0.5116 0-0.84888 0.38275-0.33727 0.38275-0.33727 1.1558z" style="font-variant-caps:normal;font-variant-east-asian:normal;font-variant-ligatures:normal;font-variant-numeric:normal"/>
    <path d="m111.67 101.73q0-1.1179 0.6215-1.6561 0.51917-0.44717 1.2657-0.44717 0.82992 0 1.3567 0.5457 0.52676 0.54191 0.52676 1.5007 0 0.77687-0.23496 1.224-0.23116 0.44338-0.67834 0.6897-0.44338 0.24633-0.97013 0.24633-0.84509 0-1.368-0.54192-0.51918-0.54191-0.51918-1.5613zm0.70108 0q0 0.77308 0.33727 1.1596 0.33728 0.38275 0.84888 0.38275 0.5078 0 0.84508-0.38654 0.33727-0.38654 0.33727-1.1786 0-0.74655-0.34106-1.1293-0.33728-0.38654-0.84129-0.38654-0.5116 0-0.84888 0.38275-0.33727 0.38275-0.33727 1.1558z" style="font-variant-caps:normal;font-variant-east-asian:normal;font-variant-ligatures:normal;font-variant-numeric:normal"/>
    <path d="m118.85 103.74v-0.50781q-0.38275 0.59876-1.1255 0.59876-0.48128 0-0.88677-0.26527-0.4017-0.26528-0.62528-0.73898-0.2198-0.47749-0.2198-1.0952 0-0.60255 0.20085-1.0914 0.20085-0.49265 0.60255-0.75413 0.4017-0.26148 0.89813-0.26148 0.36381 0 0.64803 0.15537 0.28422 0.15158 0.46233 0.39791v-1.9933h0.67834v5.5556zm-2.1563-2.0085q0 0.77308 0.3259 1.1558 0.32591 0.38275 0.76929 0.38275 0.44718 0 0.75792-0.36381 0.31454-0.36759 0.31454-1.1179 0-0.82613-0.31833-1.2127-0.31832-0.38654-0.78444-0.38654-0.45476 0-0.76171 0.37138-0.30317 0.37138-0.30317 1.171z" style="font-variant-caps:normal;font-variant-east-asian:normal;font-variant-ligatures:normal;font-variant-numeric:normal"/>
    <path d="m105.36 113.57 2.1335-5.5556h0.79203l2.2738 5.5556h-0.8375l-0.64802-1.6826h-2.323l-0.61013 1.6826zm1.603-2.2813h1.8834l-0.57981-1.5386q-0.26527-0.70107-0.39412-1.152-0.10611 0.53434-0.29938 1.0611z" style="font-variant-caps:normal;font-variant-east-asian:normal;font-variant-ligatures:normal;font-variant-numeric:normal"/>
    <path d="m111.06 108.8v-0.78445h0.68213v0.78445zm0 4.7711v-4.0246h0.68213v4.0246z" style="font-variant-caps:normal;font-variant-east-asian:normal;font-variant-ligatures:normal;font-variant-numeric:normal"/>
    <path d="m112.78 113.57v-4.0246h0.61392v0.61013q0.23495-0.42822 0.43201-0.56465 0.20085-0.13643 0.4396-0.13643 0.34485 0 0.70107 0.2198l-0.23495 0.63287q-0.25012-0.1478-0.50023-0.1478-0.22359 0-0.4017 0.13643-0.17811 0.13263-0.2539 0.37138-0.11369 0.3638-0.11369 0.79581v2.107z" style="font-variant-caps:normal;font-variant-east-asian:normal;font-variant-ligatures:normal;font-variant-numeric:normal"/>
   </g>
  </g>
  <g id="text_outer">
   <g id="hot" transform="rotate(-43.644 67.954 76.057)" style="shape-inside:url(#rect865);white-space:pre" aria-label="HOT">
    <path d="m26.157 92.892v-10.101h2.0395v3.9756h3.9963v-3.9756h2.0395v10.101h-2.0395v-4.4166h-3.9963v4.4166z" style="font-variant-caps:normal;font-variant-east-asian:normal;font-variant-ligatures:normal;font-variant-numeric:normal"/>
    <path d="m35.927 87.904q0-1.5434 0.46164-2.5907 0.34451-0.7717 0.93706-1.3849 0.59945-0.61323 1.3091-0.9095 0.94396-0.39963 2.1773-0.39963 2.2324 0 3.5691 1.3849 1.3436 1.3849 1.3436 3.8516 0 2.446-1.3298 3.8309-1.3298 1.378-3.5553 1.378-2.2531 0-3.5829-1.3711-1.3298-1.378-1.3298-3.7896zm2.1015-0.0689q0 1.7157 0.79237 2.6045 0.79237 0.88194 2.0119 0.88194t1.9982-0.87505q0.78548-0.88194 0.78548-2.6389 0-1.7363-0.76481-2.5907-0.75792-0.85438-2.0188-0.85438t-2.0326 0.86816q-0.7717 0.86127-0.7717 2.6045z" style="font-variant-caps:normal;font-variant-east-asian:normal;font-variant-ligatures:normal;font-variant-numeric:normal"/>
    <path d="m49.59 92.892v-8.3922h-2.9972v-1.7088h8.0271v1.7088h-2.9903v8.3922z" style="font-variant-caps:normal;font-variant-east-asian:normal;font-variant-ligatures:normal;font-variant-numeric:normal"/>
   </g>
   <g id="cold" transform="rotate(-43.644 231.13 12.831)" style="shape-inside:url(#rect873);white-space:pre" aria-label="COLD">
    <path d="m32.613 89.178 1.9775 0.62701q-0.45475 1.6536-1.5158 2.4598-1.0542 0.79926-2.6803 0.79926-2.0119 0-3.3073-1.3711-1.2954-1.378-1.2954-3.762 0-2.5218 1.3022-3.9136 1.3022-1.3987 3.4244-1.3987 1.8535 0 3.011 1.0955 0.68902 0.64768 1.0335 1.8604l-2.0188 0.48231q-0.17914-0.78548-0.75103-1.2402-0.565-0.45475-1.378-0.45475-1.1231 0-1.8259 0.80615-0.69591 0.80615-0.69591 2.6114 0 1.9155 0.68902 2.7285 0.68902 0.81304 1.7914 0.81304 0.81304 0 1.3987-0.51676t0.8406-1.6261z" style="font-variant-caps:normal;font-variant-east-asian:normal;font-variant-ligatures:normal;font-variant-numeric:normal"/>
    <path d="m35.927 87.904q0-1.5434 0.46164-2.5907 0.34451-0.7717 0.93706-1.3849 0.59945-0.61323 1.3091-0.9095 0.94396-0.39963 2.1773-0.39963 2.2324 0 3.5691 1.3849 1.3436 1.3849 1.3436 3.8516 0 2.446-1.3298 3.8309-1.3298 1.378-3.5553 1.378-2.2531 0-3.5829-1.3711-1.3298-1.378-1.3298-3.7896zm2.1015-0.0689q0 1.7157 0.79237 2.6045 0.79237 0.88194 2.0119 0.88194t1.9982-0.87505q0.78548-0.88194 0.78548-2.6389 0-1.7363-0.76481-2.5907-0.75792-0.85438-2.0188-0.85438t-2.0326 0.86816q-0.7717 0.86127-0.7717 2.6045z" style="font-variant-caps:normal;font-variant-east-asian:normal;font-variant-ligatures:normal;font-variant-numeric:normal"/>
    <path d="m47.371 92.892v-10.018h2.0395v8.3165h5.0712v1.7019z" style="font-variant-caps:normal;font-variant-east-asian:normal;font-variant-ligatures:normal;font-variant-numeric:normal"/>
    <path d="m55.929 82.791h3.7276q1.2609 0 1.9224 0.19293 0.88883 0.26183 1.5227 0.93018t0.96463 1.6399q0.33073 0.96463 0.33073 2.384 0 1.2471-0.31006 2.1497-0.37896 1.1024-1.0818 1.7846-0.53054 0.51676-1.4332 0.80615-0.67524 0.2136-1.8052 0.2136h-3.8378zm2.0395 1.7088v6.6904h1.5227q0.85438 0 1.2333-0.09646 0.49609-0.12402 0.81993-0.4203 0.33073-0.29628 0.53743-0.97152 0.20671-0.68213 0.20671-1.8535 0-1.1713-0.20671-1.7983-0.2067-0.62701-0.57878-0.97841-0.37207-0.3514-0.94396-0.47542-0.42719-0.09646-1.6743-0.09646z" style="font-variant-caps:normal;font-variant-east-asian:normal;font-variant-ligatures:normal;font-variant-numeric:normal"/>
   </g>
   <g id="dry" transform="rotate(46.226 76.844 220.15)" style="shape-inside:url(#rect879);white-space:pre" aria-label="DRY">
    <path d="m26.143 82.791h3.7276q1.2609 0 1.9224 0.19293 0.88883 0.26183 1.5227 0.93018t0.96463 1.6399q0.33073 0.96463 0.33073 2.384 0 1.2471-0.31006 2.1497-0.37896 1.1024-1.0818 1.7846-0.53054 0.51676-1.4332 0.80615-0.67524 0.2136-1.8052 0.2136h-3.8378zm2.0395 1.7088v6.6904h1.5227q0.85438 0 1.2333-0.09646 0.49609-0.12402 0.81993-0.4203 0.33073-0.29628 0.53743-0.97152 0.20671-0.68213 0.20671-1.8535 0-1.1713-0.20671-1.7983-0.2067-0.62701-0.57878-0.97841-0.37207-0.3514-0.94396-0.47542-0.42719-0.09646-1.6743-0.09646z" style="font-variant-caps:normal;font-variant-east-asian:normal;font-variant-ligatures:normal;font-variant-numeric:normal"/>
    <path d="m36.347 92.892v-10.101h4.2926q1.6192 0 2.3496 0.27561 0.73725 0.26872 1.1782 0.96463 0.44097 0.69591 0.44097 1.5916 0 1.1369-0.66835 1.881-0.66835 0.73725-1.9982 0.93018 0.66146 0.38585 1.0886 0.84749 0.43408 0.46164 1.1644 1.6399l1.2333 1.9706h-2.4391l-1.4745-2.198q-0.78548-1.1782-1.0749-1.4814-0.28939-0.31006-0.61323-0.4203-0.32384-0.11713-1.0266-0.11713h-0.41341v4.2168zm2.0395-5.8291h1.509q1.4676 0 1.8328-0.12402t0.57188-0.42719q0.20671-0.30317 0.20671-0.75792 0-0.50987-0.27561-0.81993-0.26872-0.31695-0.76481-0.39963-0.24805-0.03445-1.4883-0.03445h-1.5916z" style="font-variant-caps:normal;font-variant-east-asian:normal;font-variant-ligatures:normal;font-variant-numeric:normal"/>
    <path d="m48.66 92.892v-4.2512l-3.7-5.8498h2.3909l2.3771 3.9963 2.3289-3.9963h2.3496l-3.7138 5.8635v4.2375z" style="font-variant-caps:normal;font-variant-east-asian:normal;font-variant-ligatures:normal;font-variant-numeric:normal"/>
   </g>
   <g id="wet" transform="rotate(46.226 -74.33 157.35)" style="shape-inside:url(#rect885);white-space:pre" aria-label="WET">
    <path d="m27.583 92.892-2.4116-10.101h2.0877l1.5227 6.9384 1.8466-6.9384h2.4253l1.7708 7.0556 1.5503-7.0556h2.0533l-2.4529 10.101h-2.1635l-2.0119-7.5516-2.005 7.5516z" style="font-variant-caps:normal;font-variant-east-asian:normal;font-variant-ligatures:normal;font-variant-numeric:normal"/>
    <path d="m39.468 92.892v-10.101h7.4896v1.7088h-5.4501v2.2393h5.0712v1.7019h-5.0712v2.7492h5.6431v1.7019z" style="font-variant-caps:normal;font-variant-east-asian:normal;font-variant-ligatures:normal;font-variant-numeric:normal"/>
    <path d="m51.154 92.892v-8.3922h-2.9972v-1.7088h8.0271v1.7088h-2.9903v8.3922z" style="font-variant-caps:normal;font-variant-east-asian:normal;font-variant-ligatures:normal;font-variant-numeric:normal"/>
   </g>
  </g>
 </g>
</svg>
