<svg width="206.08mm" height="182.38mm" version="1.1" viewBox="0 0 206.08 182.38" xmlns="http://www.w3.org/2000/svg">
 <style/>
 <g transform="translate(-1.6906 -60.132)">
  <path d="m87.69 150.81a12.095 26.08 0 0 1-0.0017 0.4359" fill="#800000" stroke="#f00" stroke-width="3.065"/>
  <path d="m111.12 219.98a19.277 27.97 0 0 1-3e-3 0.46749" fill="#800000" stroke="#f00" stroke-width="3.065"/>
  <circle cx="139.36" cy="129.04" r="68.408" fill="#ff8feb" fill-opacity=".74286"/>
  <circle cx="70.27" cy="128.77" r="68.408" fill="#5cb280" fill-opacity=".74286"/>
  <circle cx="102.48" cy="173.94" r="68.408" fill="#ffb280" fill-opacity=".54857"/>
  <g id="text_outer">
   <g transform="translate(-14.967 -1.6036)" style="shape-inside:url(#rect913);white-space:pre" aria-label="Justification">
    <path d="m31.019 89.208h1.8293v5.7547q0 1.1286-0.19844 1.7363-0.26665 0.79375-0.96738 1.2774-0.70073 0.47749-1.8479 0.47749-1.3457 0-2.0712-0.75034-0.72554-0.75654-0.73174-2.2138l1.7301-0.19844q0.03101 0.78135 0.22944 1.1038 0.29766 0.48989 0.90537 0.48989 0.61392 0 0.86816-0.34727 0.25425-0.35347 0.25425-1.4573z" style="shape-inside:url(#rect913);white-space:pre"/>
    <path d="m39.031 98.299v-0.96738q-0.76895 1.1162-2.0898 1.1162-0.58291 0-1.0914-0.22324-0.50229-0.22324-0.75034-0.55811-0.24185-0.34106-0.34106-0.83096-0.06821-0.32866-0.06821-1.0418v-4.0804h1.1162v3.6525q0 0.87436 0.06821 1.1782 0.10542 0.44028 0.44648 0.69453 0.34106 0.24805 0.84336 0.24805t0.94258-0.25425q0.44028-0.26045 0.62012-0.70073 0.18604-0.44648 0.18604-1.2898v-3.5285h1.1162v6.5856z"/>
    <path d="m41.331 96.333 1.1038-0.17363q0.09302 0.66352 0.5147 1.017 0.42788 0.35347 1.1906 0.35347 0.76894 0 1.141-0.31006 0.37207-0.31626 0.37207-0.73794 0-0.37827-0.32866-0.59531-0.22944-0.14883-1.141-0.37827-1.2278-0.31006-1.7053-0.5333-0.47129-0.22944-0.71934-0.62632-0.24185-0.40308-0.24185-0.88677 0-0.44028 0.19844-0.81235 0.20464-0.37827 0.5519-0.62632 0.26045-0.19224 0.70693-0.32246 0.45268-0.13643 0.96738-0.13643 0.77515 0 1.3581 0.22324 0.58911 0.22324 0.86816 0.60771 0.27905 0.37827 0.38447 1.017l-1.0914 0.14883q-0.07441-0.5085-0.43408-0.79375-0.35347-0.28525-1.0046-0.28525-0.76894 0-1.0976 0.25425-0.32866 0.25425-0.32866 0.59531 0 0.21704 0.13643 0.39067 0.13643 0.17983 0.42788 0.29766 0.16743 0.06201 0.98599 0.28525 1.1844 0.31626 1.6495 0.5209 0.47129 0.19844 0.73794 0.58291 0.26665 0.38447 0.26665 0.95498 0 0.55811-0.32866 1.0542-0.32246 0.48989-0.93638 0.76274-0.61392 0.26665-1.3891 0.26665-1.2836 0-1.9596-0.5333-0.66973-0.5333-0.85576-1.5813z"/>
    <path d="m50.565 97.301 0.16123 0.98599q-0.47129 0.09922-0.84336 0.09922-0.60772 0-0.94258-0.19224-0.33486-0.19224-0.47129-0.5023-0.13643-0.31626-0.13643-1.3208v-3.7889h-0.81856v-0.86816h0.81856v-1.6309l1.11-0.66973v2.3006h1.1224v0.86816h-1.1224v3.8509q0 0.47749 0.05581 0.61392 0.06201 0.13643 0.19224 0.21704 0.13643 0.08062 0.38447 0.08062 0.18604 0 0.48989-0.04341z"/>
    <path d="m51.663 90.492v-1.2836h1.1162v1.2836zm0 7.8073v-6.5856h1.1162v6.5856z"/>
    <path d="m54.745 98.299v-5.7175h-0.98599v-0.86816h0.98599v-0.70073q0-0.66352 0.11782-0.98599 0.16123-0.43408 0.56431-0.70073 0.40928-0.27285 1.141-0.27285 0.47129 0 1.0418 0.11162l-0.16743 0.97358q-0.34727-0.06201-0.65732-0.06201-0.5085 0-0.71934 0.21704-0.21084 0.21704-0.21084 0.81235v0.60772h1.2836v0.86816h-1.2836v5.7175z"/>
    <path d="m58.013 90.492v-1.2836h1.1162v1.2836zm0 7.8073v-6.5856h1.1162v6.5856z"/>
    <path d="m65.125 95.887 1.0976 0.14263q-0.17983 1.1348-0.92397 1.7797-0.73794 0.63872-1.8169 0.63872-1.3519 0-2.1766-0.88057-0.81856-0.88677-0.81856-2.5363 0-1.0666 0.35347-1.8666t1.0728-1.1968q0.72554-0.40308 1.5751-0.40308 1.0728 0 1.7549 0.5457 0.68213 0.5395 0.87436 1.5379l-1.0852 0.16743q-0.15503-0.66353-0.5519-0.99839-0.39067-0.33486-0.94878-0.33486-0.84336 0-1.3705 0.60772-0.5271 0.60151-0.5271 1.91 0 1.327 0.5085 1.9286t1.3271 0.60151q0.65732 0 1.0976-0.40308 0.44028-0.40308 0.55811-1.2402z"/>
    <path d="m71.475 97.487q-0.62012 0.5271-1.1968 0.74414-0.57051 0.21704-1.2278 0.21704-1.0852 0-1.6681-0.5271-0.58291-0.5333-0.58291-1.3581 0-0.48369 0.21704-0.88057 0.22324-0.40308 0.57671-0.64492 0.35967-0.24185 0.80615-0.36587 0.32866-0.08682 0.99219-0.16743 1.3519-0.16123 1.9906-0.38447 0.0062-0.22944 0.0062-0.29146 0-0.68213-0.31626-0.96118-0.42788-0.37827-1.2712-0.37827-0.78755 0-1.1658 0.27905-0.37207 0.27285-0.5519 0.97358l-1.0914-0.14883q0.14883-0.70073 0.48989-1.1286 0.34106-0.43408 0.98599-0.66352 0.64492-0.23564 1.4945-0.23564 0.84336 0 1.3705 0.19844 0.5271 0.19844 0.77515 0.5023 0.24805 0.29766 0.34727 0.75654 0.05581 0.28525 0.05581 1.0294v1.4883q0 1.5565 0.06821 1.972 0.07441 0.40928 0.28525 0.78755h-1.1658q-0.17363-0.34727-0.22324-0.81235zm-0.09302-2.4929q-0.60772 0.24805-1.8231 0.42168-0.68833 0.09922-0.97358 0.22324-0.28525 0.12402-0.44028 0.36587-0.15503 0.23564-0.15503 0.5271 0 0.44648 0.33486 0.74414 0.34106 0.29766 0.99219 0.29766 0.64492 0 1.1472-0.27905 0.5023-0.28525 0.73794-0.77515 0.17983-0.37827 0.17983-1.1162z"/>
    <path d="m76.678 97.301 0.16123 0.98599q-0.47129 0.09922-0.84336 0.09922-0.60772 0-0.94258-0.19224t-0.47129-0.5023q-0.13643-0.31626-0.13643-1.3208v-3.7889h-0.81856v-0.86816h0.81856v-1.6309l1.11-0.66973v2.3006h1.1224v0.86816h-1.1224v3.8509q0 0.47749 0.05581 0.61392 0.06201 0.13643 0.19224 0.21704 0.13642 0.08062 0.38447 0.08062 0.18604 0 0.48989-0.04341z"/>
    <path d="m77.776 90.492v-1.2836h1.1162v1.2836zm0 7.8073v-6.5856h1.1162v6.5856z"/>
    <path d="m80.176 95.006q0-1.8293 1.017-2.7099 0.84956-0.73174 2.0712-0.73174 1.3581 0 2.22 0.89297 0.86196 0.88677 0.86196 2.4557 0 1.2712-0.38447 2.003-0.37827 0.72554-1.11 1.1286-0.72554 0.40308-1.5875 0.40308-1.3829 0-2.2386-0.88677-0.84956-0.88677-0.84956-2.5549zm1.1472 0q0 1.265 0.5519 1.8976 0.5519 0.62632 1.3891 0.62632 0.83096 0 1.3829-0.63252 0.5519-0.63252 0.5519-1.9286 0-1.2216-0.5581-1.8479-0.5519-0.63252-1.3767-0.63252-0.83716 0-1.3891 0.62632-0.5519 0.62632-0.5519 1.8914z"/>
    <path d="m87.654 98.299v-6.5856h1.0046v0.93638q0.72554-1.0852 2.096-1.0852 0.59531 0 1.0914 0.21704 0.5023 0.21084 0.75034 0.55811t0.34727 0.82476q0.06201 0.31006 0.06201 1.0852v4.0494h-1.1162v-4.006q0-0.68213-0.13022-1.017-0.13022-0.34106-0.46509-0.5395-0.32866-0.20464-0.77515-0.20464-0.71313 0-1.234 0.45269-0.5147 0.45268-0.5147 1.7177v3.5967z"/>
   </g>
   <g transform="translate(130.43 -1.0691)" style="shape-inside:url(#rect924);white-space:pre" aria-label="Belief">
    <path d="m27.745 89.208h3.6339q1.079 0 1.6061 0.09302 0.5333 0.08682 0.94878 0.37207 0.42168 0.28525 0.70073 0.76274 0.27905 0.47129 0.27905 1.0604 0 0.63872-0.34726 1.172-0.34106 0.5333-0.93018 0.79995 0.83096 0.24185 1.2774 0.82476 0.44648 0.58291 0.44648 1.3705 0 0.62012-0.29146 1.2092-0.28525 0.58291-0.78755 0.93638-0.49609 0.34727-1.2278 0.42788-0.45889 0.04961-2.2138 0.06201h-3.0944zm1.8355 1.5131v2.1022h1.203q1.0728 0 1.3333-0.03101 0.47129-0.05581 0.73794-0.32246 0.27285-0.27285 0.27285-0.71314 0-0.42168-0.23564-0.68213-0.22944-0.26665-0.68833-0.32246-0.27285-0.03101-1.5689-0.03101zm0 3.6153v2.4309h1.6991q0.99219 0 1.2588-0.05581 0.40928-0.07441 0.66352-0.35967 0.26045-0.29146 0.26045-0.77515 0-0.40928-0.19844-0.69453-0.19844-0.28525-0.57671-0.41548-0.37207-0.13022-1.6247-0.13022z"/>
    <path d="m41.331 96.178 1.1534 0.14263q-0.27285 1.0108-1.0108 1.5689-0.73794 0.5581-1.8852 0.5581-1.4449 0-2.2944-0.88677-0.84336-0.89297-0.84336-2.4991 0-1.6619 0.85576-2.5797 0.85576-0.91777 2.22-0.91777 1.3208 0 2.158 0.89917 0.83716 0.89917 0.83716 2.5301 0 0.09922-0.0062 0.29766h-4.9113q0.06201 1.0852 0.61392 1.6619 0.5519 0.57671 1.3767 0.57671 0.61392 0 1.048-0.32246t0.68833-1.0294zm-3.6649-1.8045h3.6773q-0.07441-0.83096-0.42168-1.2464-0.5333-0.64492-1.3829-0.64492-0.76894 0-1.296 0.5147-0.5209 0.5147-0.57671 1.3767z"/>
    <path d="m43.861 98.299v-9.0909h1.1162v9.0909z"/>
    <path d="m46.714 90.492v-1.2836h1.1162v1.2836zm0 7.8073v-6.5856h1.1162v6.5856z"/>
    <path d="m54.038 96.178 1.1534 0.14263q-0.27285 1.0108-1.0108 1.5689-0.73794 0.5581-1.8852 0.5581-1.4449 0-2.2944-0.88677-0.84336-0.89297-0.84336-2.4991 0-1.6619 0.85576-2.5797 0.85576-0.91777 2.22-0.91777 1.3208 0 2.158 0.89917t0.83716 2.5301q0 0.09922-0.0062 0.29766h-4.9113q0.06201 1.0852 0.61392 1.6619 0.5519 0.57671 1.3767 0.57671 0.61392 0 1.048-0.32246t0.68833-1.0294zm-3.6649-1.8045h3.6773q-0.07441-0.83096-0.42168-1.2464-0.5333-0.64492-1.3829-0.64492-0.76895 0-1.296 0.5147-0.5209 0.5147-0.57671 1.3767z"/>
    <path d="m56.859 98.299v-5.7175h-0.98599v-0.86816h0.98599v-0.70073q0-0.66352 0.11782-0.98599 0.16123-0.43408 0.56431-0.70073 0.40928-0.27285 1.141-0.27285 0.47129 0 1.0418 0.11162l-0.16743 0.97358q-0.34727-0.06201-0.65732-0.06201-0.5085 0-0.71934 0.21704t-0.21084 0.81235v0.60772h1.2836v0.86816h-1.2836v5.7175z"/>
   </g>
   <g transform="translate(62.541 129.89)" style="shape-inside:url(#rect930);white-space:pre" aria-label="Truth">
    <path d="m29.785 98.299v-7.553h-2.6975v-1.5379h7.2244v1.5379h-2.6913v7.553z" style="shape-inside:url(#rect930);white-space:pre"/>
    <path d="m35.397 98.299v-6.5856h1.0046v0.99839q0.38447-0.70073 0.70693-0.92397 0.32866-0.22324 0.71934-0.22324 0.56431 0 1.1472 0.35967l-0.38447 1.0356q-0.40928-0.24185-0.81856-0.24185-0.36587 0-0.65732 0.22324-0.29146 0.21704-0.41548 0.60771-0.18604 0.59531-0.18604 1.3022v3.4479z"/>
    <path d="m43.954 98.299v-0.96738q-0.76894 1.1162-2.0898 1.1162-0.58291 0-1.0914-0.22324-0.5023-0.22324-0.75034-0.55811-0.24185-0.34106-0.34106-0.83096-0.06821-0.32866-0.06821-1.0418v-4.0804h1.1162v3.6525q0 0.87436 0.06821 1.1782 0.10542 0.44028 0.44648 0.69453 0.34106 0.24805 0.84336 0.24805t0.94258-0.25425q0.44028-0.26045 0.62012-0.70073 0.18604-0.44648 0.18604-1.2898v-3.5285h1.1162v6.5856z"/>
    <path d="m49.139 97.301 0.16123 0.98599q-0.47129 0.09922-0.84336 0.09922-0.60772 0-0.94258-0.19224t-0.47129-0.5023q-0.13643-0.31626-0.13643-1.3208v-3.7889h-0.81855v-0.86816h0.81855v-1.6309l1.11-0.66973v2.3006h1.1224v0.86816h-1.1224v3.8509q0 0.47749 0.05581 0.61392 0.06201 0.13643 0.19224 0.21704 0.13643 0.08062 0.38447 0.08062 0.18604 0 0.48989-0.04341z"/>
    <path d="m50.23 98.299v-9.0909h1.1162v3.2618q0.78135-0.90537 1.972-0.90537 0.73174 0 1.2712 0.29146 0.5395 0.28525 0.76895 0.79375 0.23564 0.5085 0.23564 1.4759v4.1734h-1.1162v-4.1734q0-0.83716-0.36587-1.2154-0.35967-0.38447-1.0232-0.38447-0.49609 0-0.93638 0.26045-0.43408 0.25425-0.62012 0.69453-0.18604 0.44028-0.18604 1.2154v3.6029z"/>
   </g>
  </g>
  <g transform="translate(48.643 41.16)" style="shape-inside:url(#rect936);white-space:pre" aria-label="Knowledge">
   <path d="m27.605 96.392v-7.5757h1.5296v3.3641l3.0902-3.3641h2.0567l-2.8525 2.9507 3.0076 4.625h-1.9792l-2.0826-3.5553-1.2402 1.2661v2.2893z" style="shape-inside:url(#rect936);white-space:pre"/>
   <path d="m40.209 96.392h-1.4521v-2.8009q0-0.88883-0.09302-1.1472-0.09302-0.26355-0.30489-0.40824-0.2067-0.14469-0.50126-0.14469-0.37724 0-0.67696 0.2067-0.29972 0.2067-0.41341 0.54777-0.10852 0.34106-0.10852 1.2609v2.4856h-1.4521v-5.488h1.3488v0.80615q0.7183-0.93017 1.8087-0.93017 0.48059 0 0.8785 0.1757 0.39791 0.17053 0.59944 0.43925 0.2067 0.26872 0.28422 0.60978 0.08268 0.34106 0.08268 0.97668z" style="shape-inside:url(#rect936);white-space:pre"/>
   <path d="m41.346 93.571q0-0.72347 0.35657-1.4004t1.0077-1.0335q0.65629-0.35657 1.4624-0.35657 1.2454 0 2.0412 0.81132 0.79582 0.80615 0.79582 2.0412 0 1.2454-0.80615 2.0671-0.80098 0.81648-2.0205 0.81648-0.75447 0-1.4418-0.34106-0.68213-0.34106-1.0387-0.99735-0.35657-0.66146-0.35657-1.6071zm1.4883 0.07751q0 0.81648 0.38757 1.2506 0.38757 0.43408 0.95601 0.43408t0.95084-0.43408q0.38757-0.43408 0.38757-1.2609 0-0.80615-0.38757-1.2402-0.3824-0.43408-0.95084-0.43408t-0.95601 0.43408q-0.38757 0.43408-0.38757 1.2506z" style="shape-inside:url(#rect936);white-space:pre"/>
   <path d="m49.17 96.392-1.7363-5.488h1.4108l1.0284 3.5967 0.94568-3.5967h1.4004l0.91467 3.5967 1.049-3.5967h1.4314l-1.7622 5.488h-1.3953l-0.94568-3.5295-0.93017 3.5295z" style="shape-inside:url(#rect936);white-space:pre"/>
   <path d="m56.378 96.392v-7.5757h1.4521v7.5757z" style="shape-inside:url(#rect936);white-space:pre"/>
   <path d="m62.497 94.646 1.4469 0.24288q-0.27905 0.79581-0.88366 1.2144-0.59944 0.41341-1.5038 0.41341-1.4314 0-2.1187-0.93534-0.5426-0.74931-0.5426-1.8914 0-1.3643 0.71313-2.1342 0.71313-0.77514 1.8035-0.77514 1.2247 0 1.9327 0.81132 0.70796 0.80615 0.67696 2.4753h-3.638q0.0155 0.64595 0.3514 1.0077 0.3359 0.35657 0.83716 0.35657 0.34106 0 0.57361-0.18603 0.23254-0.18604 0.3514-0.59944zm0.08268-1.4676q-0.0155-0.63045-0.32556-0.95601-0.31006-0.33073-0.75447-0.33073-0.47542 0-0.78548 0.34623-0.31006 0.34623-0.30489 0.94051z" style="shape-inside:url(#rect936);white-space:pre"/>
   <path d="m70.238 96.392h-1.3488v-0.80615q-0.3359 0.47025-0.79581 0.7028-0.45475 0.22738-0.91984 0.22738-0.94568 0-1.6226-0.75964-0.67179-0.76481-0.67179-2.1291 0-1.3953 0.65629-2.1187 0.65629-0.72864 1.6588-0.72864 0.91984 0 1.5916 0.76481v-2.7285h1.4521zm-3.8757-2.8629q0 0.8785 0.24288 1.2712 0.3514 0.56844 0.98185 0.56844 0.50126 0 0.85266-0.42375 0.3514-0.42891 0.3514-1.2764 0-0.94568-0.34106-1.3591-0.34106-0.41858-0.87333-0.41858-0.51676 0-0.86816 0.41341-0.34623 0.40824-0.34623 1.2247z" style="shape-inside:url(#rect936);white-space:pre"/>
   <path d="m71.535 96.754 1.6588 0.20154q0.04134 0.28939 0.1912 0.39791 0.2067 0.15503 0.65112 0.15503 0.56844 0 0.85266-0.17053 0.1912-0.11369 0.28939-0.3669 0.06718-0.18087 0.06718-0.66662v-0.80098q-0.65112 0.88883-1.6433 0.88883-1.1059 0-1.7518-0.93534-0.50643-0.73897-0.50643-1.8397 0-1.3798 0.66146-2.1084 0.66662-0.72864 1.6536-0.72864 1.018 0 1.6795 0.894v-0.76998h1.3591v4.9247q0 0.97151-0.1602 1.4521-0.1602 0.48059-0.44958 0.75447t-0.77514 0.42891q-0.48059 0.15503-1.2196 0.15503-1.3953 0-1.9792-0.48059-0.58394-0.47542-0.58394-1.2092 0-0.07235 0.0052-0.1757zm1.2971-3.2194q0 0.87333 0.3359 1.2816 0.34106 0.40308 0.83716 0.40308 0.53227 0 0.89917-0.41341 0.3669-0.41858 0.3669-1.2351 0-0.85266-0.3514-1.2661-0.3514-0.41341-0.88883-0.41341-0.52193 0-0.86299 0.40824-0.3359 0.40307-0.3359 1.2351z" style="shape-inside:url(#rect936);white-space:pre"/>
   <path d="m81.312 94.646 1.4469 0.24288q-0.27905 0.79581-0.88366 1.2144-0.59944 0.41341-1.5038 0.41341-1.4314 0-2.1187-0.93534-0.5426-0.74931-0.5426-1.8914 0-1.3643 0.71313-2.1342 0.71313-0.77514 1.8035-0.77514 1.2247 0 1.9327 0.81132 0.70796 0.80615 0.67696 2.4753h-3.638q0.0155 0.64595 0.3514 1.0077 0.3359 0.35657 0.83716 0.35657 0.34106 0 0.57361-0.18603 0.23254-0.18604 0.3514-0.59944zm0.08268-1.4676q-0.0155-0.63045-0.32556-0.95601-0.31006-0.33073-0.75447-0.33073-0.47542 0-0.78548 0.34623t-0.30489 0.94051z" style="shape-inside:url(#rect936);white-space:pre"/>
  </g>
  <g id="text-inner">
   <g transform="translate(56.127 -5.8799)" style="shape-inside:url(#rect950);white-space:pre" aria-label="False positive">
    <path d="m39.297 94.506 1.265-6.0606h3.9398l-0.1447 0.6904h-3.1295l-0.40101 1.9306h3.1874l-0.14469 0.6904h-3.1874l-0.57464 2.7492z" style="shape-inside:url(#rect950);white-space:pre"/>
    <path d="m47.326 93.961q-0.38861 0.33486-0.74828 0.49196-0.35967 0.15296-0.76894 0.15296-0.60772 0-0.97979-0.35553-0.37207-0.35967-0.37207-0.91777 0-0.36794 0.16536-0.64906 0.1695-0.28525 0.44648-0.45475 0.27698-0.17363 0.678-0.24805 0.25218-0.04961 0.95498-0.07855 0.70693-0.02894 1.0129-0.14883 0.08682-0.30592 0.08682-0.5085 0-0.26045-0.19017-0.40928-0.26045-0.20671-0.76068-0.20671-0.47129 0-0.77308 0.21084-0.29766 0.20671-0.43408 0.59118l-0.75654-0.06615q0.23151-0.65319 0.73174-1.0005 0.50436-0.34727 1.2692-0.34727 0.81442 0 1.2898 0.38861 0.3638 0.28939 0.3638 0.75241 0 0.3514-0.10335 0.81442l-0.24391 1.0914q-0.11576 0.5209-0.11576 0.84749 0 0.20671 0.09095 0.59531h-0.75654q-0.06201-0.21498-0.08682-0.5457zm0.27699-1.6785q-0.1571 0.06201-0.339 0.09508-0.17777 0.03307-0.59945 0.07028-0.65319 0.05788-0.92191 0.14883-0.26872 0.08682-0.40514 0.28112-0.13643 0.1943-0.13643 0.42995 0 0.31419 0.21497 0.51676 0.21911 0.20257 0.62012 0.20257 0.37207 0 0.7152-0.1943 0.34313-0.19844 0.54157-0.54984 0.19844-0.3514 0.31006-1.0005z" style="shape-inside:url(#rect950);white-space:pre"/>
    <path d="m49.017 94.506 1.265-6.0606h0.74828l-1.265 6.0606z" style="shape-inside:url(#rect950);white-space:pre"/>
    <path d="m51.026 93.006 0.74828-0.04548q0 0.32246 0.09922 0.54984 0.09922 0.22738 0.3638 0.37207 0.26872 0.14469 0.62425 0.14469 0.49609 0 0.74414-0.19844 0.24805-0.19844 0.24805-0.46716 0-0.1943-0.14883-0.36794-0.15296-0.17363-0.74828-0.42581-0.59118-0.25632-0.75654-0.35967-0.27699-0.1695-0.41755-0.39688-0.14056-0.23151-0.14056-0.52917 0-0.5209 0.41341-0.89297 0.41341-0.37207 1.1576-0.37207 0.82682 0 1.2568 0.38447 0.43408 0.38034 0.45062 1.0046l-0.73174 0.04961q-0.01654-0.39688-0.28112-0.62839-0.26458-0.23151-0.74828-0.23151-0.38861 0-0.60358 0.17777t-0.21497 0.38447q0 0.20671 0.18604 0.3638 0.12402 0.10749 0.64079 0.33073 0.8599 0.37207 1.0831 0.58704 0.35553 0.34313 0.35553 0.83509 0 0.3266-0.20257 0.64079-0.19844 0.31419-0.61185 0.50436-0.40928 0.18604-0.96738 0.18604-0.76068 0-1.294-0.3762-0.5333-0.3762-0.50436-1.2237z" style="shape-inside:url(#rect950);white-space:pre"/>
    <path d="m58.413 93.014 0.7276 0.07441q-0.1571 0.54157-0.72347 1.0294-0.56224 0.48782-1.3436 0.48782-0.48782 0-0.8971-0.22324-0.40514-0.22738-0.62012-0.65732-0.21084-0.42995-0.21084-0.97979 0-0.71934 0.33073-1.3932 0.33486-0.678 0.86403-1.0046 0.52917-0.33073 1.1452-0.33073 0.78548 0 1.2526 0.48783 0.47129 0.48783 0.47129 1.3312 0 0.32246-0.05788 0.66146h-3.2329q-0.01654 0.12816-0.01654 0.23151 0 0.61598 0.28112 0.94258 0.28525 0.32246 0.69453 0.32246 0.38447 0 0.75654-0.25218 0.37207-0.25218 0.57878-0.7276zm-2.1745-1.0873h2.4639q0.0041-0.11576 0.0041-0.16536 0-0.56224-0.28112-0.8599-0.28112-0.30179-0.72347-0.30179-0.47956 0-0.87643 0.33073-0.39274 0.33073-0.58704 0.99632z" style="shape-inside:url(#rect950);white-space:pre"/>
    <path d="m34.824 106.77 1.2692-6.073h0.6904l-0.12816 0.61185q0.38447-0.40101 0.68626-0.55397 0.30592-0.1571 0.64492-0.1571 0.62839 0 1.0418 0.45889 0.41341 0.45475 0.41341 1.3064 0 0.68626-0.22738 1.2526-0.22738 0.56224-0.55811 0.90538-0.33073 0.34313-0.66973 0.50436-0.339 0.16123-0.69453 0.16123-0.78962 0-1.2237-0.80202l-0.49609 2.3854zm1.48-3.4768q0 0.49196 0.07028 0.68213 0.10335 0.26872 0.339 0.43408 0.23564 0.16537 0.5457 0.16537 0.64492 0 1.0418-0.72347 0.39688-0.72761 0.39688-1.4842 0-0.5581-0.26872-0.8599-0.26458-0.30592-0.66146-0.30592-0.28525 0-0.52917 0.15296-0.24391 0.14883-0.45475 0.45062-0.20671 0.29766-0.34313 0.73174t-0.13643 0.75654z" style="shape-inside:url(#rect950);white-space:pre"/>
    <path d="m40.033 103.42q0-1.2857 0.75654-2.1291 0.62425-0.69453 1.6371-0.69453 0.79375 0 1.2774 0.49609 0.48783 0.4961 0.48783 1.3395 0 0.75654-0.30592 1.4097-0.30592 0.64906-0.8723 0.99632-0.56224 0.34727-1.1865 0.34727-0.51263 0-0.93431-0.21911-0.41755-0.21911-0.64079-0.62012-0.21911-0.40101-0.21911-0.92604zm0.74828-0.0744q0 0.62011 0.29766 0.94257 0.29766 0.31833 0.75654 0.31833 0.23978 0 0.47542-0.0951 0.23564-0.0992 0.43822-0.29766 0.20257-0.19844 0.34313-0.45062 0.14469-0.25631 0.23151-0.54984 0.12816-0.40927 0.12816-0.78548 0-0.59531-0.30179-0.92191-0.29766-0.33072-0.75241-0.33072-0.3514 0-0.64079 0.16949-0.28939 0.16537-0.52503 0.48783-0.23151 0.32246-0.34313 0.75241-0.10749 0.42581-0.10749 0.76068z" style="shape-inside:url(#rect950);white-space:pre"/>
    <path d="m44.68 103.59 0.74828-0.0455q0 0.32246 0.09922 0.54984 0.09922 0.22737 0.3638 0.37207 0.26872 0.14469 0.62425 0.14469 0.49609 0 0.74414-0.19844 0.24805-0.19843 0.24805-0.46715 0-0.1943-0.14883-0.36794-0.15296-0.17363-0.74828-0.42581-0.59118-0.25632-0.75654-0.35967-0.27698-0.1695-0.41754-0.39687-0.14056-0.23151-0.14056-0.52917 0-0.5209 0.41341-0.89297 0.41341-0.37207 1.1576-0.37207 0.82682 0 1.2568 0.38447 0.43408 0.38034 0.45062 1.0046l-0.73174 0.0496q-0.01654-0.39687-0.28112-0.62838-0.26458-0.23151-0.74828-0.23151-0.38861 0-0.60358 0.17776-0.21497 0.17777-0.21497 0.38448 0 0.2067 0.18604 0.3638 0.12402 0.10748 0.64079 0.33073 0.8599 0.37207 1.0831 0.58704 0.35553 0.34313 0.35553 0.83509 0 0.3266-0.20257 0.64079-0.19844 0.31419-0.61185 0.50436-0.40928 0.18604-0.96738 0.18604-0.76068 0-1.294-0.37621-0.5333-0.3762-0.50436-1.2237z" style="shape-inside:url(#rect950);white-space:pre"/>
    <path d="m49.905 99.877 0.17777-0.84749h0.74414l-0.17777 0.84749zm-1.0914 5.2131 0.91777-4.3904h0.74828l-0.91777 4.3904z" style="shape-inside:url(#rect950);white-space:pre"/>
    <path d="m52.473 104.48-0.12402 0.61185q-0.26872 0.0703-0.5209 0.0703-0.44648 0-0.71107-0.2191-0.19844-0.16537-0.19844-0.45062 0-0.1447 0.10749-0.6656l0.5333-2.5508h-0.59118l0.11989-0.57877h0.59118l0.22738-1.079 0.85576-0.51676-0.33486 1.5958h0.73587l-0.12402 0.57877h-0.73174l-0.5085 2.4267q-0.09508 0.46302-0.09508 0.55397 0 0.13229 0.07441 0.20257 0.07855 0.0703 0.25218 0.0703 0.24805 0 0.44235-0.0496z" style="shape-inside:url(#rect950);white-space:pre"/>
    <path d="m54.139 99.877 0.17777-0.84749h0.74414l-0.17777 0.84749zm-1.0914 5.2131 0.91777-4.3904h0.74828l-0.91777 4.3904z" style="shape-inside:url(#rect950);white-space:pre"/>
    <path d="m56.065 105.09-0.71934-4.3904h0.7276l0.3762 2.4185q0.06201 0.39687 0.15296 1.294 0.21497-0.46715 0.54984-1.0707l1.4676-2.6417h0.78962l-2.5135 4.3904z" style="shape-inside:url(#rect950);white-space:pre"/>
    <path d="m62.415 103.6 0.7276 0.0744q-0.1571 0.54157-0.72347 1.0294-0.56224 0.48783-1.3436 0.48783-0.48782 0-0.8971-0.22324-0.40514-0.22738-0.62012-0.65733-0.21084-0.42995-0.21084-0.97978 0-0.71934 0.33073-1.3932 0.33486-0.678 0.86403-1.0046 0.52917-0.33073 1.1452-0.33073 0.78548 0 1.2526 0.48782 0.47129 0.48783 0.47129 1.3312 0 0.32246-0.05788 0.66146h-3.2329q-0.01654 0.12816-0.01654 0.23151 0 0.61598 0.28112 0.94258 0.28525 0.32246 0.69453 0.32246 0.38447 0 0.75654-0.25218 0.37207-0.25218 0.57878-0.72761zm-2.1745-1.0873h2.4639q0.0041-0.11575 0.0041-0.16536 0-0.56224-0.28112-0.8599-0.28112-0.30179-0.72347-0.30179-0.47956 0-0.87643 0.33073-0.39274 0.33073-0.58704 0.99632z" style="shape-inside:url(#rect950);white-space:pre"/>
   </g>
   <g transform="translate(97.821 73.766)" style="shape-inside:url(#rect966);white-space:pre" aria-label="Lucky guess">
    <path d="m38.545 94.506 1.265-6.0606h0.81029l-1.1203 5.3744h3.1461l-0.14469 0.68626z"/>
    <path d="m46.193 93.713q-0.78962 0.89297-1.6164 0.89297-0.5085 0-0.82269-0.28939-0.31006-0.29352-0.31006-0.7152 0-0.27699 0.14056-0.95085l0.52917-2.5342h0.74828l-0.58704 2.8071q-0.07441 0.3514-0.07441 0.5457 0 0.24805 0.14883 0.38861 0.15296 0.13643 0.44648 0.13643 0.31419 0 0.61185-0.15296 0.30179-0.15296 0.51676-0.41341 0.21911-0.26045 0.35553-0.61598 0.09095-0.22738 0.21084-0.79788l0.39688-1.8976h0.74828l-0.91777 4.3904h-0.6904z"/>
    <path d="m50.935 92.906 0.74828 0.07855q-0.28112 0.82269-0.80202 1.2237-0.51676 0.39688-1.1782 0.39688-0.7152 0-1.1617-0.46302-0.44235-0.46302-0.44235-1.294 0-0.71934 0.28525-1.4139 0.28525-0.69453 0.81442-1.0542 0.5333-0.3638 1.2154-0.3638 0.70693 0 1.1203 0.40101 0.41341 0.39688 0.41341 1.0542l-0.73587 0.04961q-0.0041-0.41755-0.24391-0.65319-0.23564-0.23564-0.62425-0.23564-0.45062 0-0.78135 0.28525-0.33073 0.28525-0.5209 0.86816-0.18604 0.57878-0.18604 1.1162 0 0.56224 0.24805 0.84336t0.61185 0.28112 0.69453-0.27699q0.33486-0.27699 0.52503-0.84336z"/>
    <path d="m52.146 94.506 1.2692-6.0606h0.74414l-0.78548 3.7579 2.1828-2.0877h0.98805l-1.8728 1.6371 1.1327 2.7533h-0.81856l-0.87643-2.2531-0.9095 0.78548-0.30592 1.4676z"/>
    <path d="m56.09 96.201 0.04548-0.7028q0.23151 0.06615 0.45062 0.06615 0.22738 0 0.36794-0.10335 0.1819-0.13642 0.39688-0.51263l0.23978-0.42995-0.73174-4.4028h0.73587l0.33073 2.22q0.09922 0.65732 0.1695 1.3146l1.9637-3.5347h0.78135l-2.7988 4.9733q-0.40514 0.7276-0.71934 0.96325t-0.72347 0.23564q-0.26045 0-0.5085-0.08682z"/>
    <path d="m38.208 105.51 0.75654 0.0703q-0.0083 0.25632 0.06201 0.38448 0.07028 0.12815 0.22324 0.19843 0.20257 0.0909 0.52503 0.0909 0.678 0 0.97565-0.3514 0.1943-0.23564 0.35967-1.0253l0.07441-0.35553q-0.58291 0.59118-1.2402 0.59118-0.66559 0-1.1162-0.48783-0.44648-0.49196-0.44648-1.3891 0-0.74001 0.3514-1.3601 0.35553-0.62012 0.84336-0.93432 0.48783-0.31832 1.0046-0.31832 0.86403 0 1.3312 0.81855l0.14883-0.71933h0.68626l-0.8847 4.2375q-0.14469 0.69866-0.38034 1.0873-0.23564 0.39274-0.65732 0.60771-0.41755 0.21498-0.96738 0.21498-0.52917 0-0.91364-0.13643-0.38034-0.13642-0.57051-0.40101-0.18604-0.26045-0.18604-0.59944 0-0.10336 0.02067-0.22325zm0.93431-2.3399q0 0.45062 0.08682 0.678 0.12402 0.31833 0.3514 0.48782 0.23151 0.16537 0.51263 0.16537 0.36794 0 0.73174-0.25632 0.3638-0.26045 0.58704-0.80201 0.22738-0.54157 0.22738-1.0335 0-0.54157-0.30179-0.8599-0.29766-0.32246-0.74001-0.32246-0.27285 0-0.52917 0.14883-0.25632 0.14469-0.47956 0.44648-0.21911 0.29766-0.33486 0.7152-0.11162 0.41755-0.11162 0.63252z"/>
    <path d="m45.955 104.32q-0.78962 0.89297-1.6164 0.89297-0.5085 0-0.82269-0.28939-0.31006-0.29352-0.31006-0.7152 0-0.27699 0.14056-0.95085l0.52917-2.5342h0.74828l-0.58704 2.8071q-0.07441 0.3514-0.07441 0.54571 0 0.24804 0.14883 0.3886 0.15296 0.13643 0.44648 0.13643 0.31419 0 0.61185-0.15296 0.30179-0.15297 0.51676-0.41342 0.21911-0.26045 0.35553-0.61598 0.09095-0.22738 0.21084-0.79788l0.39688-1.8976h0.74828l-0.91777 4.3904h-0.6904z"/>
    <path d="m50.891 103.62 0.7276 0.0744q-0.1571 0.54157-0.72347 1.0294-0.56224 0.48783-1.3436 0.48783-0.48782 0-0.8971-0.22325-0.40514-0.22737-0.62012-0.65732-0.21084-0.42995-0.21084-0.97979 0-0.71933 0.33073-1.3932 0.33486-0.678 0.86403-1.0046 0.52917-0.33073 1.1452-0.33073 0.78548 0 1.2526 0.48782 0.47129 0.48783 0.47129 1.3312 0 0.32246-0.05788 0.66146h-3.2329q-0.01654 0.12816-0.01654 0.23151 0 0.61598 0.28112 0.94258 0.28525 0.32246 0.69453 0.32246 0.38447 0 0.75654-0.25218 0.37207-0.25218 0.57878-0.72761zm-2.1745-1.0873h2.4639q0.0041-0.11576 0.0041-0.16536 0-0.56224-0.28112-0.8599-0.28112-0.30179-0.72347-0.30179-0.47956 0-0.87643 0.33073-0.39274 0.33073-0.58704 0.99632z"/>
    <path d="m52.446 103.61 0.74828-0.0455q0 0.32246 0.09922 0.54984 0.09922 0.22737 0.3638 0.37207 0.26872 0.14469 0.62425 0.14469 0.49609 0 0.74414-0.19844 0.24805-0.19843 0.24805-0.46715 0-0.19431-0.14883-0.36794-0.15296-0.17363-0.74828-0.42581-0.59118-0.25632-0.75654-0.35967-0.27699-0.1695-0.41755-0.39688-0.14056-0.23151-0.14056-0.52916 0-0.5209 0.41341-0.89297 0.41341-0.37207 1.1576-0.37207 0.82682 0 1.2568 0.38447 0.43408 0.38034 0.45062 1.0046l-0.73174 0.0496q-0.01654-0.39687-0.28112-0.62839-0.26458-0.23151-0.74828-0.23151-0.38861 0-0.60358 0.17777t-0.21497 0.38447q0 0.20671 0.18604 0.36381 0.12402 0.10748 0.64079 0.33073 0.8599 0.37207 1.0831 0.58704 0.35553 0.34313 0.35553 0.83509 0 0.3266-0.20257 0.64079-0.19844 0.31419-0.61185 0.50436-0.40928 0.18604-0.96738 0.18604-0.76068 0-1.294-0.37621-0.5333-0.3762-0.50436-1.2237z"/>
    <path d="m56.679 103.61 0.74828-0.0455q0 0.32246 0.09922 0.54984 0.09922 0.22737 0.3638 0.37207 0.26872 0.14469 0.62425 0.14469 0.49609 0 0.74414-0.19844 0.24805-0.19843 0.24805-0.46715 0-0.19431-0.14883-0.36794-0.15296-0.17363-0.74828-0.42581-0.59118-0.25632-0.75654-0.35967-0.27698-0.1695-0.41754-0.39688-0.14056-0.23151-0.14056-0.52916 0-0.5209 0.41341-0.89297 0.41341-0.37207 1.1576-0.37207 0.82682 0 1.2568 0.38447 0.43408 0.38034 0.45062 1.0046l-0.73174 0.0496q-0.01654-0.39687-0.28112-0.62839-0.26458-0.23151-0.74828-0.23151-0.38861 0-0.60358 0.17777t-0.21497 0.38447q0 0.20671 0.18604 0.36381 0.12402 0.10748 0.64079 0.33073 0.8599 0.37207 1.0831 0.58704 0.35553 0.34313 0.35553 0.83509 0 0.3266-0.20257 0.64079-0.19844 0.31419-0.61185 0.50436-0.40928 0.18604-0.96738 0.18604-0.76068 0-1.294-0.37621-0.5333-0.3762-0.50436-1.2237z"/>
   </g>
   <g transform="translate(10.156 73.232)" style="shape-inside:url(#rect970);white-space:pre" aria-label="De- nial">
    <path d="m42.82 94.506 1.265-6.0606h1.8273q0.65732 0 1.0046 0.09508 0.49609 0.12816 0.84749 0.45889 0.3514 0.3266 0.52917 0.81856t0.17777 1.1038q0 0.73174-0.22324 1.3353-0.21911 0.59945-0.57878 1.0583-0.35553 0.45475-0.74828 0.7152-0.38861 0.25632-0.92191 0.38034-0.40514 0.09508-0.99632 0.09508zm0.95498-0.68626h0.95912q0.64906 0 1.1534-0.11989 0.31419-0.07441 0.53744-0.21911 0.29352-0.18604 0.5333-0.49196 0.31419-0.40514 0.50023-0.92191 0.19017-0.5209 0.19017-1.1824 0-0.73587-0.25632-1.1286-0.25632-0.39688-0.65319-0.52503-0.29352-0.09508-0.91364-0.09508h-1.0707z"/>
    <path d="m52.063 93.014 0.7276 0.07441q-0.1571 0.54157-0.72347 1.0294-0.56224 0.48782-1.3436 0.48782-0.48783 0-0.8971-0.22324-0.40514-0.22738-0.62012-0.65732-0.21084-0.42995-0.21084-0.97979 0-0.71934 0.33073-1.3932 0.33486-0.678 0.86403-1.0046 0.52917-0.33073 1.1452-0.33073 0.78548 0 1.2526 0.48783 0.47129 0.48783 0.47129 1.3312 0 0.32246-0.05788 0.66146h-3.2329q-0.01654 0.12816-0.01654 0.23151 0 0.61598 0.28112 0.94258 0.28525 0.32246 0.69453 0.32246 0.38447 0 0.75654-0.25218 0.37207-0.25218 0.57878-0.7276zm-2.1745-1.0873h2.4639q0.0041-0.11576 0.0041-0.16536 0-0.56224-0.28112-0.8599-0.28112-0.30179-0.72347-0.30179-0.47956 0-0.87643 0.33073-0.39274 0.33073-0.58704 0.99632z"/>
    <path d="m53.659 92.687 0.1571-0.74828h2.282l-0.15296 0.74828z"/>
    <path d="m42.956 105.11 0.91777-4.3904h0.678l-0.16123 0.76481q0.44235-0.45062 0.82682-0.65733 0.38447-0.2067 0.78548-0.2067 0.5333 0 0.83509 0.28939 0.30592 0.28938 0.30592 0.77308 0 0.24391-0.10749 0.76894l-0.55811 2.6582h-0.74828l0.58291-2.7823q0.08682-0.40515 0.08682-0.59945 0-0.21911-0.15296-0.35553-0.14883-0.13643-0.43408-0.13643-0.57464 0-1.0253 0.41341-0.44648 0.41341-0.65732 1.418l-0.42581 2.0423z"/>
    <path d="m48.727 99.897 0.17777-0.84749h0.74414l-0.17777 0.84749zm-1.0914 5.2131 0.91777-4.3904h0.74828l-0.91777 4.3904z"/>
    <path d="m52.506 104.56q-0.38861 0.33487-0.74828 0.49196-0.35967 0.15297-0.76895 0.15297-0.60772 0-0.97979-0.35554-0.37207-0.35967-0.37207-0.91777 0-0.36794 0.16536-0.64906 0.1695-0.28525 0.44648-0.45475 0.27699-0.17363 0.678-0.24805 0.25218-0.0496 0.95498-0.0785 0.70693-0.0289 1.0129-0.14883 0.08682-0.30593 0.08682-0.5085 0-0.26045-0.19017-0.40928-0.26045-0.2067-0.76068-0.2067-0.47129 0-0.77308 0.21084-0.29766 0.2067-0.43408 0.59118l-0.75654-0.0661q0.23151-0.65319 0.73174-1.0005 0.50436-0.34726 1.2692-0.34726 0.81442 0 1.2898 0.3886 0.3638 0.28939 0.3638 0.75241 0 0.3514-0.10335 0.81442l-0.24391 1.0914q-0.11576 0.5209-0.11576 0.8475 0 0.2067 0.09095 0.59531h-0.75654q-0.06201-0.21498-0.08682-0.54571zm0.27698-1.6784q-0.1571 0.062-0.339 0.0951-0.17777 0.0331-0.59945 0.0703-0.65319 0.0579-0.92191 0.14883-0.26872 0.0868-0.40514 0.28112-0.13643 0.1943-0.13643 0.42994 0 0.3142 0.21497 0.51677 0.21911 0.20257 0.62012 0.20257 0.37207 0 0.7152-0.1943 0.34313-0.19844 0.54157-0.54984 0.19844-0.3514 0.31006-1.0005z"/>
    <path d="m54.197 105.11 1.265-6.0606h0.74828l-1.265 6.0606z"/>
   </g>
  </g>
 </g>
</svg>
