<svg width="135.63mm" height="137.14mm" version="1.1" viewBox="0 0 135.63 137.14" xmlns="http://www.w3.org/2000/svg">
 <style/>
 <g transform="translate(-39.981 -84.092)">
  <path id="triangle_broken" d="m107.53 85.789-49.712 89.268h100.49z" fill="none" stroke="#000" stroke-width="1.665"/>
  <path id="triangle_empty" d="m157.78 115.19h-99.959l50.247 88.199z" fill="#fff" stroke="#fff" stroke-width=".26458px"/>
  <g stroke="#000" stroke-width="1.2052">
   <path transform="rotate(42.121)" d="m136.19 52.937a17.235 17.235 0 0 1-17.555 10.894 17.235 17.235 0 0 1-15.395-13.778 17.235 17.235 0 0 1 8.8872-18.651 17.235 17.235 0 0 1 20.399 3.2777l-12.388 11.982z"/>
   <path transform="matrix(-.74173 .67069 .67069 .74173 0 0)" d="m-23.719 197.53a17.235 17.235 0 0 1-17.555 10.894 17.235 17.235 0 0 1-15.395-13.778 17.235 17.235 0 0 1 8.8872-18.651 17.235 17.235 0 0 1 20.399 3.2777l-12.388 11.982z"/>
   <path transform="matrix(-.1856 -.98263 -.98263 .1856 0 0)" d="m-203.87-62.224a17.235 17.235 0 0 1-17.555 10.894 17.235 17.235 0 0 1-15.395-13.778 17.235 17.235 0 0 1 8.8872-18.651 17.235 17.235 0 0 1 20.399 3.2777l-12.388 11.982z"/>
  </g>
 </g>
</svg>
