<?xml version="1.0" encoding="UTF-8" standalone="no"?>
<svg
   xmlns:dc="http://purl.org/dc/elements/1.1/"
   xmlns:cc="http://creativecommons.org/ns#"
   xmlns:rdf="http://www.w3.org/1999/02/22-rdf-syntax-ns#"
   xmlns:svg="http://www.w3.org/2000/svg"
   xmlns="http://www.w3.org/2000/svg"
   viewBox="0 0 285.33334 198.66667"
   height="198.66667"
   width="285.33334"
   xml:space="preserve"
   id="svg2"
   version="1.1"><metadata
     id="metadata8"><rdf:RDF><cc:Work
         rdf:about=""><dc:format>image/svg+xml</dc:format><dc:type
           rdf:resource="http://purl.org/dc/dcmitype/StillImage" /><dc:title></dc:title></cc:Work></rdf:RDF></metadata><defs
     id="defs6" /><g
     transform="matrix(1.3333333,0,0,-1.3333333,0,198.66667)"
     id="g10"><g
       transform="scale(0.1)"
       id="g12"><g
         transform="scale(10)"
         id="g14"><g
           id="text18"
           style="font-variant:normal;font-weight:normal;font-size:24px;font-family:Helvetica;-inkscape-font-specification:Helvetica;writing-mode:lr-tb;fill:#000000;fill-opacity:1;fill-rule:nonzero;stroke:none"
           transform="matrix(1,0,0,-1,98.15,126.4)"
           aria-label="NH"><path
             id="path70"
             style=""
             d="M 15.504,-17.496 H 13.392 V -3.192 L 4.248,-17.496 H 1.824 V 0 H 3.936 V -14.184 L 12.984,0 h 2.52 z" /><path
             id="path72"
             style=""
             d="M 30.551999,-7.968 V 0 h 2.232 v -17.496 h -2.232 v 7.56 h -9 v -7.56 h -2.232 V 0 h 2.232 v -7.968 z" /></g><g
           id="text22"
           style="font-variant:normal;font-weight:normal;font-size:18px;font-family:Helvetica;-inkscape-font-specification:Helvetica;writing-mode:lr-tb;fill:#000000;fill-opacity:1;fill-rule:nonzero;stroke:none"
           transform="matrix(1,0,0,-1,132.8059,121.9)"
           aria-label="2"><path
             id="path75"
             style=""
             d="M 9.108,-1.566 H 2.394 c 0.162,-1.044 0.738,-1.71 2.304,-2.628 l 1.8,-0.972 c 1.782,-0.972 2.7,-2.286 2.7,-3.852 0,-1.062 -0.432,-2.052 -1.188,-2.754 -0.756,-0.666 -1.674,-0.99 -2.898,-0.99 -1.62,0 -2.826,0.558 -3.528,1.656 -0.45,0.684 -0.648,1.476 -0.684,2.772 h 1.584 c 0.054,-0.864 0.162,-1.386 0.378,-1.8 0.414,-0.774 1.242,-1.242 2.196,-1.242 1.44,0 2.52,1.026 2.52,2.394 0,1.008 -0.594,1.872 -1.728,2.52 L 4.194,-5.526 C 1.53,-4.014 0.756,-2.808 0.612,0 h 8.496 z" /></g><g
           id="text28"
           style="font-variant:normal;font-weight:normal;font-size:24px;font-family:Helvetica;-inkscape-font-specification:Helvetica;writing-mode:lr-tb;fill:#000000;fill-opacity:1;fill-rule:nonzero;stroke:none"
           transform="matrix(1,0,0,-1,132.75004,66.75)"
           aria-label="NN
NH"><path
             id="path78"
             style=""
             d="M 15.504,-17.496 H 13.392 V -3.192 L 4.248,-17.496 H 1.824 V 0 H 3.936 V -14.184 L 12.984,0 h 2.52 z" /><path
             id="path80"
             style=""
             d="m -53.246,-17.496 h -2.112 v 14.304 l -9.144,-14.304 h -2.424 V 0 h 2.112 V -14.184 L -55.766,0 h 2.52 z" /><path
             id="path82"
             style=""
             d="m 49.904002,42.154002 h -2.112 v 14.304 l -9.144,-14.304 h -2.424 v 17.496 h 2.112 v -14.184 l 9.048,14.184 h 2.52 z" /><path
             id="path84"
             style=""
             d="m 64.952001,51.682002 v 7.968 h 2.232 v -17.496 h -2.232 v 7.56 h -9 v -7.56 h -2.232 v 17.496 h 2.232 v -7.968 z" /></g><g
           id="text32"
           style="font-variant:normal;font-weight:normal;font-size:18px;font-family:Helvetica;-inkscape-font-specification:Helvetica;writing-mode:lr-tb;fill:#000000;fill-opacity:1;fill-rule:nonzero;stroke:none"
           transform="matrix(1,0,0,-1,201.80594,2.6)"
           aria-label="2"><path
             id="path87"
             style=""
             d="M 9.108,-1.566 H 2.394 c 0.162,-1.044 0.738,-1.71 2.304,-2.628 l 1.8,-0.972 c 1.782,-0.972 2.7,-2.286 2.7,-3.852 0,-1.062 -0.432,-2.052 -1.188,-2.754 -0.756,-0.666 -1.674,-0.99 -2.898,-0.99 -1.62,0 -2.826,0.558 -3.528,1.656 -0.45,0.684 -0.648,1.476 -0.684,2.772 h 1.584 c 0.054,-0.864 0.162,-1.386 0.378,-1.8 0.414,-0.774 1.242,-1.242 2.196,-1.242 1.44,0 2.52,1.026 2.52,2.394 0,1.008 -0.594,1.872 -1.728,2.52 L 4.194,-5.526 C 1.53,-4.014 0.756,-2.808 0.612,0 h 8.496 z" /></g><g
           id="text36"
           style="font-variant:normal;font-weight:normal;font-size:24px;font-family:Helvetica;-inkscape-font-specification:Helvetica;writing-mode:lr-tb;fill:#000000;fill-opacity:1;fill-rule:nonzero;stroke:none"
           transform="matrix(1,0,0,-1,98.149941,7.1)"
           aria-label="NH"><path
             id="path90"
             style=""
             d="M 15.504,-17.496 H 13.392 V -3.192 L 4.248,-17.496 H 1.824 V 0 H 3.936 V -14.184 L 12.984,0 h 2.52 z" /><path
             id="path92"
             style=""
             d="M -82.688498,-7.968 V 0 h 2.232 v -17.496 h -2.232 v 7.56 h -9 v -7.56 h -2.232 V 0 h 2.232 v -7.968 z" /></g><g
           id="text40"
           style="font-variant:normal;font-weight:normal;font-size:18px;font-family:Helvetica;-inkscape-font-specification:Helvetica;writing-mode:lr-tb;fill:#000000;fill-opacity:1;fill-rule:nonzero;stroke:none"
           transform="matrix(1,0,0,-1,19.565541,2.6)"
           aria-label="2"><path
             id="path95"
             style=""
             d="M 9.108,-1.566 H 2.394 c 0.162,-1.044 0.738,-1.71 2.304,-2.628 l 1.8,-0.972 c 1.782,-0.972 2.7,-2.286 2.7,-3.852 0,-1.062 -0.432,-2.052 -1.188,-2.754 -0.756,-0.666 -1.674,-0.99 -2.898,-0.99 -1.62,0 -2.826,0.558 -3.528,1.656 -0.45,0.684 -0.648,1.476 -0.684,2.772 h 1.584 c 0.054,-0.864 0.162,-1.386 0.378,-1.8 0.414,-0.774 1.242,-1.242 2.196,-1.242 1.44,0 2.52,1.026 2.52,2.394 0,1.008 -0.594,1.872 -1.728,2.52 L 4.194,-5.526 C 1.53,-4.014 0.756,-2.808 0.612,0 h 8.496 z" /></g><g
           id="text44"
           style="font-variant:normal;font-weight:normal;font-size:24px;font-family:Helvetica;-inkscape-font-specification:Helvetica;writing-mode:lr-tb;fill:#000000;fill-opacity:1;fill-rule:nonzero;stroke:none"
           transform="matrix(1,0,0,-1,29.573341,7.1)"
           aria-label="N"><path
             id="path98"
             style=""
             d="M 15.504,-17.496 H 13.392 V -3.192 L 4.248,-17.496 H 1.824 V 0 H 3.936 V -14.184 L 12.984,0 h 2.52 z" /></g></g><path
         id="path46"
         style="fill:#000000;fill-opacity:1;fill-rule:nonzero;stroke:none"
         d="m 1076.5,966.5 -8.5,-5 -8.5,5 V 1242 h 17" /><path
         id="path48"
         style="fill:#000000;fill-opacity:1;fill-rule:nonzero;stroke:none"
         d="m 1315.5,829 -8.5,-15 -239,138 v 9.5 l 8.5,5" /><path
         id="path50"
         style="fill:#000000;fill-opacity:1;fill-rule:nonzero;stroke:none"
         d="m 1285.5,777.5 -8.5,-15 -213,123 8.5,14.5 z" /><path
         id="path52"
         style="fill:#000000;fill-opacity:1;fill-rule:nonzero;stroke:none"
         d="m 833,814.5 -8.5,14.5 235,137.5 8.5,-5 V 952" /><path
         id="path54"
         style="fill:#000000;fill-opacity:1;fill-rule:nonzero;stroke:none"
         d="m 1423,370 -8.5,-5 -8.5,5 v 275.5 h 17" /><path
         id="path56"
         style="fill:#000000;fill-opacity:1;fill-rule:nonzero;stroke:none"
         d="m 735,370 -8.5,-5 -8.5,5 v 275.5 h 17" /><path
         id="path58"
         style="fill:#000000;fill-opacity:1;fill-rule:nonzero;stroke:none"
         d="m 777.5,399.5 h 17 v 246 h -17 z" /><path
         id="path60"
         style="fill:#000000;fill-opacity:1;fill-rule:nonzero;stroke:none"
         d="m 1659,233 -8.5,-14.5 -236,137 v 9.5 l 8.5,5" /><path
         id="path62"
         style="fill:#000000;fill-opacity:1;fill-rule:nonzero;stroke:none"
         d="m 1174,217 -8.5,14.5 240.5,138.5 8.5,-5 v -9.5" /><path
         id="path64"
         style="fill:#000000;fill-opacity:1;fill-rule:nonzero;stroke:none"
         d="m 1144.5,268.5 -8.5,14.5 214.5,124 8.5,-15 z" /><path
         id="path66"
         style="fill:#000000;fill-opacity:1;fill-rule:nonzero;stroke:none"
         d="M 969,233.5 960,219 726.5,355.5 v 9.5 l 8.5,5" /><path
         id="path68"
         style="fill:#000000;fill-opacity:1;fill-rule:nonzero;stroke:none"
         d="m 488.5,217.5 -8.5,14.5 238,138 8.5,-5 v -9.5" /></g></g></svg>