<svg width="1491.4" height="1494.2" version="1.1" viewBox="0 0 394.61 395.35" xmlns="http://www.w3.org/2000/svg">
 <g transform="translate(-27.527 -26.414)">
  <path id="circle" d="m224.83 28.667a195.42 195.42 0 0 0-195.05 183.43h390.1a195.42 195.42 0 0 0-195.05-183.43zm-195.05 207.41a195.42 195.42 0 0 0 195.05 183.43 195.42 195.42 0 0 0 195.05-183.43z" fill="#6fd1d1" stroke="#000" stroke-linecap="round" stroke-linejoin="round" stroke-width="4.5072"/>
  <text fill="#000000" font-family="'Times New Roman'" font-size="50.8px" style="line-height:1.25;shape-inside:url(#rect854);white-space:pre" xml:space="preserve"/>
  <g id="arrows" transform="matrix(.25559 0 0 .25559 20.491 19.663)" shape-rendering="auto">
   <g transform="matrix(1.1549 0 0 1.1549 -106.74 -140.98)">
    <path d="m345.76 492.88v601.74h10v-601.74z" color="#000000" color-rendering="auto" dominant-baseline="auto" image-rendering="auto" solid-color="#000000" stop-color="#000000" style="font-feature-settings:normal;font-variant-alternates:normal;font-variant-caps:normal;font-variant-east-asian:normal;font-variant-ligatures:normal;font-variant-numeric:normal;font-variant-position:normal;font-variation-settings:normal;inline-size:0;isolation:auto;mix-blend-mode:normal;shape-margin:0;shape-padding:0;text-decoration-color:#000000;text-decoration-line:none;text-decoration-style:solid;text-indent:0;text-orientation:mixed;text-transform:none;white-space:normal"/>
    <g fill-rule="evenodd">
     <g transform="rotate(134.32 357.44 474.65)">
      <path d="m421.47 422.17v-56.569l-70.711 127.28 127.28-70.711z" color="#000000" color-rendering="auto" dominant-baseline="auto" image-rendering="auto" solid-color="#000000" stop-color="#000000" style="font-feature-settings:normal;font-variant-alternates:normal;font-variant-caps:normal;font-variant-east-asian:normal;font-variant-ligatures:normal;font-variant-numeric:normal;font-variant-position:normal;font-variation-settings:normal;inline-size:0;isolation:auto;mix-blend-mode:normal;shape-margin:0;shape-padding:0;text-decoration-color:#000000;text-decoration-line:none;text-decoration-style:solid;text-indent:0;text-orientation:mixed;text-transform:none;white-space:normal"/>
      <path d="m426.81 345.02-89.771 161.59 161.59-89.771h-71.816zm-10.668 41.164v41.32h41.32l-92.971 51.65z" color="#000000" color-rendering="auto" dominant-baseline="auto" image-rendering="auto" solid-color="#000000" stop-color="#000000" style="font-feature-settings:normal;font-variant-alternates:normal;font-variant-caps:normal;font-variant-east-asian:normal;font-variant-ligatures:normal;font-variant-numeric:normal;font-variant-position:normal;font-variation-settings:normal;inline-size:0;isolation:auto;mix-blend-mode:normal;shape-margin:0;shape-padding:0;text-decoration-color:#000000;text-decoration-line:none;text-decoration-style:solid;text-indent:0;text-orientation:mixed;text-transform:none;white-space:normal"/>
     </g>
     <g>
      <path d="m350.76 1075c11.04 0 20 8.96 20 20s-8.96 20-20 20-20-8.96-20-20 8.96-20 20-20z" color="#000000" color-rendering="auto" dominant-baseline="auto" image-rendering="auto" solid-color="#000000" stop-color="#000000" style="font-feature-settings:normal;font-variant-alternates:normal;font-variant-caps:normal;font-variant-east-asian:normal;font-variant-ligatures:normal;font-variant-numeric:normal;font-variant-position:normal;font-variation-settings:normal;inline-size:0;isolation:auto;mix-blend-mode:normal;shape-margin:0;shape-padding:0;text-decoration-color:#000000;text-decoration-line:none;text-decoration-style:solid;text-indent:0;text-orientation:mixed;text-transform:none;white-space:normal"/>
      <path d="m350.76 1072.4c-12.483 0-22.666 10.185-22.666 22.668 0 12.483 10.183 22.666 22.666 22.666 12.483 0 22.666-10.183 22.666-22.666 0-12.483-10.183-22.668-22.666-22.668zm0 5.3339c9.5972 0 17.334 7.7369 17.334 17.334 0 9.5972-7.7368 17.332-17.334 17.332-9.5972 0-17.334-7.7349-17.334-17.332 0-9.5971 7.7368-17.334 17.334-17.334z" color="#000000" color-rendering="auto" dominant-baseline="auto" image-rendering="auto" solid-color="#000000" stop-color="#000000" style="font-feature-settings:normal;font-variant-alternates:normal;font-variant-caps:normal;font-variant-east-asian:normal;font-variant-ligatures:normal;font-variant-numeric:normal;font-variant-position:normal;font-variation-settings:normal;inline-size:0;isolation:auto;mix-blend-mode:normal;shape-margin:0;shape-padding:0;text-decoration-color:#000000;text-decoration-line:none;text-decoration-style:solid;text-indent:0;text-orientation:mixed;text-transform:none;white-space:normal"/>
     </g>
    </g>
   </g>
   <g transform="matrix(-1.1549 .0016256 -.0016256 -1.1549 1639.8 1659.6)">
    <path d="m345.76 492.88v601.74h10v-601.74z" color="#000000" color-rendering="auto" dominant-baseline="auto" image-rendering="auto" solid-color="#000000" stop-color="#000000" style="font-feature-settings:normal;font-variant-alternates:normal;font-variant-caps:normal;font-variant-east-asian:normal;font-variant-ligatures:normal;font-variant-numeric:normal;font-variant-position:normal;font-variation-settings:normal;inline-size:0;isolation:auto;mix-blend-mode:normal;shape-margin:0;shape-padding:0;text-decoration-color:#000000;text-decoration-line:none;text-decoration-style:solid;text-indent:0;text-orientation:mixed;text-transform:none;white-space:normal"/>
    <g fill-rule="evenodd">
     <g transform="rotate(134.32 357.44 474.65)">
      <path d="m421.47 422.17v-56.569l-70.711 127.28 127.28-70.711z" color="#000000" color-rendering="auto" dominant-baseline="auto" image-rendering="auto" solid-color="#000000" stop-color="#000000" style="font-feature-settings:normal;font-variant-alternates:normal;font-variant-caps:normal;font-variant-east-asian:normal;font-variant-ligatures:normal;font-variant-numeric:normal;font-variant-position:normal;font-variation-settings:normal;inline-size:0;isolation:auto;mix-blend-mode:normal;shape-margin:0;shape-padding:0;text-decoration-color:#000000;text-decoration-line:none;text-decoration-style:solid;text-indent:0;text-orientation:mixed;text-transform:none;white-space:normal"/>
      <path d="m426.81 345.02-89.771 161.59 161.59-89.771h-71.816zm-10.668 41.164v41.32h41.32l-92.971 51.65z" color="#000000" color-rendering="auto" dominant-baseline="auto" image-rendering="auto" solid-color="#000000" stop-color="#000000" style="font-feature-settings:normal;font-variant-alternates:normal;font-variant-caps:normal;font-variant-east-asian:normal;font-variant-ligatures:normal;font-variant-numeric:normal;font-variant-position:normal;font-variation-settings:normal;inline-size:0;isolation:auto;mix-blend-mode:normal;shape-margin:0;shape-padding:0;text-decoration-color:#000000;text-decoration-line:none;text-decoration-style:solid;text-indent:0;text-orientation:mixed;text-transform:none;white-space:normal"/>
     </g>
     <g>
      <path d="m350.76 1075c11.04 0 20 8.96 20 20s-8.96 20-20 20-20-8.96-20-20 8.96-20 20-20z" color="#000000" color-rendering="auto" dominant-baseline="auto" image-rendering="auto" solid-color="#000000" stop-color="#000000" style="font-feature-settings:normal;font-variant-alternates:normal;font-variant-caps:normal;font-variant-east-asian:normal;font-variant-ligatures:normal;font-variant-numeric:normal;font-variant-position:normal;font-variation-settings:normal;inline-size:0;isolation:auto;mix-blend-mode:normal;shape-margin:0;shape-padding:0;text-decoration-color:#000000;text-decoration-line:none;text-decoration-style:solid;text-indent:0;text-orientation:mixed;text-transform:none;white-space:normal"/>
      <path d="m350.76 1072.4c-12.483 0-22.666 10.185-22.666 22.668 0 12.483 10.183 22.666 22.666 22.666 12.483 0 22.666-10.183 22.666-22.666 0-12.483-10.183-22.668-22.666-22.668zm0 5.3339c9.5972 0 17.334 7.7369 17.334 17.334 0 9.5972-7.7368 17.332-17.334 17.332-9.5972 0-17.334-7.7349-17.334-17.332 0-9.5971 7.7368-17.334 17.334-17.334z" color="#000000" color-rendering="auto" dominant-baseline="auto" image-rendering="auto" solid-color="#000000" stop-color="#000000" style="font-feature-settings:normal;font-variant-alternates:normal;font-variant-caps:normal;font-variant-east-asian:normal;font-variant-ligatures:normal;font-variant-numeric:normal;font-variant-position:normal;font-variation-settings:normal;inline-size:0;isolation:auto;mix-blend-mode:normal;shape-margin:0;shape-padding:0;text-decoration-color:#000000;text-decoration-line:none;text-decoration-style:solid;text-indent:0;text-orientation:mixed;text-transform:none;white-space:normal"/>
     </g>
    </g>
   </g>
  </g>
  <text transform="translate(4.2333 11.642)" fill="#000000" font-family="sans-serif" font-size="25.4px" style="line-height:1.25;shape-inside:url(#rect943);white-space:pre" xml:space="preserve"><tspan x="149.23438" y="125.08633"><tspan font-size="25.4px">SIGNIFIER</tspan></tspan></text>
  <text transform="translate(4.2333 206.38)" fill="#000000" font-family="sans-serif" font-size="25.4px" style="line-height:1.25;shape-inside:url(#rect957);white-space:pre" xml:space="preserve"><tspan x="149.23438" y="125.08633"><tspan font-size="25.4px">SIGNIFIED</tspan></tspan></text>
 </g>
</svg>
