<svg width="30" height="26" version="1.1" viewBox="0 0 30 26" xmlns="http://www.w3.org/2000/svg">
 <title>teeth-open</title>
 <style/>
 <path d="m9 0c-4.963 0-9 4.037-9 9v1c0 1.65 1.35 3 3 3 0.77 0 1.47-0.2993 2-0.7793 0.53 0.48 1.23 0.7793 2 0.7793h1c0.77 0 1.47-0.2993 2-0.7793 0.53 0.48 1.23 0.7793 2 0.7793h1c0.77 0 1.47-0.2993 2-0.7793 0.53 0.48 1.23 0.7793 2 0.7793h1c0.77 0 1.47-0.2993 2-0.7793 0.53 0.48 1.23 0.7793 2 0.7793h1c0.77 0 1.47-0.2993 2-0.7793 0.53 0.48 1.23 0.7793 2 0.7793 1.65 0 3-1.35 3-3v-1c0-4.963-4.037-9-9-9zm0 2h12c2.798 0 5.2125 1.6542 6.332 4.0332-0.11029-0.012427-0.21856-0.033203-0.33203-0.033203-0.61 0-1.1706 0.18023-1.6406 0.49023-0.63-0.9-1.6794-1.4902-2.8594-1.4902-0.76 0-1.4593 0.25016-2.0293 0.66016-0.62-0.99-1.7207-1.6602-2.9707-1.6602-0.98 0-1.86 0.41055-2.5 1.0605-0.64-0.65-1.52-1.0605-2.5-1.0605-1.25 0-2.3507 0.67016-2.9707 1.6602-0.57-0.41-1.2693-0.66016-2.0293-0.66016-1.18 0-2.2294 0.59023-2.8594 1.4902-0.47-0.31-1.0306-0.49023-1.6406-0.49023-0.11347 0-0.22174 0.020776-0.33203 0.033203 1.1195-2.379 3.534-4.0332 6.332-4.0332zm3.5 4c0.83 0 1.5 0.67 1.5 1.5v2.5c0 0.55-0.45 1-1 1h-1c-0.55 0-1-0.45-1-1v-2.5c0-0.83 0.67-1.5 1.5-1.5zm5 0c0.83 0 1.5 0.67 1.5 1.5v2.5c0 0.55-0.45 1-1 1h-1c-0.55 0-1-0.45-1-1v-2.5c0-0.83 0.67-1.5 1.5-1.5zm-10 1c0.83 0 1.5 0.67 1.5 1.5v1.5c0 0.55-0.45 1-1 1h-1c-0.55 0-1-0.45-1-1v-1.5c0-0.83 0.67-1.5 1.5-1.5zm15 0c0.83 0 1.5 0.67 1.5 1.5v1.5c0 0.55-0.45 1-1 1h-1c-0.55 0-1-0.45-1-1v-1.5c0-0.83 0.67-1.5 1.5-1.5zm-19.5 1c0.55 0 1 0.45 1 1v1c0 0.55-0.45 1-1 1s-1-0.45-1-1v-1c0-0.55 0.45-1 1-1zm24 0c0.55 0 1 0.45 1 1v1c0 0.55-0.45 1-1 1s-1-0.45-1-1v-1c0-0.55 0.45-1 1-1zm-24 7c-1.65 0-3 1.35-3 3v1c0 3.859 3.141 7 7 7h16c3.859 0 7-3.141 7-7v-1c0-1.65-1.35-3-3-3-0.77 0-1.47 0.2993-2 0.7793-0.53-0.48-1.23-0.7793-2-0.7793h-1c-0.77 0-1.47 0.2993-2 0.7793-0.53-0.48-1.23-0.7793-2-0.7793h-1c-0.77 0-1.47 0.2993-2 0.7793-0.53-0.48-1.23-0.7793-2-0.7793h-1c-0.77 0-1.47 0.2993-2 0.7793-0.53-0.48-1.23-0.7793-2-0.7793h-1c-0.77 0-1.47 0.2993-2 0.7793-0.53-0.48-1.23-0.7793-2-0.7793zm0 2c0.55 0 1 0.45 1 1s-0.45 1-1 1-1-0.45-1-1 0.45-1 1-1zm4 0h1c0.55 0 1 0.45 1 1v1c0 0.55-0.45 1-1 1-1.1 0-2-0.9-2-2 0-0.55 0.45-1 1-1zm5 0h1c0.55 0 1 0.45 1 1v1c0 0.55-0.45 1-1 1h-1c-0.55 0-1-0.45-1-1v-1c0-0.55 0.45-1 1-1zm5 0h1c0.55 0 1 0.45 1 1v1c0 0.55-0.45 1-1 1h-1c-0.55 0-1-0.45-1-1v-1c0-0.55 0.45-1 1-1zm5 0h1c0.55 0 1 0.45 1 1 0 1.1-0.9 2-2 2-0.55 0-1-0.45-1-1v-1c0-0.55 0.45-1 1-1zm5 0c0.55 0 1 0.45 1 1s-0.45 1-1 1-1-0.45-1-1 0.45-1 1-1zm-22.199 3.3809c0.74 0.98 1.8892 1.6191 3.1992 1.6191 0.77 0 1.47-0.2993 2-0.7793 0.53 0.48 1.23 0.7793 2 0.7793h1c0.77 0 1.47-0.2993 2-0.7793 0.53 0.48 1.23 0.7793 2 0.7793h1c0.77 0 1.47-0.2993 2-0.7793 0.53 0.48 1.23 0.7793 2 0.7793 1.31 0 2.4592-0.63914 3.1992-1.6191 0.5 0.39 1.1208 0.61914 1.8008 0.61914 0.20842 0 0.41265-0.02154 0.60938-0.0625-0.75833 1.7978-2.5388 3.0625-4.6094 3.0625h-16c-2.0706 0-3.851-1.2647-4.6094-3.0625 0.19673 0.040963 0.40096 0.0625 0.60938 0.0625 0.68 0 1.3008-0.22914 1.8008-0.61914z"/>
</svg>
